<?xml version="1.0" encoding="utf-8"?>
<!-- Generator: Adobe Illustrator 26.5.2, SVG Export Plug-In . SVG Version: 6.00 Build 0)  -->
<svg version="1.1" id="Ebene_2_00000063626443870268213410000004521517750123761077_"
	 xmlns="http://www.w3.org/2000/svg" xmlns:xlink="http://www.w3.org/1999/xlink" x="0px" y="0px" viewBox="0 0 103.3 108.7"
	 style="enable-background:new 0 0 103.3 108.7;" xml:space="preserve">
<style type="text/css">
	.st0{fill:#1E1E1E;}
</style>
<g id="_ąĎĽh_1">
	<g>
		<path class="st0" d="M101.9,57.6C95.2,35.7,75,20.2,56.3,1.9c-2.6-2.5-6.8-2.5-9.4,0C28.3,20.2,8.1,35.7,1.4,57.6
			c-6.1,19.7,8.8,36.6,23.5,36.6s26.8-12.5,26.8-27.9c0,15.4,12,27.9,26.8,27.9S108,77.2,101.9,57.6L101.9,57.6z"/>
		<path class="st0" d="M68,102.8H54.6V88.5c-1.1-1.2-2-2.5-2.9-3.9c-0.9,1.4-1.8,2.7-2.9,3.9v14.3H35.3c-1.6,0-2.9,1.3-2.9,2.9
			s1.3,2.9,2.9,2.9H68c1.6,0,2.9-1.3,2.9-2.9S69.6,102.8,68,102.8z"/>
	</g>
</g>
</svg>
