<?xml version="1.0" encoding="UTF-8"?>
<svg id="Ebene_2" data-name="Ebene 2" xmlns="http://www.w3.org/2000/svg" viewBox="0 0 103.31 108.67">
  <defs>
    <style>
      .cls-1 {
        fill: #1e1e1e;
      }
    </style>
  </defs>
  <g id="_ąĎĽh_1" data-name="ąĎĽh 1">
    <g>
      <path class="cls-1" d="m101.92,57.59c-6.76-21.86-26.92-37.41-45.59-55.69-2.6-2.54-6.75-2.54-9.35,0C28.31,20.19,8.15,35.73,1.39,57.59c-6.08,19.66,8.8,36.61,23.49,36.61s26.77-12.5,26.77-27.91c0,15.42,11.99,27.91,26.77,27.91s29.57-16.96,23.49-36.61Z"/>
      <path class="cls-1" d="m68,102.84h-13.44v-14.33c-1.06-1.22-2.03-2.51-2.91-3.88-.88,1.37-1.85,2.67-2.91,3.89v14.32h-13.44c-1.61,0-2.91,1.3-2.91,2.91s1.3,2.91,2.91,2.91h32.7c1.61,0,2.91-1.3,2.91-2.91s-1.3-2.91-2.91-2.91Z"/>
    </g>
  </g>
</svg>