<?xml version="1.0" encoding="utf-8"?>
<!-- Generator: Adobe Illustrator 26.5.2, SVG Export Plug-In . SVG Version: 6.00 Build 0)  -->
<svg version="1.1" id="Ebene_2_00000152956932301318313340000016705499695451022783_"
	 xmlns="http://www.w3.org/2000/svg" xmlns:xlink="http://www.w3.org/1999/xlink" x="0px" y="0px" viewBox="0 0 70.7 82.9"
	 style="enable-background:new 0 0 70.7 82.9;" xml:space="preserve">
<style type="text/css">
	.st0{fill:#151515;}
	.st1{fill:#C90130;}
</style>
<g id="Ebene_1-2">
	<path class="st0" d="M69.2,67.6h-1.9v1.9h1.9V67.6z M65.7,82.7h5.1v-1.2l-1.6-0.3v-9h-3.5v1.2l1.6,0.3v7.5l-1.6,0.3V82.7z
		 M59.8,69.7v2.5h-1.7v1.4h1.7V80c0,1,0.2,1.7,0.7,2.2c0.5,0.5,1.1,0.7,1.8,0.7c0.3,0,0.7,0,1-0.1c0.3-0.1,0.6-0.2,0.8-0.3l-0.3-1.3
		c-0.1,0-0.3,0.1-0.5,0.1s-0.4,0-0.6,0c-0.3,0-0.6-0.1-0.8-0.3c-0.2-0.2-0.3-0.5-0.3-1v-6.3h2v-1.4h-2v-2.5L59.8,69.7L59.8,69.7z
		 M52.5,69.7v2.5h-1.7v1.4h1.7V80c0,1,0.2,1.7,0.7,2.2c0.5,0.5,1.1,0.7,1.8,0.7c0.3,0,0.7,0,1-0.1c0.3-0.1,0.6-0.2,0.8-0.3l-0.3-1.3
		c-0.1,0-0.3,0.1-0.5,0.1s-0.4,0-0.6,0c-0.3,0-0.6-0.1-0.8-0.3c-0.2-0.2-0.3-0.5-0.3-1v-6.3h2v-1.4h-2v-2.5L52.5,69.7L52.5,69.7z
		 M47.1,74.3c0.4,0.5,0.6,1.1,0.6,1.9v0.2h-4.8l0-0.1c0.1-0.8,0.4-1.5,0.8-2c0.5-0.5,1-0.8,1.6-0.8C46.1,73.5,46.7,73.8,47.1,74.3
		 M47.8,82.5c0.6-0.2,1.1-0.6,1.5-0.9l-0.7-1.2c-0.3,0.3-0.8,0.6-1.3,0.8c-0.5,0.2-1,0.3-1.7,0.3c-0.9,0-1.6-0.3-2.1-1
		s-0.7-1.5-0.8-2.5l0-0.1h6.8v-1.2c0-1.4-0.4-2.6-1.1-3.4c-0.7-0.8-1.8-1.3-3.2-1.3c-1.2,0-2.3,0.5-3.1,1.5c-0.9,1-1.3,2.2-1.3,3.7
		v0.4c0,1.5,0.4,2.8,1.3,3.8c0.9,1,2,1.4,3.5,1.4C46.4,82.9,47.2,82.7,47.8,82.5 M35.6,73.6v7.6l-1.6,0.3v1.2h5v-1.2l-1.6-0.3v-7.6
		h2.2v-1.4h-2.2v-1.3c0-0.6,0.1-1.1,0.4-1.4s0.7-0.5,1.2-0.5c0.2,0,0.3,0,0.5,0c0.2,0,0.3,0,0.4,0.1l0.2-1.4
		c-0.3-0.1-0.5-0.1-0.7-0.2s-0.4-0.1-0.7-0.1c-1,0-1.9,0.3-2.4,0.9c-0.6,0.6-0.9,1.5-0.9,2.6v1.3H34v1.4H35.6L35.6,73.6z M21,82.7h5
		v-1.2l-1.6-0.3V75c0.2-0.5,0.6-0.8,1-1.1s0.9-0.4,1.5-0.4c0.8,0,1.3,0.2,1.7,0.6c0.4,0.4,0.5,1,0.5,2v5.1l-1.6,0.3v1.2h5v-1.2
		L31,81.2v-5.1c0-1.4-0.3-2.4-0.9-3.1c-0.6-0.7-1.5-1-2.6-1c-0.7,0-1.3,0.2-1.8,0.5c-0.5,0.3-1,0.7-1.3,1.3l-0.1-1.6H21v1.2l1.6,0.3
		v7.5L21,81.4C21,81.4,21,82.7,21,82.7z M12.4,77.3c0-1.1,0.2-2,0.7-2.7s1.1-1.1,2.1-1.1c0.9,0,1.6,0.4,2.1,1.1
		c0.5,0.7,0.7,1.6,0.7,2.7v0.2c0,1.1-0.2,2-0.7,2.7s-1.2,1.1-2.1,1.1s-1.6-0.4-2.1-1.1s-0.7-1.6-0.7-2.7
		C12.4,77.5,12.4,77.3,12.4,77.3z M10.5,77.5c0,1.6,0.4,2.8,1.3,3.8c0.8,1,2,1.5,3.4,1.5s2.6-0.5,3.4-1.5s1.3-2.3,1.3-3.8v-0.2
		c0-1.6-0.4-2.8-1.3-3.8c-0.8-1-2-1.5-3.4-1.5s-2.6,0.5-3.4,1.5s-1.3,2.3-1.3,3.8L10.5,77.5L10.5,77.5z M2.5,80.3
		c-0.4-0.7-0.6-1.6-0.6-2.7v-0.4c0-1,0.2-1.9,0.6-2.6s1.1-1.1,2.1-1.1c0.4,0,0.8,0.1,1.2,0.2c0.3,0.1,0.6,0.3,0.9,0.5l0.4,1.6h1.5
		l-0.1-2.3c-0.4-0.5-1-0.9-1.7-1.1S5.5,72,4.7,72c-1.5,0-2.7,0.5-3.5,1.5c-0.8,1-1.2,2.2-1.2,3.7v0.4c0,1.5,0.4,2.8,1.2,3.7
		s2,1.5,3.5,1.5c1.1,0,2.1-0.3,2.9-1.1c0.8-0.7,1.2-1.5,1.2-2.4l0-0.1H7.1c0,0.6-0.2,1-0.7,1.4s-1,0.6-1.7,0.6
		C3.7,81.3,3,81,2.5,80.3"/>
	<rect x="24.8" y="4.7" transform="matrix(0.7071 -0.7071 0.7071 0.7071 -0.851 30.3728)" class="st0" width="22.9" height="22.9"/>
	
		<rect x="7.8" y="21.8" transform="matrix(0.7071 -0.7071 0.7071 0.7071 -17.8522 23.3317)" class="st0" width="22.9" height="22.9"/>
	
		<rect x="41.8" y="21.7" transform="matrix(0.7071 -0.7071 0.7071 0.7071 -7.8851 47.3769)" class="st0" width="22.9" height="22.9"/>
	<polygon class="st1" points="9.6,60.8 36.3,34.2 62.9,60.8 	"/>
</g>
</svg>
