<?xml version="1.0" encoding="UTF-8"?>
<svg id="Ebene_2" data-name="Ebene 2" xmlns="http://www.w3.org/2000/svg" xmlns:xlink="http://www.w3.org/1999/xlink" viewBox="0 0 400 250">
  <defs>
    <style>
      .cls-1 {
        fill: #fff;
      }

      .cls-2 {
        fill: #ca1434;
      }

      .cls-3 {
        clip-path: url(#clippath);
      }

      .cls-4 {
        fill: none;
      }
    </style>
    <clipPath id="clippath">
      <rect class="cls-4" width="400" height="250"/>
    </clipPath>
  </defs>
  <g id="Ebene_1-2" data-name="Ebene 1">
    <g class="cls-3">
      <rect class="cls-1" width="400" height="250"/>
      <path class="cls-2" d="m24.81,129.83c-1.28,8.56-5.97,39.86,9.17,49.34,12.12,7.59,25.05-6.25,61.78-15.76,46.11-11.94,76.7-3.33,79.85-13.69,2.55-8.4-17.84-13.07-27.93-32.71-19.19-37.36,24.46-79.18,10.97-93.05-13.89-14.27-77.28,12.45-111.52,56.28-14.27,18.27-20.18,35.28-22.32,49.58Z"/>
      <path class="cls-2" d="m229.17,196.07c-4.23,9.28,27.33,41.63,53.78,36.2,19.49-4,20.67-25.31,41.47-29.3,22.35-4.29,35.87,17.46,47.1,11.01,11.27-6.48,10.74-35.95-3.55-55.06-10.18-13.61-30.45-26.1-45.55-20.88-10.31,3.57-9.67,12.43-30.76,32.2-7.79,7.3-11.98,11.23-18.67,14.95-22.57,12.53-40.9,4.48-43.81,10.88Z"/>
    </g>
  </g>
</svg>