<?xml version="1.0" encoding="utf-8"?>
<!-- Generator: Adobe Illustrator 27.4.0, SVG Export Plug-In . SVG Version: 6.00 Build 0)  -->
<svg version="1.1" id="Ebene_2_00000149362522081674863430000014575234956322557340_"
	 xmlns="http://www.w3.org/2000/svg" xmlns:xlink="http://www.w3.org/1999/xlink" x="0px" y="0px" viewBox="0 0 800 425.5"
	 style="enable-background:new 0 0 800 425.5;" xml:space="preserve">
<style type="text/css">
	.st0{clip-path:url(#SVGID_00000072252884983072776020000011363110734982853780_);}
	.st1{fill:#FFFFFF;}
	.st2{fill:#151515;}
	.st3{fill:#C90130;}
	.st4{fill:none;stroke:#C90130;stroke-miterlimit:10;}
	.st5{fill:none;stroke:#151515;stroke-miterlimit:10;}
</style>
<g id="_ŚC__1">
	<g>
		<g>
			<defs>
				<rect id="SVGID_1_" y="0" width="800" height="425.5"/>
			</defs>
			<clipPath id="SVGID_00000100371057241551261110000010844997417117354393_">
				<use xlink:href="#SVGID_1_"  style="overflow:visible;"/>
			</clipPath>
			<g style="clip-path:url(#SVGID_00000100371057241551261110000010844997417117354393_);">
				<rect y="0" class="st1" width="800" height="425.5"/>
				<g>
					<path class="st2" d="M738,425.5c-10.3-42.8-65.2-79.1-116.7-79.1c-64.7,0-105.6,46.5-192.4,46.5c-91.5,0-176.9-60.4-279.8-60.4
						c-82.8,0-128.9,34-149.2,47v46.1L738,425.5L738,425.5z"/>
					<path class="st3" d="M468,118.5c71.8,48,30,110.9,126.9,166.4c84.5,43.5,171.5-1.6,205-32.2V0h-613
						C236.3,151.5,393.6,68.8,468,118.5L468,118.5z"/>
				</g>
				<g>
					<path class="st4" d="M639.3,426.8c-15.9-32.8-47-68.6-119.5-68.6c-70.2,0-122.5,62.4-177.4,50.2
						c-68.2-15.1-119.4-94.7-205.1-94.7c-65.8,0-131.1,34.9-139.2,44.6"/>
					<path class="st5" d="M161-8.1c8.2,17.9,32.9,87.3,84,96c73.4,15.5,123.5-33.1,213.4-1.7c61.8,21.6,92.6,162,249.7,198.6
						c92.4,18.5,150.3-24.1,154-27.3"/>
				</g>
				<g>
					<path class="st3" d="M568.7,351.9c3.6,0,6.4-2.5,6-5.3c-0.4-3.5-1.8-6.2-6.6-8.3c-2-0.9-5.7-0.5-6.9,0.9
						c-1.6,1.7-2.2,4.6-2.2,6.6C559,349,563.6,351.9,568.7,351.9L568.7,351.9z"/>
					<path class="st3" d="M626.3,383.3c2.2,0,5.8-1.4,5.6-3.3c-0.3-2.4-1.1-4.2-4-5.6c-1.2-0.6-4-0.7-5.5,0.1
						c-1.5,0.8-2.1,2.9-2.1,4.3C620.3,381,623.2,383.3,626.3,383.3L626.3,383.3z"/>
					<path class="st3" d="M607.6,289.7c0.5,0,1.5-0.4,1.7-0.8c0.4-1,0.5-1.9-0.7-2.5c-0.8-0.4-2.2-0.3-2.5,0.3
						c-0.3,0.5-0.5,1.1-0.3,1.7C606.1,289.5,607.4,289.7,607.6,289.7L607.6,289.7z"/>
					<path class="st3" d="M559,298.8c-0.6-2.5,0.2-6.4-3.3-8.4c-2.3-1.3-7.9-0.6-10,1c-2.4,2-1.6,6.2,0.6,8.2
						c1.8,1.6,3.4,3.1,6.4,2.9C555.1,302.5,559,300.9,559,298.8L559,298.8z"/>
					<path class="st3" d="M622.6,356.6c-0.2-0.9-1.9-2.1-3.3-1.7c-0.8,0.2-1.5,1.5-1.3,2.3c0.3,1.2,2.1,1.8,3.2,1.4
						C621.8,358.4,622.7,357.5,622.6,356.6L622.6,356.6z"/>
					<path class="st3" d="M540,346.6c-0.2-0.9-1.9-2.1-3.3-1.7c-0.8,0.2-1.5,1.5-1.3,2.3c0.3,1.2,2.1,1.8,3.2,1.4
						C539.2,348.4,540.2,347.5,540,346.6L540,346.6z"/>
					<path class="st3" d="M520.1,289.5c-0.2-0.9-1.9-2.1-3.3-1.7c-0.8,0.2-1.5,1.5-1.3,2.3c0.3,1.2,2.1,1.8,3.2,1.4
						C519.3,291.3,520.3,290.4,520.1,289.5L520.1,289.5z"/>
					<path class="st3" d="M612.4,410.6c-0.2-0.9-1.9-2.1-3.3-1.7c-0.8,0.2-1.5,1.5-1.3,2.3c0.3,1.2,2.1,1.8,3.2,1.4
						C611.6,412.4,612.6,411.5,612.4,410.6L612.4,410.6z"/>
					<path class="st3" d="M581.1,273.9c-0.2-0.9-1.9-2.1-3.3-1.7c-0.8,0.2-1.5,1.5-1.3,2.3c0.3,1.2,2.1,1.8,3.2,1.4
						C580.3,275.6,581.3,274.7,581.1,273.9L581.1,273.9z"/>
					<path class="st3" d="M660,414.5c-0.2-0.9-1.9-2.1-3.3-1.7c-0.8,0.2-1.5,1.5-1.3,2.3c0.3,1.2,2.1,1.8,3.2,1.4
						C659.2,416.3,660.2,415.4,660,414.5L660,414.5z"/>
					<path class="st3" d="M536.3,323.7c-0.7,0-1.7,0.7-1.7,1.1c0,0.8,0.6,1.5,1.5,1.5c0.8,0,1.5-0.4,1.6-1.2
						C537.7,324.4,537,323.7,536.3,323.7L536.3,323.7z"/>
					<path class="st3" d="M638,398.2c-0.7,0-1.7,0.7-1.7,1.1c0,0.8,0.6,1.5,1.5,1.5c0.8,0,1.5-0.4,1.6-1.2
						C639.4,399,638.6,398.2,638,398.2L638,398.2z"/>
					<path class="st3" d="M594.1,338.7c-0.9,0-2.1,0.9-2.1,1.5c0,1.1,0.7,1.9,1.9,2c1,0,1.9-0.6,2-1.6
						C595.8,339.7,594.9,338.7,594.1,338.7L594.1,338.7z"/>
					<path class="st3" d="M642.5,342.2c-3,0-7,3.4-7.1,5.9c-0.2,4.3,2.5,7.5,6.2,7.5c3.2,0.1,6.4-2.3,6.5-6.1
						C648.3,346,645.3,342.2,642.5,342.2L642.5,342.2z"/>
					<path class="st3" d="M617.2,320.7c-2,0-4.7,2.1-4.8,3.7c-0.1,2.7,1.7,4.8,4.2,4.8c2.2,0,4.3-1.5,4.4-3.9
						C621.1,323.1,619.1,320.7,617.2,320.7L617.2,320.7z"/>
					<path class="st3" d="M506.9,329.2c-2,0-4.7,2.1-4.8,3.7c-0.1,2.7,1.6,4.8,4.2,4.8c2.1,0,4.3-1.5,4.4-3.9
						C510.8,331.6,508.8,329.2,506.9,329.2L506.9,329.2z"/>
					<path class="st3" d="M593.7,368.1c-0.7,0-1.8,0.7-1.8,1.2c0,0.9,0.6,1.5,1.6,1.5c0.8,0,1.6-0.5,1.7-1.3
						C595.2,368.8,594.4,368.1,593.7,368.1L593.7,368.1z"/>
					<path class="st3" d="M585.6,307.1c-1.3,0-3.1,1.1-3.2,1.9c-0.1,1.4,1.1,2.4,2.8,2.4c1.4,0,2.9-0.7,2.9-2
						C588.2,308.3,586.8,307.1,585.6,307.1L585.6,307.1z"/>
					<path class="st3" d="M655.8,378.6c-1.4,0-3.4,1.4-3.4,2.5c-0.1,1.8,1.2,3.1,3,3.2c1.5,0,3.1-1,3.1-2.6
						C658.6,380.2,657.1,378.6,655.8,378.6L655.8,378.6z"/>
					<path class="st3" d="M567.3,383.1c-1.4,0-3.4,1.4-3.4,2.5c-0.1,1.8,1.2,3.1,3,3.2c1.5,0,3.1-1,3.1-2.6
						C570,384.7,568.6,383.1,567.3,383.1L567.3,383.1z"/>
				</g>
			</g>
		</g>
	</g>
</g>
</svg>
