<?xml version="1.0" encoding="utf-8"?>
<!-- Generator: Adobe Illustrator 26.5.2, SVG Export Plug-In . SVG Version: 6.00 Build 0)  -->
<svg version="1.1" id="Ebene_2_00000155845961244941657780000015127223189969771418_"
	 xmlns="http://www.w3.org/2000/svg" xmlns:xlink="http://www.w3.org/1999/xlink" x="0px" y="0px" viewBox="0 0 2478.8 1554.2"
	 style="enable-background:new 0 0 2478.8 1554.2;" xml:space="preserve">
<style type="text/css">
	.st0{fill:#FFEEE6;}
	.st1{fill:#FDDBC0;}
	.st2{fill:#C18472;}
	.st3{fill:#EFC9AF;}
	.st4{fill:#EDA280;}
	.st5{fill:#682B2B;}
	.st6{fill:#2B1305;}
	.st7{fill:#A3544F;}
	.st8{fill:#471F08;}
	.st9{fill:#C5D1D6;}
	.st10{fill:#67A4C9;}
	.st11{fill:#6FB3CE;}
	.st12{fill:#DEE0E2;}
	.st13{fill:#FFFFFF;}
	.st14{fill:#216593;}
	.st15{fill:#D88971;}
	.st16{fill:#351D24;}
	.st17{fill:#511F07;}
	.st18{fill:#AF604E;}
	.st19{fill:#915651;}
	.st20{fill:#9E625F;}
	.st21{fill:#E59576;}
	.st22{fill:#AF7366;}
	.st23{fill:#296184;}
	.st24{fill:#3C6596;}
	.st25{fill:#0C1A3A;}
	.st26{fill:#E85D5D;}
	.st27{fill:#DD5854;}
	.st28{fill:#7C253A;}
	.st29{fill:#B26A59;}
	.st30{fill:#D3876C;}
	.st31{fill:#EDF2F4;}
	.st32{fill:#DBB0A2;}
	.st33{fill:#EFE1DF;}
	.st34{fill:#BA7F86;}
	.st35{fill:#6B3D45;}
</style>
<g id="_Đĺćčě_čçîë_öčč">
	<g>
		<g>
			<ellipse class="st0" cx="1239.4" cy="1325.5" rx="1239.4" ry="228.7"/>
			<g>
				<g>
					<path class="st1" d="M143.8,932.7c-5.5,1.5-11.3-0.7-14.6-5.4c-53.6-78-71.7-344.8-37-384.3c58.2-66.1,229.9-60.3,306.8,18.8
						c94.6,97.3,100.5,276.9,100.5,276.9L143.8,932.7L143.8,932.7z"/>
					<path class="st2" d="M308.9,953.1l-0.6,403.9c0,4.4-3.6,7.9-8,7.9c-4.3,0-7.9-3.5-7.9-7.8l-5.3-403.9c-0.1-6,4.7-11,10.8-11
						s11,4.7,11,10.8C308.9,953,308.9,953.1,308.9,953.1L308.9,953.1z"/>
					<path class="st2" d="M651,924.4l15.8,380.5c0.2,4.4-3.2,8.1-7.6,8.3c-4.3,0.2-8-3.2-8.2-7.5l-21.8-380.2
						c-0.3-6,4.2-11.2,10.3-11.5c6-0.3,11.2,4.2,11.5,10.3C651,924.3,651,924.4,651,924.4L651,924.4z"/>
					<path class="st2" d="M417.7,945.5l-3,280.2c0,4.4-3.6,7.9-8,7.8c-4.3-0.1-7.8-3.6-7.9-7.8l-3-280.2c-0.1-6,4.8-11,10.8-11
						c6-0.1,11,4.8,11,10.8C417.7,945.3,417.7,945.4,417.7,945.5L417.7,945.5z"/>
					<path class="st2" d="M187.2,934.3L94.1,1262c-1.2,4.2-5.6,6.7-9.8,5.5c-4.2-1.2-6.6-5.5-5.5-9.7l87.3-329.3
						c1.5-5.8,7.5-9.3,13.3-7.8c5.8,1.5,9.3,7.5,7.8,13.3C187.2,934.1,187.2,934.2,187.2,934.3L187.2,934.3z"/>
					<path class="st3" d="M135.2,932.3c4.4,3.5,77.6,41.4,162.2,41.4s340.3-20.3,352.7-38.8c12.3-18.5,4.4-59.1-45-74.1
						c-17.6-5.4-41.5-10.6-64.8-15.1c-49.5-9.6-100-12.9-150.4-10c0,0-125.4,3.3-176.6,10.4C162.8,853.2,111.1,887.3,135.2,932.3
						L135.2,932.3L135.2,932.3z"/>
				</g>
				<g>
					<g>
						<g>
							<path class="st4" d="M387.4,1255.7c0,16.2-2.1,60.3-1,83.7c0.8,17.3,31.4,9.9,33.6,9.6c12.6-1.8,12-30.8,24.6-33.3
								c3.3-0.7,12.1,1.8,14.5-0.6c0.4-0.4,1.8-30.7,1.8-33.9v-27.3c0-0.5,0.2-2.2-0.6-2.4c-0.7-0.2-4.5,2.2-5.4,2.4
								c-9.9,2-21.8,3-32,3L387.4,1255.7L387.4,1255.7z"/>
							<g>
								<path class="st5" d="M385,1322.2c-7.3,13.5-6.4,42.1-5.8,52.3c0.5,10.3,129.9,25.6,155.5,27.2c11.2,0.7,49.5-5.1,52.1-14.9
									s-1.3-13.2-4.6-14.8c-77.7-38.4-113.6-71.3-115.9-72.5c-8.4-4.2-18.2-6.2-36.5,5.4c-22.9,14.4-27.9,22.2-35,20.3
									C389.3,1323.8,386.5,1319.6,385,1322.2L385,1322.2z"/>
								<path class="st6" d="M537.8,1376.8c-12,0-24.5-1.7-35.3-3.7c-26.8-5-50.9-13.4-58.8-17.6c-3-1.6-6.1-3.1-9.5-4.8
									c-14.7-7.2-29.8-14.7-31.1-23.9c-0.1-0.8,0.5-1.6,1.3-1.7c0.8-0.1,1.6,0.5,1.7,1.3c1.1,7.6,16.1,15,29.4,21.6
									c3.4,1.7,6.5,3.2,9.5,4.8c15.7,8.3,96.5,33.3,125.4,13.4c0.7-0.5,1.6-0.3,2.1,0.4c0.5,0.7,0.3,1.6-0.4,2.1
									C563.6,1374.8,551.1,1376.8,537.8,1376.8L537.8,1376.8z"/>
							</g>
						</g>
						<g>
							<path class="st4" d="M671.8,1185.7c0,22.4-0.8,45.9,1.8,67.8c0.7,6-1.3,16.5,1.2,21.8c1,2.1,13.4-1.2,15.7-1.7
								c12.6-2.5,26-1.5,38.6-5c3.3-0.9,12.1,2.5,14.5-0.8c0.4-0.6,1.8-42.4,1.8-46.8v-37.7c0-0.7,0.2-3-0.6-3.3
								c-0.7-0.4-4.5,3.1-5.4,3.3c-9.9,2.8-21.8,4.2-32,4.2L671.8,1185.7L671.8,1185.7z"/>
							<g>
								<path class="st5" d="M672.8,1233.3c-1.8-3.6-5.4,0.4-7.4,3.7c-8.9,14.4-12.7,31.8-13.9,53.7c-0.7,12-0.4,18.8,2.3,20.4
									c2.8,1.7,215.3-0.1,218.3-2.4c1.7-1.3,0.4-16.3-5.2-20.9c-5.3-4.3-24.5-13.9-61.6-31.8c-23.1-11.2-51.3-28.8-57.1-28.4
									c-5.8,0.4-10.6,1.6-17.6,11.9c-12.2,18.1-13.3,21.3-25,20.5C691.8,1259.3,675.6,1238.9,672.8,1233.3L672.8,1233.3z"/>
								<path class="st6" d="M846.4,1286.5c-24.1,0-43.5-3.2-71.3-11.2c-1.3-0.4-32.2-9.4-47.2-20.3c-0.7-0.5-0.8-1.4-0.3-2.1
									c0.5-0.7,1.4-0.8,2.1-0.3c14.5,10.6,44.9,19.5,46.2,19.8c31.8,9.2,52.4,11.9,82,10.9c0.8,0,1.5,0.6,1.6,1.5
									s-0.6,1.5-1.5,1.6C854,1286.4,850.2,1286.5,846.4,1286.5L846.4,1286.5z"/>
							</g>
						</g>
						<g>
							<path class="st7" d="M335.8,890.4c-5.8,0-11.8,0.2-18.3,0.5c-5.4,0.3-10.6,0.2-15.6-0.1c0.1,6.2,0.5,12.4,1.3,18.8
								c2.4,18.8,27.9,2.6,35.2,20.8c9.4,23.3,8.5,35.1-2.8,23.5c-11.3-11.6-7.2,82.8-7.3,117.2c-0.1,49.3,7.5,189.8,16.3,198.6
								c6.6,6.6,55.1,4.9,83.8,4.9c24.6,0,68.2-5.7,68.8-8.8c4-20.2,8.5-293.3,5.2-390.1c-1-1,10.6-25,9.6-26.1
								c-0.8,0-25-17.2-25.9-17.2c-40.4-2.1-65.4,70-101,62.9C367.8,891.9,353.1,890.4,335.8,890.4L335.8,890.4z"/>
							<path class="st7" d="M586.8,729.7c-54.2,2-39.8-0.6-39.8-0.3c-0.1,7.2-59.2,10.4-59.6,16.6c-1.7,26.1-293.2-35.6-298,0
								c-1,7.5-20.5,113.8,10.6,144.4C246.2,936,368.2,995,415.3,988.1c38.6-5.7,43.3-85.7,43-83.5c54.8,10,159.2-4.9,158.9-1.2
								c-2.9,32.3-2.3,277.6,7,294.2c9.3,16.6,67,8.4,86.6,8.2c19.6-0.2,59.5-2.1,66-8.6c3.7-3.7,15.5-374.5-9.3-431.4
								C753.4,733.6,706.8,725.4,586.8,729.7L586.8,729.7z"/>
							<path class="st8" d="M208.1,851.5c-0.8,0-1.5-0.7-1.5-1.5s0.7-1.5,1.5-1.5c15.2,0,34.1-26.8,46.5-44.6
								c4.7-6.7,8.4-12,11-14.6c0.6-0.6,1.5-0.6,2.1,0c0.6,0.6,0.6,1.5,0,2.2c-2.4,2.4-6.3,7.9-10.7,14.2
								C244.3,823.9,224.9,851.5,208.1,851.5L208.1,851.5z"/>
							<path class="st8" d="M355.6,1269.2c-0.7,0-1.3-0.5-1.5-1.2c-2.2-9.1-8-82.1-11.8-154.4c-2.8-52.6-6.4-142.7-0.3-165
								c-9-2.5-55.2-17-118-70.1c-28.5-24.1-23.1-64.4-18.8-96.8c0.6-4.4,1.2-8.6,1.6-12.7c0.1-0.8,0.9-1.4,1.7-1.3
								c0.8,0.1,1.4,0.8,1.3,1.7c-0.5,4.1-1,8.3-1.6,12.7c-4.5,33.3-9.5,71.1,17.7,94.1c69.2,58.5,117.8,69.8,118.3,69.9
								c0.4,0.1,0.8,0.4,1,0.7s0.2,0.8,0.1,1.2c-4.9,13.9-4.9,72.7,0,165.5c3.8,72.2,9.6,144.9,11.8,153.9c0.2,0.8-0.3,1.6-1.1,1.8
								C355.8,1269.2,355.7,1269.2,355.6,1269.2L355.6,1269.2z"/>
							<path class="st8" d="M626.5,904.5c-0.6,0-1.2-0.4-1.4-1c-0.3-0.8,0.1-1.7,0.9-2c14.3-5.3,25.7-11.7,25.5-14.3
								c0-0.4-1-1.3-4.2-2c-6.2,0.7-21,9.8-26.3,14.5c-2,3.9-2.4,3.9-3.3,3.9l0,0c-0.6,0-1.2-0.4-1.4-0.9c-0.2-0.3-0.3-0.7-0.2-1.2
								c-4.3-6.2,2.5-18.7,5.8-24c7.5-12.2,22.3-28.1,31.3-25c1.2,0.4,2,1.2,2.3,2.4c1.3,5.2-9.7,17.2-24.2,32.2
								c-1.5,1.6-3,3.1-4.4,4.6c7.1-4.6,16-9.1,20.3-9.5c0.1,0,0.3,0,0.4,0c1.6,0.3,6.6,1.3,6.8,4.7c0.5,6-17,13.5-27.5,17.4
								C626.8,904.5,626.7,904.5,626.5,904.5L626.5,904.5z M650.8,855.3c-6.3,0-18,10.5-26.3,24c-5.1,8.3-7.5,15.5-6.4,19.3
								c0.1-0.1,0.3-0.3,0.4-0.4c0.3-0.7,0.7-1.4,1.2-2.4l0.1-0.2c0.7-1.4,3.7-4.6,9.4-10.5c7.9-8.2,24.4-25.4,23.4-29.4
								c0-0.1,0-0.1-0.3-0.2C651.8,855.4,651.3,855.3,650.8,855.3L650.8,855.3z"/>
							<path class="st8" d="M501.7,911.5c-0.7,0-1.4-0.5-1.5-1.3c-4.6-29.5-16.5-51.2-36.3-66.2c-8.6-6.5-22.3-12.4-38.5-16.4
								c-1-0.3-2.2-0.5-2-1.9c0.1-0.8,0.8-1.3,1.5-1.3c0.2,0,0.4,0,0.6,0.1c0.1,0,0.4,0.1,0.7,0.2c16.9,4.2,30.6,10,39.6,16.9
								c20.5,15.5,32.7,37.8,37.5,68.1c0.1,0.8-0.4,1.6-1.3,1.7C501.8,911.4,501.8,911.4,501.7,911.5L501.7,911.5z"/>
							<g>
								<path class="st8" d="M266.4,886.5c-0.8,0-1.5-0.7-1.5-1.5c0-21.5,1.2-67.5,3.4-75.2c0.2-0.8,1.1-1.3,1.9-1
									c0.8,0.2,1.3,1.1,1,1.9c-2,7.1-3.3,52.2-3.3,74.3C267.9,885.8,267.2,886.5,266.4,886.5L266.4,886.5z"/>
								<path class="st8" d="M280.3,874.8c-0.7,0-1.3-0.5-1.5-1.2c-4.1-21.1-11.9-66.4-11.2-74.4c0.1-0.8,0.8-1.5,1.6-1.4
									c0.8,0.1,1.5,0.8,1.4,1.6c-0.6,7.4,6.9,51.8,11.1,73.6c0.2,0.8-0.4,1.6-1.2,1.8C280.5,874.8,280.4,874.8,280.3,874.8
									L280.3,874.8z"/>
							</g>
						</g>
					</g>
					<g>
						<path class="st9" d="M360.9,246.5c0,0,23-15.2,31.4,1.1c8.4,16.3-0.4,49.5-6.5,46.3c-30-15.7-49.3-26.3-49.3-26.3
							s2.7-8.3,8.8-13.6C351.4,248.8,360.9,246.5,360.9,246.5L360.9,246.5z"/>
						<g>
							<path class="st10" d="M520.8,656.1c2.2,2.2,86.5,59.3,222.6-2.5c15.6-10.3-45.6-108.3-69-120.5
								c-23.3-12.2-85.7-40.8-117.8-21S505.1,640.4,520.8,656.1L520.8,656.1z"/>
							<path class="st10" d="M387.9,268.2c0,0-68.3,8.7-126.8,43.3S127.5,399,136.2,586.3s47.6,199.2,59.6,200.3
								c11.9,1.1,37.5-2,85.7-12.5c1.7-0.9,11,14.9,104.9,17.3c93.9,2.4,187.8-20.1,209.5-44.1c21.7-24.1,31.3-61,24.9-109.2
								c-6.4-48.2-38.5-86.7-38.5-86.7l69.8-9.6c0,0-20.2-96.7-51.5-156.1c-31.3-59.4-64.3-77.5-64.3-77.5L387.9,268.2L387.9,268.2z
								"/>
							<path class="st11" d="M402.2,399.7c0,0,73.8,63.2,83.9,60.5c10.1-2.6,35.1-92.7,35.1-92.7L508,353.3c0,0-25.8,68-32.6,67.7
								c-6.9-0.3-66.2-38.9-66.2-38.9L402.2,399.7L402.2,399.7z"/>
							<path class="st12" d="M395,376.5c0,0,70.5,50.1,80.6,47.5c10.1-2.6,36.5-83.5,36.5-83.5l-8.4-11.9c0,0-32.7,71.2-37.8,66.6
								c-20.1-18.5-61-37.9-61-37.9L395,376.5L395,376.5z"/>
							<path class="st13" d="M468.5,396.2c5.3-0.9,40.1-33.1,42.6-32.7c3.4,0.5,22,38.3,23.9,37.4c3-1.3-8.8-82.1-26.7-98
								c-2.4-2.1-13.1-4.5-15.4-1.6c-7,8.5-3.3,36.1-11.2,43.4c-2.6,2.4-10.6-2.1-12.9,0.7L468.5,396.2L468.5,396.2z"/>
							<path class="st14" d="M593.9,541.5c-0.8,0-1.5-0.7-1.5-1.5c0-56.3-7.2-99.3-21.5-127.9c-0.4-0.8-0.1-1.7,0.7-2s1.7-0.1,2,0.7
								c14.5,29,21.9,72.5,21.9,129.3C595.4,540.9,594.7,541.5,593.9,541.5L593.9,541.5z"/>
							<path class="st14" d="M621,681.6c-0.1,0-0.2,0-0.3,0c-0.8-0.2-1.3-1-1.2-1.8c0-0.3,5.2-27-5.4-71.2c-1.9-8-4.3-15.9-7.1-23.4
								c-8-21.7-28-36.4-51-37.6c-14.5-0.8-65.9-1.6-117.2,19.7c-0.8,0.3-1.7,0-2-0.8s0-1.7,0.8-2c35-14.5,79.4-22,118.5-20
								c24.2,1.3,45.3,16.8,53.7,39.6c2.8,7.6,5.2,15.5,7.2,23.7c10.8,44.9,5.7,71.4,5.4,72.5C622.4,681.1,621.7,681.6,621,681.6
								L621,681.6z"/>
							<path class="st14" d="M256.4,655.1c-0.2,0-0.3,0-0.5-0.1c-0.8-0.3-1.2-1.1-1-1.9c6.2-18.8,15.9-140.5,15.9-187.4
								c0-0.8,0.7-1.5,1.5-1.5s1.5,0.7,1.5,1.5c0,47-9.8,169.4-16.1,188.3C257.6,654.7,257,655.1,256.4,655.1L256.4,655.1z"/>
							<path class="st14" d="M416.9,760.3c-0.4,0-0.8-0.1-1.1-0.2c-3.8-1.1-7.5-7.8-2.5-50l0.2-1.7c1.7-15,4.8-26.3,8.8-32.4
								c-8-0.2-27.9-1.4-32.3-2.4c-0.9-0.2-2.3-0.7-4.5-1.4c-49.5-16.9-104.4-20-163.2-9c-0.8,0.2-1.6-0.4-1.8-1.2
								c-0.1-0.8,0.4-1.6,1.2-1.8c38-7.1,74.9-8.4,109.6-3.8c27.9,3.7,47,10.2,55.2,13c2,0.7,3.5,1.2,4.2,1.3
								c5.3,1.2,32.6,2.5,34.3,2.3c1.1-0.2,1.6,0.5,1.8,0.8c0.4,0.7,0.2,1.3-0.5,2c-4.4,4.6-8,16.6-9.9,32.9l-0.2,1.7
								c-4.9,41.9-1,46.4,0.4,46.8c0.7,0.2,4.6,0,15.7-23.1c0.4-0.8,1.3-1.1,2-0.7s1.1,1.3,0.7,2C425,756.4,420,760.3,416.9,760.3
								L416.9,760.3z"/>
							<path class="st14" d="M285.5,774.5c-0.7,0-1.4-0.5-1.5-1.2c-0.2-0.8,0.4-1.6,1.2-1.8c2.5-0.5,5.8-1.1,9.7-1.8
								c23.1-4.4,77.1-14.7,80.4-16.5c0.7-0.4,1.7-0.1,2,0.6c0.4,0.7,0.1,1.7-0.6,2c-3.1,1.7-34.7,7.9-81.3,16.8
								c-3.9,0.7-7.2,1.4-9.7,1.8C285.7,774.5,285.6,774.5,285.5,774.5L285.5,774.5z"/>
							<path class="st15" d="M349.2,291.1c5.4-21,11.5-77.6,13.1-98.3s145.9,79.3,145.9,79.3s3.2,16.6-13,55.5
								c-12,28.8-22.1,54.3-26.2,64.5c-1.4,3.6-1.5,3.5-1.5,3.5S343.8,312.2,349.2,291.1L349.2,291.1z"/>
							<path class="st9" d="M435.1,359.4c0,0,38.8,40,32.6,36.9c-30-15.7-49.6-25.8-49.6-25.8L435.1,359.4L435.1,359.4z"/>
							<path class="st13" d="M320,283.4c-1.3-5.3,21.1-26.5,25.1-29.6c1.3-1.1,1.4,0,1.4,0s14.8,26.1,37.9,57.2
								c25.1,33.8,51.1,48.6,51.1,48.6s-29.2,73.2-34,67.9s-28.7-24.3-53.4-73.6C334.4,326.6,321.1,288,320,283.4L320,283.4z"/>
						</g>
						<g>
							<path class="st12" d="M494.8,133.7C476.5,119,519.6,89.9,508,72.5s-31.4-76-86.8-65.3C365.8,17.9,327,51,322,94
								c-5,43,0,86,15.7,104.1c15.7,18.2,27.4,6.1,28.7,25.9c4.3,67.2,14.4,70.5,36.2,92.6s72.9,53.5,114.3,40.3
								c41.3-13.2,75-49.7,54.8-115.7C556.7,191.8,536.9,167.5,494.8,133.7L494.8,133.7z"/>
							<path class="st4" d="M534,218.6c0,0,13.8-96.8-4.1-124.5c-17.9-27.7-34.3-67.7-87.6-64.1c-40.5,2.7-65.1,20-73.8,58.9
								c-8.3,37.2-12.3,66.1-2,70.7c10.2,4.6,17.9,9.7,19,19c1,9.2-7.2,46.1,17.9,60.5s21,16.2,61-12.5
								C493.5,205.7,534,218.6,534,218.6L534,218.6z"/>
							<path class="st12" d="M466.9,121.1c4.2-9.4-0.8-18.5-12.5-19.8c-11.6-1.2-31.8,6.7-45.1,28.7c-6.6,10.9-2.3,17.3,8.7,12.7
								c11-4.6,15.6-10,24.3-12.3C451.1,128.2,465.3,124.9,466.9,121.1L466.9,121.1z"/>
							<path class="st12" d="M497,106.5c-6.6,4.9-5,16,1.4,16.7c15.1,1.8,32.2,4.6,37.1,3.7c7.7-1.4,3-15.2-10.2-20.1
								C512,101.9,503.7,101.6,497,106.5L497,106.5z"/>
							<path class="st4" d="M476.6,220.3c0,0,20.5,5.3,31.1-1.5c10.6-6.8,13.3-15.2,12.2-21.3c-1.1-6.1-30.8-23.2-30.8-23.2
								L476.6,220.3L476.6,220.3z"/>
							<path class="st4" d="M360.4,194.3c-7.5-18.4-40.6-39.6-45.7-14.8c-5.1,24.5,19.5,49,27,53c7.4,3.9,23.4,1.5,25-2.1
								C368.2,223.3,367.1,210.7,360.4,194.3L360.4,194.3z"/>
							<path class="st16" d="M447.9,158.6c-0.6-5.4,1.6-10,5-10.4c3.4-0.4,6.5,3.6,7.2,9c0.6,5.3-1.6,10-5,10.4
								C451.7,168,448.5,163.9,447.9,158.6z"/>
							<path class="st16" d="M510.7,146.6c-0.6-5.3,1.6-10,5-10.4c3.3-0.4,6.5,3.6,7.2,9c0.6,5.3-1.6,10-5,10.4
								C514.5,156,511.3,151.9,510.7,146.6L510.7,146.6z"/>
							<g>
								<path class="st17" d="M515.9,189.8c-5.5,0-9.7-1.8-12.8-3.7c-9.6-6.2-15.2-19.4-14.5-34.6c0.3-19.1,8.7-36.7,20.4-42.9
									c11.8-6.2,25.2-0.6,31.4,8.3c7.3,10.6,9.4,29.7,5.2,46.6c-2.8,11-7.8,18.9-14.2,22.1C525.4,188.7,520.3,189.8,515.9,189.8
									L515.9,189.8z M519.6,109c-3.1,0-6.2,0.7-9.2,2.3c-10.8,5.7-18.5,22.2-18.8,40.3c0,0,0,0,0,0c-0.6,14.1,4.4,26.3,13.1,31.9
									c7,4.5,15.7,4.3,25.2-0.6c5.6-2.9,10.1-10,12.7-20.2c4-15.9,2-34.4-4.7-44.1C534.1,113.1,527,109,519.6,109L519.6,109z
									 M490.1,151.5L490.1,151.5L490.1,151.5z"/>
								<path class="st17" d="M445.6,205.7c-4.2,0-8.3-0.7-12.2-2.1c-11.9-4.5-19.8-15.4-22.1-30.6c-1.5-10.1-2.4-25.5,8.1-42l0,0
									c7.3-11.5,23.9-20,43.1-11.5c13.6,6,20.5,20.8,20.5,43.9c0,18.9-7,28.7-12.7,33.6C463.4,202.6,454.4,205.7,445.6,205.7
									L445.6,205.7z M422,132.5c-10,15.7-9.2,30.3-7.7,39.9c2.2,14.2,9.3,24.2,20.2,28.3c11,4.1,24.6,1.6,33.8-6.2
									c5.3-4.5,11.6-13.6,11.7-31.3c0.1-21.8-6.2-35.6-18.6-41.1C443.7,114.4,428.6,122.1,422,132.5L422,132.5L422,132.5z"/>
								<path class="st17" d="M481.1,151.7C481.1,151.7,481.1,151.7,481.1,151.7c-0.9,0-1.5-0.7-1.5-1.6c0.1-3.1,2.9-5.2,5.5-5.4
									c3-0.3,5.3,1.5,6.1,4.5c0.2,0.8-0.3,1.6-1.1,1.8c-0.8,0.2-1.6-0.3-1.8-1.1c-0.5-2.2-2-2.3-2.8-2.2c-1.3,0.1-2.8,1.2-2.8,2.5
									C482.6,151.1,482,151.8,481.1,151.7L481.1,151.7z"/>
								<path class="st17" d="M354.9,178c-0.5,0-1-0.3-1.3-0.8c-0.4-0.7-0.1-1.6,0.6-2.1c12.9-7.3,33.1-15.9,45.2-21.1
									c3.2-1.4,6.2-2.7,8.3-3.6c1.1-1.4,2.6-2,3.9-1.6c0.6,0.2,1.1,0.7,1.2,1.4c0.1,0.9,0.1,1.2-3.1,2.7c-0.4,0.8-0.5,1.5-0.4,1.9
									c0.2,0.4,1,0.4,1.3,0.4c0.8,0,1.5,0.7,1.5,1.5s-0.7,1.5-1.5,1.5c-2.6,0-3.7-1.4-4.1-2.2c-0.2-0.5-0.4-1.1-0.4-1.6
									c-1.5,0.7-3.4,1.5-5.7,2.4c-12,5.1-32.1,13.7-44.9,20.9C355.4,177.9,355.2,178,354.9,178L354.9,178z"/>
								<path class="st17" d="M546.8,139.4c-0.6,0-1.2-0.4-1.4-0.9c-0.3-0.8,0-1.7,0.8-2c1.6-0.7,2.1-1.4,2-2c0-0.3-0.2-0.5-0.4-0.5
									c-0.2-0.1-0.6,0.2-0.8,0.7c-0.4,0.7-1.3,1-2.1,0.5c-0.7-0.4-1-1.4-0.5-2.1c1-1.7,2.5-2.5,4.1-2.2c1.5,0.3,2.6,1.6,2.8,3.2
									c0.1,0.8,0,3.4-3.9,5.1C547.2,139.4,547,139.4,546.8,139.4L546.8,139.4z"/>
							</g>
							<path class="st18" d="M490.6,222.8c-4.7,0-9.4-0.8-13.5-2.4c-0.8-0.3-1.2-1.2-0.9-2s1.2-1.2,2-0.9c8.6,3.4,19.8,2.9,28.5-1.4
								c4.8-2.3,11-6.8,13.4-15.1c1.7-5.8-0.2-7.3-2.6-8c-11.7-3.5-19.4-8.1-23.4-14.1c-7.5-11.4-8.3-29-8.3-29.7
								c0-0.8,0.6-1.5,1.5-1.6c0.9,0,1.5,0.6,1.6,1.4c0,0.2,0.8,17.5,7.8,28.2c3.5,5.3,10.8,9.7,21.7,12.9c5,1.5,6.5,5.4,4.7,11.7
								c-2.2,7.4-7.3,13.2-15,16.9C502.8,221.4,496.6,222.8,490.6,222.8L490.6,222.8z"/>
							<path class="st18" d="M486.1,254.3c-16.1,0-29.1-5.2-29.7-5.4c-0.8-0.3-1.1-1.2-0.8-2c0.3-0.8,1.2-1.1,2-0.8
								c0.1,0.1,15,5.9,31.9,5.1c17.9-0.9,28.1-11.1,28.2-11.2c0.6-0.6,1.5-0.6,2.1,0c0.6,0.6,0.6,1.5,0,2.1
								c-0.5,0.5-11.2,11.2-30.2,12.1C488.4,254.3,487.3,254.3,486.1,254.3L486.1,254.3z"/>
							<g>
								<path class="st15" d="M356.9,212c-0.7,0-1.4-0.5-1.5-1.2c-2-10.5-11.5-24.9-18.7-28.4c-3.9-1.9-8.1-2-10.9-0.2
									c-2.5,1.6-3.7,4.3-3.6,8c0,0.8-0.6,1.5-1.5,1.6c0,0,0,0,0,0c-0.8,0-1.5-0.7-1.5-1.5c-0.1-4.7,1.7-8.5,5-10.6
									c3.8-2.4,8.9-2.4,13.9,0c8.2,4,18.1,18.8,20.4,30.5c0.2,0.8-0.4,1.6-1.2,1.8C357.1,212,357,212,356.9,212L356.9,212z"/>
								<path class="st15" d="M338,180.6c0,0-10.1,5.8-5.6,20.2c1.1,3.7,4.7,9,7.5,11.5c4.9,4.3,11.5,3.7,17.1,0.6
									c0.9-0.5,1.3-1.6,0.9-2.6l-2.4-5.8C355.6,204.4,343.6,180.7,338,180.6L338,180.6z"/>
							</g>
							<path class="st16" d="M437.6,160.5c-0.3,0-0.5-0.1-0.8-0.2c-0.7-0.4-1-1.4-0.5-2.1c0.5-0.8,5.1-8.2,15.4-10.2
								c4.6-0.9,7.7,0.9,7.9,0.9c0.7,0.4,1,1.4,0.5,2.1s-1.4,1-2.1,0.5c-0.1-0.1-2.3-1.3-5.7-0.6c-9,1.8-12.9,8.1-13.3,8.8
								C438.6,160.3,438.1,160.5,437.6,160.5L437.6,160.5z"/>
							<path class="st16" d="M501.1,147.7c-0.3,0-0.5-0.1-0.8-0.2c-0.7-0.4-1-1.4-0.5-2.1c0.5-0.8,5.1-8.2,15.3-10.2
								c4.6-0.9,7.7,0.9,7.8,0.9c0.7,0.4,1,1.4,0.5,2.1s-1.4,1-2.1,0.5c-0.1-0.1-2.3-1.3-5.7-0.6c-9,1.8-12.9,8.1-13.3,8.8
								C502.1,147.4,501.6,147.7,501.1,147.7L501.1,147.7z"/>
						</g>
						<g>
							<path class="st17" d="M729.2,607.4c-10.5,0-52.1-30.2-60.6-37c-0.7-0.5-0.8-1.5-0.2-2.1s1.5-0.8,2.1-0.2
								c16.1,12.8,52.9,37.6,59,36.3c0.8-0.2,1.6,0.3,1.8,1.2c0.2,0.8-0.3,1.6-1.2,1.8C729.7,607.3,729.5,607.4,729.2,607.4
								L729.2,607.4z"/>
							<path class="st17" d="M719.4,627.6c-0.1,0-0.2,0-0.3,0c-10.8-2.1-28.8-12.5-41.9-20.9c-0.7-0.5-0.9-1.4-0.5-2.1
								c0.5-0.7,1.4-0.9,2.1-0.5c12.9,8.2,30.5,18.4,40.8,20.5c0.8,0.2,1.4,1,1.2,1.8C720.7,627.1,720.1,627.6,719.4,627.6
								L719.4,627.6z"/>
							<path class="st19" d="M565.1,538.8l43-49.4c0.8-0.9,2.1-1,3-0.2l80.3,69.8c0.9,0.8,1,2.1,0.2,3l-43,49.4
								c-0.8,0.9-2.1,1-3,0.2l-80.3-69.8C564.4,541,564.3,539.7,565.1,538.8L565.1,538.8z"/>
							<path class="st20" d="M632.4,475.6l64-13.9c1.1-0.2,2.3,0.5,2.5,1.6l22.6,104c0.2,1.1-0.5,2.3-1.6,2.5l-64,13.9
								c-1.1,0.2-2.3-0.5-2.5-1.6l-22.6-104C630.5,477,631.2,475.9,632.4,475.6L632.4,475.6z"/>
							<path class="st19" d="M721,467.3l63.9,11c1.3,0.2,2.2,1.5,2,2.8L769,585.4c-0.2,1.3-1.5,2.2-2.8,2l-63.9-11
								c-1.3-0.2-2.2-1.5-2-2.8l17.9-104.3C718.4,468,719.6,467.1,721,467.3z"/>
							<path class="st21" d="M743.3,654.9c18.7-4.1,36.8-33.5,34.9-49.5c-3.8-31.7-48.6-60.7-59.2-64.2c-15.1-5-21,0.8-19.8,5
								c2,6.6,6,7.9,16.5,15.8c15.5,11.7,33.2,26,28.8,26c-9.1-0.1-52.3-31.5-61.7-34.7c-5.9-2-12.4-1.8-15.5,5.6
								c-2.1,4.9,1.2,10.9,1.1,10c-0.2-0.9-6.8-1.4-8.8,5.9c-2.8,10.1,15,26.7,16.2,29c4,7.5-12.2-5.8-15.3,0.8
								c-3.5,7.4,0.6,13.3,12.4,19.6C684.5,630.4,725.9,658.7,743.3,654.9L743.3,654.9z"/>
						</g>
					</g>
				</g>
				<g>
					<path class="st22" d="M490.9,794.2h36.8l-45.4,602.5c-0.1,6.1-4.3,11-9.5,11l0,0c-5.2,0-9.5-4.9-9.5-11L490.9,794.2
						L490.9,794.2z"/>
					<path class="st22" d="M1697.4,792.5h36.8l27.6,604.2c-0.1,6.1-4.3,11-9.6,11l0,0c-5.2,0-9.5-4.9-9.6-11L1697.4,792.5
						L1697.4,792.5z"/>
				</g>
				<g>
					<path class="st4" d="M1960.2,1235.7c6.4,57.4,23.5,79.8,20.9,101.6c-0.7,6-4.4,8.2-7,13.5c-1,2.1-13.4-1.2-15.7-1.7
						c-12.6-2.5-26-1.5-38.6-5c-3.3-0.9-64.8-12.7-67.2-16.1c-0.4-0.6,48-19.7,50.3-30.7c1-4.7-4.9-63.3-4.2-63.7
						c0.8-0.4,18-14.1,19-13.8L1960.2,1235.7L1960.2,1235.7z"/>
					<path class="st7" d="M1980.7,1312.9c8.6,14.4,14.3,58.2,11.6,59.9c-2.7,1.7-203.8,0.2-206.7-2.1c-1.7-1.3-8.2-13,10.6-25.3
						c13.4-8.7,3.7-1.5,87.5-37.8c11.8-5.1,1.3-13.3,39.4,26.2C1946,1357.3,1978.8,1309.7,1980.7,1312.9L1980.7,1312.9z"/>
					<path class="st5" d="M2124.2,840.5c-21.9,2-271.5-19.9-297.3,0.6c-59.6,47.6,55.9,401.9,59.1,415.4c3.2,13.5,78.7,9.4,88.6-2.6
						c9.9-11.9,0.6-183.6-10.9-250.4c-1.2-6.6,7.8,5.7,107.2,9.6c99.4,4,57.4,3.7,80.2-12.2c22.9-15.9,63.6-109.1,63.6-109.1
						S2146.1,838.6,2124.2,840.5L2124.2,840.5z"/>
				</g>
				<g>
					<path class="st2" d="M2188.1,1071.5l41.3,362.5c0.5,4.3-2.6,8.3-7,8.8c-4.3,0.5-8.2-2.6-8.8-6.9l-47.2-361.8
						c-0.8-6,3.4-11.4,9.4-12.2s11.4,3.4,12.2,9.4C2188.1,1071.4,2188.1,1071.5,2188.1,1071.5L2188.1,1071.5z"/>
					<path class="st2" d="M1928.5,1047.8l-31.3,367.2c-0.4,4.4-4.2,7.6-8.6,7.2c-4.3-0.4-7.5-4.1-7.2-8.4l25.4-367.7
						c0.4-6,5.6-10.6,11.6-10.1s10.6,5.6,10.1,11.6C1928.5,1047.7,1928.5,1047.8,1928.5,1047.8L1928.5,1047.8z"/>
					<path class="st2" d="M2020.3,1071.3l-3,280.2c-0.1,4.4-3.6,7.9-8,7.8c-4.3-0.1-7.8-3.6-7.8-7.8l-3-280.2c-0.1-6,4.8-11,10.8-11
						c6-0.1,11,4.8,11,10.8C2020.3,1071.2,2020.3,1071.3,2020.3,1071.3L2020.3,1071.3z"/>
					<path class="st2" d="M2330.5,1031.8l102.4,319.1c1.3,4.2-1,8.6-5.1,10c-4.1,1.3-8.5-0.9-9.9-5l-108.1-317.2
						c-1.9-5.7,1.1-11.9,6.8-13.8c5.7-1.9,11.9,1.1,13.9,6.8C2330.4,1031.7,2330.5,1031.8,2330.5,1031.8L2330.5,1031.8z"/>
					<path class="st3" d="M2341.3,1041.4c-3.9,3.5-110.4,58.1-185,58.1s-248,11-258.9-7.5s-3.9-90.4,39.7-105.3
						c15.6-5.4,36.6-10.6,57.2-15.1c43.7-9.6,88.2-12.9,132.6-10c0,0,110.6,3.3,155.8,10.4C2327.3,979,2362.6,996.4,2341.3,1041.4
						L2341.3,1041.4L2341.3,1041.4z"/>
				</g>
				<g>
					<path class="st1" d="M1496,890.9c5.5,1.5,11.3-0.7,14.6-5.4c53.6-78,71.7-344.8,37-384.4c-58.2-66.1-229.9-60.3-306.8,18.8
						c-94.6,97.3-100.5,276.8-100.5,276.8L1496,890.9L1496,890.9z"/>
					<path class="st2" d="M1352.7,911.5l-5.3,403.9c-0.1,4.4-3.7,7.9-8,7.8c-4.3-0.1-7.8-3.6-7.8-7.9l-0.6-403.9
						c0-6,4.9-10.9,10.9-10.9c6,0,10.9,4.9,10.9,10.9C1352.7,911.3,1352.7,911.4,1352.7,911.5L1352.7,911.5z"/>
					<path class="st2" d="M1010.6,883.7l-21.8,380.2c-0.2,4.4-4,7.7-8.4,7.5c-4.3-0.2-7.7-3.9-7.5-8.2l15.8-380.5
						c0.2-6,5.3-10.7,11.4-10.5c6,0.2,10.7,5.3,10.5,11.4C1010.6,883.6,1010.6,883.7,1010.6,883.7L1010.6,883.7z"/>
					<path class="st2" d="M1243.9,903.8l-3,280.2c-0.1,4.4-3.6,7.9-8,7.8c-4.3-0.1-7.8-3.6-7.8-7.8l-3-280.2c-0.1-6,4.8-11,10.8-11
						c6-0.1,11,4.8,11,10.8C1243.9,903.6,1243.9,903.7,1243.9,903.8L1243.9,903.8z"/>
					<path class="st2" d="M1473.7,886.8l87.3,329.3c1.1,4.2-1.4,8.6-5.6,9.7c-4.2,1.1-8.5-1.3-9.7-5.5l-93.1-327.7
						c-1.7-5.8,1.7-11.8,7.5-13.5s11.8,1.7,13.5,7.5C1473.6,886.6,1473.7,886.7,1473.7,886.8L1473.7,886.8z"/>
					<path class="st3" d="M1504.6,890.5c-4.4,3.5-77.6,41.4-162.2,41.4s-340.3-20.3-352.7-38.8c-12.3-18.5-4.4-59.1,45-74.1
						c17.6-5.4,41.5-10.6,64.8-15.1c49.5-9.6,100-12.9,150.4-10c0,0,125.4,3.3,176.6,10.4C1476.9,811.4,1528.7,845.6,1504.6,890.5
						L1504.6,890.5L1504.6,890.5z"/>
				</g>
				<g>
					<g>
						<g>
							<g>
								<path class="st4" d="M1363.3,1224.8c-2.2,22.3,2.6,83.7-2.2,105.2c-1.3,5.9-62.5,3.1-64.6-0.4c-0.4-0.6-8.8-111.5-7.6-124
									c0.1-0.7,52.2,1.3,53,1L1363.3,1224.8L1363.3,1224.8z"/>
								<g>
									<path class="st10" d="M1292.6,1303.9c-15.2,13.4-43.7,57.4-36.8,81.7c6.9,24.3,39.3,58.6,78,44.9
										c38.7-13.7,66.7-71.1,49.9-93.6c0,0-23.7-42.6-50.6-45.8C1313.4,1288.7,1300.5,1296.9,1292.6,1303.9z"/>
									<path class="st13" d="M1315.2,1369.4c-32.4-1.1-48,5.7-58.7,19.3c8.6,24,38.3,58.4,75.3,45.3c17.5-6.2,32.6-21.5,42.6-38.3
										C1363.1,1384.8,1343.1,1370.4,1315.2,1369.4z"/>
									<path class="st23" d="M1346.2,1358.5c-0.3,0-0.5-0.1-0.8-0.2c-6.9-4.2-25.5-12.2-34.2-14.8c-0.4-0.1-1.1-0.3-1.8-0.5
										c-9.9-2.8-11.8-3.7-11.6-5.6c0.1-1.2,0.2-2.1,19.8-8.8c9.1-3.1,18.5-6.1,21.3-6.9c-8.1-4.3-32.3-13.2-35.7-14
										c-0.5,0.1-1-0.1-1.4-0.6c-0.5-0.6-0.5-1.4,0-2c0.8-0.9,1.1-1.2,18.2,5.2c5.1,1.9,17.4,6.7,21.7,9.4c1.9,1,2.6,1.4,2.6,2.4
										c0,0.1,0,0.1,0,0.2c-0.2,1.6-2,1.8-3.7,2c-0.2,0-0.4,0-0.5,0.1c-4.7,1.4-30.8,9.9-38,13.1c2.3,0.9,6.3,2,8,2.5
										c0.7,0.2,1.3,0.4,1.8,0.5c8.9,2.7,27.8,10.8,34.8,15.1c0.7,0.4,0.9,1.4,0.5,2.1C1347.3,1358.2,1346.8,1358.5,1346.2,1358.5
										L1346.2,1358.5z"/>
									<path class="st23" d="M1298,1355.4c-0.5,0-1-0.2-1.2-0.7c-0.5-0.7-0.3-1.6,0.4-2.1c3.7-2.5,18.3-6.4,34.3-10.5
										c3.7-0.9,7.4-1.9,9.5-2.5c-4.2-4.4-20.3-10.6-29.3-14c-10.4-4-11.4-4.4-11.2-6.1c0.3-3.7,9.4-6.3,29.7-10.9
										c4.4-1,8.1-1.8,9.3-2.3c0.8-0.3,1.7,0.1,2,0.9c0.3,0.8-0.1,1.7-0.9,2c-1.4,0.5-4.9,1.3-9.8,2.4c-7.1,1.6-23.1,5.2-26.7,7.7
										c1.7,0.8,5.2,2.1,8.7,3.4c16.3,6.2,29.9,11.8,32,17c0.2,0.4,0.1,0.9-0.1,1.3c-0.3,0.6-4.4,1.9-12.4,4
										c-11.1,2.9-29.8,7.7-33.3,10.1C1298.6,1355.3,1298.3,1355.4,1298,1355.4L1298,1355.4z"/>
								</g>
							</g>
							<g>
								<path class="st4" d="M1059.1,1170.3c-0.7,22.4,12.3,76.8,9,98.6c-0.9,6-62.2,7.4-64.5,4c-0.4-0.6-21.5-107.8-21.1-120.4
									c0-0.7,13.1,21.1,13.9,20.7c0.8-0.3,4.4,3.2,5.3,3.5c9.8,3.1,21.7,4.9,31.8,5.2L1059.1,1170.3L1059.1,1170.3z"/>
								<g>
									<path class="st13" d="M1081.3,1276.9c0.8,4.2,1.2,7.9,1,10.7c-0.2,4-2.3,25.6-2.3,25.6s-222.3,2.2-231.8-1.6
										c-10.4-4.2-2-48.9,48.8-58.3c46.1-8.6,81.7-9.2,90.8-18.6c9.1-9.4,20.3,11,27.8,18.2c7.4,7.2,27.3,14.8,32.5,12.5
										s19.3-25.2,19.3-25.2S1076.2,1248.2,1081.3,1276.9L1081.3,1276.9z"/>
									<path class="st10" d="M994.5,1231.4c-2.5-0.7-4.8-0.2-7.1,2.1c-9.1,9.4-44.5,10.9-90.7,19.5c-1.3,0.2,0.6,1.2,3.1,11.9
										c2.5,10.7,2.3,23.1,2.3,23.1l180.7-1c-0.6-4.1,2.2-6.7-3.3-25.9c-3.8-13.5-12.6-22.2-12.6-22.2s-14.2,23-19.4,25.2
										c-5.2,2.3-25-5.3-32.5-12.5C1009.5,1246.4,1001.8,1233.6,994.5,1231.4L994.5,1231.4z"/>
									<path class="st23" d="M926.5,1263.8c-0.6,0-1.1-0.3-1.4-0.8c-0.2-0.5-0.8-1.7,2.5-12.2c0.1-0.4,0.5-0.8,0.9-0.9
										c0.4-0.2,0.9-0.2,1.3,0.1l13.5,7.1l2.4-9.8c0.1-0.5,0.5-0.8,0.9-1c0.5-0.2,1-0.2,1.4,0.1l0.5,0.3
										c5.8,3.4,12.8,6.8,16.3,7.1c0.1-0.8,0.2-1.8,0.3-2.7c0.2-1.7,0.4-3.5,0.6-5c0.3-2.2,0.5-3.8,2.2-3.7
										c0.2,0,3.8,1.4,10.7,4.1c3.5,1.3,7,2.7,9.2,3.6c0.8,0.3,1.2,1.2,0.9,2c-0.3,0.8-1.2,1.2-2,0.9c-2.2-0.9-5.8-2.2-9.2-3.6
										c-3.2-1.3-6.8-2.6-8.7-3.4c-0.2,1.5-0.5,3.9-0.7,5.5c-0.6,5-0.6,5.2-1.9,5.4c-4.3,0.6-13.3-4.1-18-6.8l-2.4,9.8
										c-0.1,0.4-0.4,0.8-0.8,1c-0.4,0.2-0.9,0.2-1.3,0l-13.5-7.2c-1.1,3.7-2,7.5-2,8.4c0.2,0.7-0.1,1.5-0.8,1.8
										C927,1263.8,926.8,1263.8,926.5,1263.8L926.5,1263.8z M965.8,1253.6L965.8,1253.6L965.8,1253.6z"/>
									<path class="st23" d="M948.6,1249.5c-0.3,0-0.6-0.1-0.8-0.3l-4-2.8c-0.6-0.4-0.8-1.3-0.3-2c0.5-0.6,1.3-0.8,2-0.3l4,2.8
										c0.6,0.5,0.8,1.3,0.3,2C949.5,1249.3,949,1249.5,948.6,1249.5z"/>
									<path class="st23" d="M946.9,1250.1c-0.2,0-0.4,0-0.5-0.1c-0.8-0.3-1.2-1.2-0.9-2l1.8-4.6c0.3-0.8,1.2-1.2,2-0.9
										c0.8,0.3,1.2,1.2,0.9,2l-1.8,4.6C948.1,1249.7,947.5,1250.1,946.9,1250.1L946.9,1250.1z"/>
									<path class="st23" d="M969.5,1246c-0.2,0-0.5-0.1-0.7-0.2l-5.8-2.8c-0.8-0.4-1.1-1.3-0.7-2s1.3-1.1,2-0.7l5.8,2.8
										c0.8,0.4,1.1,1.3,0.7,2C970.6,1245.7,970.1,1246,969.5,1246L969.5,1246z"/>
									<path class="st23" d="M967.4,1246.5c-0.1,0-0.2,0-0.3,0c-0.8-0.2-1.3-1-1.1-1.8l1.2-5.1c0.2-0.8,1-1.3,1.8-1.1
										c0.8,0.2,1.3,1,1.1,1.8l-1.2,5.1C968.7,1246,968.1,1246.5,967.4,1246.5L967.4,1246.5z"/>
									<path class="st23" d="M929.1,1253c-0.1,0-0.2,0-0.4,0c-0.8-0.2-1.3-1-1.1-1.8l1.1-4.6c0.2-0.8,1-1.3,1.8-1.1
										c0.8,0.2,1.3,1,1.1,1.8l-1.1,4.6C930.4,1252.5,929.8,1253,929.1,1253L929.1,1253z"/>
									<path class="st23" d="M930.3,1253.1c-0.3,0-0.6-0.1-0.8-0.2l-5.4-3.5c-0.7-0.4-0.9-1.4-0.5-2.1c0.5-0.7,1.4-0.9,2.1-0.5
										l5.4,3.5c0.7,0.4,0.9,1.4,0.5,2.1C931.3,1252.8,930.8,1253.1,930.3,1253.1L930.3,1253.1z"/>
								</g>
							</g>
							<path class="st24" d="M1372.6,815.8c29.4,21.1,18.9,68,19.4,72c0.4,3.4,1.4,17.2,1.5,51.7c0.2,49.3-21,302.3-24,310.9
								c-3,8.7-92.2,6.3-94.5,2c-4.7-8.7-39.1-369.7-44.2-408.3c1-9.1-7.4-38.7-7.4-42.5c1-1,2-2.6,3-3.7c0.8,0,1.7,0,2.5-0.1
								c40.4-2.1,76.6-6.3,112.2-13.4C1358.7,780.9,1367.4,812.1,1372.6,815.8L1372.6,815.8z"/>
							<path class="st24" d="M1062.9,1186c-3.1,7.2-90.2,5.9-96.6-0.6c-3.7-3.7-134.4-360.1-99.6-410.8c19.9-29,33.8-43.9,95.2-60.2
								c61.4-16.3,182.4-23.1,242.9-27.8c60.5-4.8,66.8-10.1,67.2-3.8c1.7,26.1,169.8-4.5,174.6,31.1c1,7.5,16.1,97-15.9,126.7
								c-81.8,75.9-120.3,103.4-183.4,48.4c-47.9-41.8-230.7-16.7-230.4-13c2.9,32.3,41.1,203,47.7,301.8L1062.9,1186L1062.9,1186z"
								/>
							<path class="st25" d="M1236.3,876.8c-0.8,0-1.4-0.6-1.5-1.4c-1.2-13.6,3.7-52.2,39.8-66.8c0.8-0.3,1.7,0.1,2,0.8
								c0.3,0.8-0.1,1.7-0.8,2c-34.5,13.9-39.1,50.7-37.9,63.7c0.1,0.8-0.6,1.6-1.4,1.6C1236.4,876.8,1236.3,876.8,1236.3,876.8
								L1236.3,876.8z"/>
							<path class="st25" d="M1393.5,873.8c-0.8,0-1.5-0.7-1.5-1.5c0-17.8-2.3-39.8-20.4-52c-0.7-0.5-0.9-1.4-0.4-2.1
								c0.5-0.7,1.4-0.9,2.1-0.4c21.7,14.8,21.7,43.7,21.7,54.5C1395,873.1,1394.4,873.8,1393.5,873.8L1393.5,873.8z"/>
							<path class="st25" d="M972.9,882.7c-2.9,0-12.6-0.3-13.9-4.4c-0.9-3,2.9-5.5,4.2-6.4c8.6-5.7,19.6-7.7,32.8-5.8
								c0.2,0,0.5,0.1,1,0.3c-0.2-0.2-0.4-0.3-0.6-0.5c-1.7-1.4-3.1-2.4-3.4-2.7c-10-8.3-18.2-18.8-24.3-31
								c-0.2-0.3-0.4-0.8-0.8-1.4c-2.5-4.2-5-9-3.8-12.2c0.5-1.2,1.4-2.1,2.8-2.5c14.5-4.8,36.7,36.5,39.1,42.2l0.2,0.6
								c6,14,6,16.1,5.5,17.2c-0.2,0.5-0.7,0.8-1.2,0.9C998.3,879.9,985.3,882.7,972.9,882.7L972.9,882.7z M986.7,868.4
								c-8.5,0-15.8,2-21.8,6c-2.7,1.8-3,2.8-3,3c0.3,1,5.2,2.3,11,2.3c11.2,0,23-2.3,34.2-4.9c-0.1,0-0.2-0.1-0.3-0.1
								c-8.8-4.6-10.9-5.4-11.4-5.5C992.5,868.6,989.5,868.4,986.7,868.4L986.7,868.4z M969.4,818.7c-0.5,0-1.1,0.1-1.6,0.2
								c-0.6,0.2-0.8,0.5-0.9,0.7c-0.8,2.2,2.2,7.4,3.5,9.6c0.4,0.7,0.7,1.2,0.9,1.5c5.9,11.8,13.8,21.9,23.5,30
								c0.3,0.3,1.6,1.3,3.3,2.7c5.2,4.1,8.1,6.4,9.7,7.7c-0.8-2.2-2.1-5.7-4.5-11.1l-0.2-0.6C998.6,848.6,980,818.7,969.4,818.7
								L969.4,818.7z"/>
						</g>
						<g>
							<g>
								<path class="st26" d="M1508.7,597.6c4.3,28.2,15.2,57.5,1.3,81.9c-18.2,32-60.7,10-60.7,10s8.4,21.9-7.3,27.6
									c-56.8,20.5-262.9,15.9-298.6-15.8c-23.4-20.8-41.2-257.1-20.6-316.6c4.4-12.8-20.3,18-53.4,42.5
									c-27,20-50.2,28.4-50.2,28.4s-26.4,49.5-64.7,25.8c-24.2-15-36.8-71.4-22.3-112.7c14.4-41.3,75.9-52.9,75.9-52.9
									s19.2-16.4,129.7-78.8c47.2-26.7,98-36,143.5-36.4c6.1-0.1,12.1,0,17.9,0.3c25.5,1,48.9,4.7,68.2,9.3
									c20.9,5,37.2,11.1,46.7,16.2c2.5,1.3,4.9,2.7,7.3,4c2.2,1.2,4.3,2.5,6.4,3.7c8,4.7,15.5,9.5,22.5,14.4
									c38.2,26.6,62.1,55.4,78.2,82.9C1570.1,402.1,1508.7,597.6,1508.7,597.6L1508.7,597.6z"/>
								<path class="st27" d="M1450.4,248.5c-9.5,15.8-54.4,82.3-127.6,70.4c-72.2-11.8-51.1-93.6-41.5-118.4
									c32.5-0.3,62.3,3.9,86.2,9.6c2.8,0.9,5.5,1.7,8.3,2.6c17.2,5.7,33,12,45.7,17.6C1432,236.3,1441.6,242.4,1450.4,248.5
									L1450.4,248.5z"/>
								<path class="st28" d="M1496.3,693.1c-0.4,0-0.8-0.1-1.1-0.4c-0.6-0.6-0.6-1.5,0-2.1c8.6-8.7,10.9-26.1,6.2-47.7
									c-4.3-20-13.8-39.9-24.9-51.9c-0.6-0.6-0.5-1.6,0.1-2.1c0.6-0.6,1.6-0.5,2.1,0.1c22,23.9,39.8,82.2,18.6,103.8
									C1497.1,693,1496.7,693.2,1496.3,693.1L1496.3,693.1z"/>
								<path class="st28" d="M1521.5,676.9c-0.2,0-0.3,0-0.5-0.1c-0.8-0.3-1.2-1.1-1-1.9c11.8-36.2-10.2-86.1-37.2-108.3l-0.8-0.7
									c-7.4-6.1-24.8-20.4-41.4-21.2c-0.8,0-1.5-0.8-1.4-1.6s0.8-1.5,1.6-1.4c17.6,0.9,35.5,15.6,43.1,21.9l0.8,0.7
									c27.8,22.8,50.4,74.3,38.2,111.6C1522.7,676.5,1522.1,676.9,1521.5,676.9L1521.5,676.9z"/>
								<path class="st28" d="M1398.2,556.6c0,0-0.1,0-0.1,0c-0.8-0.1-1.4-0.8-1.4-1.7c0.2-1.9,0.4-4.8,0.7-8.2
									c1.2-14.7,3.3-39.3,5.2-53.7c0.6-4.5,1.3-10.9,2.1-18.4c3.6-34.6,6-51.6,9.6-54.2c0.7-0.5,1.6-0.4,2.1,0.3
									c0.5,0.7,0.4,1.6-0.3,2.1c-3.1,2.4-6.5,34.7-8.3,52.1c-0.8,7.5-1.5,14-2.1,18.5c-1.9,14.4-4,38.9-5.2,53.6
									c-0.3,3.5-0.5,6.3-0.7,8.2C1399.7,556,1399,556.6,1398.2,556.6L1398.2,556.6z"/>
								<path class="st28" d="M1378.7,600.9c-0.4,0-0.8-0.2-1.1-0.5c-4-4.4-4.8-10.6-2.2-17.9c5-14.4,20.9-29.3,30-30.9
									c0.8-0.2,1.6,0.4,1.8,1.2c0.2,0.8-0.4,1.6-1.2,1.8c-8.1,1.4-23.2,16-27.7,28.9c-2.2,6.3-1.6,11.3,1.6,14.9
									c0.6,0.6,0.5,1.6-0.1,2.1C1379.4,600.8,1379.1,600.9,1378.7,600.9L1378.7,600.9z"/>
								<path class="st28" d="M1020.4,323.5c-0.3,0-0.5-0.1-0.8-0.2c-0.2-0.1-0.6-0.4-1-0.7c-5.8-3.9-14.1-8.4-18.8-2
									c-0.5,0.7-1.5,0.8-2.1,0.3c-0.7-0.5-0.8-1.5-0.3-2.1c7.1-9.4,19-1.3,23,1.3c0.4,0.2,0.7,0.5,0.9,0.6
									c0.7,0.4,0.9,1.4,0.5,2.1C1021.4,323.3,1020.9,323.5,1020.4,323.5L1020.4,323.5z"/>
								<path class="st28" d="M1002.9,478.8c-0.3,0-0.7-0.1-1-0.4c-0.6-0.5-0.7-1.5-0.2-2.1c8.2-9.8,10.5-12.9,14.8-21.9
									c8.7-18.1,10.2-42.3,11.4-63.7c0.4-5.9,0.7-11.5,1.2-16.8c0.1-0.8,0.8-1.5,1.6-1.4s1.4,0.8,1.4,1.6
									c-0.5,5.3-0.8,10.8-1.2,16.7c-1.3,21.7-2.8,46.2-11.7,64.8c-4.5,9.3-6.9,12.6-15.2,22.6
									C1003.8,478.6,1003.3,478.8,1002.9,478.8L1002.9,478.8z"/>
								<path class="st28" d="M1121.8,381.6c-0.6,0-1.1-0.3-1.4-0.8c-0.4-0.8-0.1-1.7,0.7-2c1.7-0.8,13.8-15.1,26.1-44.8
									c1.5-3.7,3-7.3,4.4-10.7c16.9-41.2,27.2-66,60.2-96.7c0.6-0.6,1.6-0.5,2.1,0.1c0.6,0.6,0.5,1.6-0.1,2.1
									c-32.6,30.2-42.7,54.8-59.5,95.6c-1.4,3.5-2.9,7-4.4,10.8c-11.2,27-23.9,44.5-27.6,46.3
									C1122.3,381.6,1122.1,381.7,1121.8,381.6L1121.8,381.6z"/>
							</g>
							<g>
								<path class="st4" d="M985,418.4c10-30.7-4.8-30.5,14.5-110.8c19.4-80.4,59.9-164.7,70.3-178.5
									c10.4-13.8,72.9-33.4,83.4-49.8S1172,0.9,1160,0.1c-12-0.8-40.1,7.3-77.7,15.6s-38,8.3-40.1,24.8
									c-2.1,16.5-3.4,54.7-8.7,64.2c-5.4,9.5-88.5,74-123.2,159.6S865.4,426.5,880.1,435C914.4,454.9,979.1,436.5,985,418.4
									L985,418.4z"/>
								<path class="st19" d="M1246.4,4c-0.5-1-1.4-3.3-4.8-1.1c-10.9,6.8-41.5,26.3-102,48.7c-1.9,0.7,2.9,17.2,4,29.8
									c1.8,21.5,3.9,35,4.8,35.5c0.9,0.4,23.8-2.5,54.4-13.1c22.2-7.7,50.9-25.1,53.8-27.7C1259.5,73.3,1254.5,20.8,1246.4,4
									L1246.4,4z"/>
								<path class="st4" d="M1161.9,3.7c6.7,4.5,5.5,48.2-6.9,61.2c-10.3,10.8-21.6,10.4-19.7-1.6c1.9-12,7.2-41,7.2-41
									S1155.3-0.9,1161.9,3.7z"/>
								<path class="st29" d="M1117.1,88.5c-0.4,0-0.8,0-1.2-0.1c-1.6-0.3-2.9-1.2-3.8-2.6c-3.5-5.3-1.9-9.9-1.9-10.1
									c0.3-0.8,1.2-1.2,1.9-0.9c0.8,0.3,1.2,1.2,0.9,1.9c0,0.1-1.1,3.4,1.6,7.3c0.5,0.7,1.1,1.1,1.8,1.3c2.2,0.4,5.1-1.3,6.1-2
									c0,0,0.1-0.1,0.1-0.1c13.2-8.1,25.7-44.9,15-71.8c-0.3-0.8,0.1-1.7,0.8-2s1.7,0.1,2,0.9c10.7,26.7-0.3,65.7-16.2,75.5
									C1123.7,86.3,1120.4,88.5,1117.1,88.5L1117.1,88.5z"/>
								<path class="st29" d="M1096.4,90.4c-1.2,0-2.5-0.2-3.8-0.9c-3-1.5-5.1-4.9-6.1-10c-0.2-0.8,0.4-1.6,1.2-1.8
									c0.8-0.2,1.6,0.4,1.8,1.2c0.8,4.1,2.4,6.8,4.5,7.9c2.3,1.2,4.6,0.2,4.7,0.2c7.1-2.8,14-12.8,18.2-26.3
									c5.3-17.1,4.9-34-1.2-43c-0.5-0.7-0.3-1.6,0.4-2.1c0.7-0.5,1.6-0.3,2.1,0.4c7.9,11.9,5.8,32,1.5,45.6
									c-4.6,14.6-12,25.1-20,28.2C1099.8,89.8,1098.4,90.4,1096.4,90.4L1096.4,90.4z"/>
								<path class="st29" d="M1067.5,96.4c-1.6,0-2.9-0.5-3.9-1.4c-4.2-4-1.6-15.3,0.8-25.2c1.1-4.5,2.4-10.1,2-11.8
									c-1.3,1.5-3.4,3.8-7.6,4.9c-5.7,1.4-8,0.3-8.9-0.8c-0.5-0.7-0.6-1.5-0.3-2.2c0.3-0.6,1-0.9,1.6-0.9c0.7,0.1,1.3,0.7,1.4,1.3
									c0.6,0.2,2.1,0.4,5.4-0.4c3.3-0.8,5-2.7,6.1-4c0.8-1,1.6-1.9,2.9-1.6c1.3,0.2,1.8,1.6,2.1,2.4c0.8,2.2-0.1,6.5-1.8,13.8
									c-1.8,7.8-4.6,19.5-1.7,22.3c0.8,0.7,2.1,0.8,4.1,0.2c13.2-3.9,22.7-23.8,24.9-36c0.6-3.1,0.9-18.4-4.1-32.6
									c-0.3-0.8,0.1-1.7,0.9-1.9s1.7,0.1,1.9,0.9c5.2,14.8,4.8,30.9,4.2,34.1c-2.4,13.3-12.4,34.1-27,38.4
									C1069.4,96.3,1068.4,96.5,1067.5,96.4L1067.5,96.4z"/>
							</g>
							<g>
								<path class="st15" d="M1318.7,142.2c0.8-19.8-17.6-48.5-30.9-26.4c-11.1,22.4-4.9,44.7-2,53.4c2.7,8.3,14.7,12.2,22.7,4.9
									C1316.5,166.7,1318,159.9,1318.7,142.2z"/>
								<path class="st4" d="M1454.9,167.6c14.2-13.8,47.1-8.4,37.6,15.1c-9.4,23.2-24.8,29.6-37.8,32.4c-13,2.8-20.3,0.4-20.2-10.4
									C1434.7,193.8,1442.1,180,1454.9,167.6z"/>
								<path class="st30" d="M1427.9,234.1c-6.7,10.4-21.2,32-31.3,41.6c-13.5,12.8-44.7,34.2-81.1,16.1
									c-35.6-17.7-23.6-73-16.2-91c25.5,1,48.9,4.7,68.2,9.3c20.9,5,37.2,11.1,46.7,16.2c2.5,1.3,4.9,2.7,7.3,4
									C1423.7,231.7,1425.8,232.9,1427.9,234.1L1427.9,234.1z"/>
								<path class="st4" d="M1436.2,219.4c16.4-28.3,84.4-70.7,75-136.1C1503,25.8,1433-14.1,1375.5,5
									c-57.4,19.1-90.2,119.2-87.5,204c2.7,84.8,68.8,71.4,94.4,61.4S1419.8,247.6,1436.2,219.4L1436.2,219.4z"/>
								<path class="st12" d="M1385,141.6c-3.9-6.8,8.8-18.6,16.1-15c5.8,2.9,28,17.7,30.6,26.6c0.7,2.3-2.6,5.8-5.1,7.1
									C1411,167.8,1387.6,146,1385,141.6L1385,141.6z"/>
								<path class="st12" d="M1345.7,105.8c-22.2,1.2-28.7-0.5-34.5,3.1c-5.8,3.7-8.9,11.5-2.3,13.7c6.6,2.2,20.1,3.4,31.8,2.3
									C1352.4,123.9,1368,104.6,1345.7,105.8z"/>
								<path class="st16" d="M1390.7,171.3c1.9-5,5.9-8.2,9.1-7c3.2,1.2,4.2,6.2,2.4,11.2c-1.8,5.1-5.9,8.2-9.1,7
									C1389.9,181.4,1388.8,176.3,1390.7,171.3z"/>
								<path class="st16" d="M1390.7,171.3c1.9-5,5.9-8.2,9.1-7c3.2,1.2,4.2,6.2,2.4,11.2c-1.8,5.1-5.9,8.2-9.1,7
									C1389.9,181.4,1388.8,176.3,1390.7,171.3z"/>
								<path class="st16" d="M1315.7,143.6c1.8-5,5.9-8.2,9.1-7c3.2,1.2,4.2,6.2,2.4,11.2c-1.9,5.1-5.9,8.2-9.1,7
									C1314.9,153.7,1313.8,148.6,1315.7,143.6z"/>
								<path class="st31" d="M1466.5,164.2c-1.1,0-2.2,0-3.4-0.1c-0.8-0.1-1.5-0.8-1.4-1.6c0.1-0.8,0.8-1.5,1.6-1.4
									c8.2,0.6,13-0.9,20.8-4.3c5.5-2.4,10.4-5.8,14.6-8.8c12.4-8.9,16.7-12.8,18.1-14.5c5.1-6.1,6.9-10.6,5.1-12.6
									c-1.3-1.5-4.1-2.1-7.9-2.1c-9.5,10.9-23.6,19.4-39.2,23.7c-0.5,0.1-1.4,0.4-2.6,0.9c-12,4-19.9,5.9-22.3,2.7
									c-0.5-0.7-0.7-1.5-0.5-2.4c0.6-3.3,6.4-7.9,18.8-15.1c0.4-0.2,0.7-0.4,0.9-0.5c6.1-3.7,28.8-11.8,43.5-12.2
									c0.2-0.3,0.4-0.5,0.6-0.8c5.6-7,9.2-13.7,8.8-15.2c-0.3-0.1-2.1-0.2-7.8,3.1c-0.7,0.4-1.7,0.2-2.1-0.6
									c-0.4-0.7-0.2-1.7,0.6-2.1c6.5-3.7,9.9-4.5,11.6-2.5c2.9,3.4-4,13.1-7.9,18.1c3.5,0.3,6.3,1.2,7.8,3c3,3.5,1.3,8.9-5.1,16.5
									c-2.2,2.6-8.5,7.7-18.7,15c-4.3,3.1-9.4,6.6-15.1,9.1C1478.3,162.6,1473.3,164.2,1466.5,164.2L1466.5,164.2z M1509.6,118.9
									c-13.2,1.3-32.5,7.5-39.1,11.5c-0.2,0.1-0.5,0.3-0.9,0.5c-17.1,9.9-17.4,12.9-17.4,13.1c0.6,0.7,3.8,1.3,18.9-3.8
									c1.3-0.4,2.2-0.7,2.8-0.9C1487.9,135.6,1500.6,128.3,1509.6,118.9L1509.6,118.9z"/>
								<path class="st31" d="M1301.8,101.5c-0.7,0-1.3-0.4-1.4-1.1c-4.6-15.5,0.3-48,9.2-61c2.5-3.6,5.2-5.6,8-5.9
									c2-0.2,5.7,0.4,7.6,6.2c3.4,10.5-1.2,33.6-9.2,38.3c-4,2.3-5.8,0.5-6.5-0.4c-3.8-5.5,3.6-26.7,9.7-31.5
									c0.7-0.5,1.6-0.4,2.1,0.3s0.4,1.6-0.3,2.1c-5.2,4.1-11.7,23.5-9.1,27.4c0.4,0.6,1.5,0.1,2.4-0.4c6.3-3.7,11.1-24.8,7.9-34.8
									c-1.4-4.4-3.7-4.2-4.4-4.1c-1.8,0.2-3.8,1.7-5.7,4.6c-8.5,12.4-13.1,43.6-8.8,58.4c0.2,0.8-0.2,1.7-1,1.9
									C1302.1,101.5,1301.9,101.5,1301.8,101.5L1301.8,101.5z"/>
								<path class="st15" d="M1449,205.6c-0.3,0-0.5-0.1-0.8-0.2c-0.7-0.4-0.9-1.4-0.5-2.1c0-0.1,0.1-0.1,0.1-0.2c0,0,0,0,0,0
									c3.5-6.6,16.8-19.6,27.9-24c4.6-1.8,8.4-2,11.3-0.5c0.8,0.4,1.1,1.3,0.7,2c-0.4,0.8-1.3,1.1-2,0.7c-2.1-1.1-5.1-0.9-8.8,0.6
									c-10.3,4-23,16.3-26.3,22.5c0,0.1-0.1,0.2-0.1,0.3c-0.1,0.1-0.1,0.2-0.1,0.2C1450,205.3,1449.5,205.5,1449,205.6L1449,205.6
									z M1450.4,204.7L1450.4,204.7L1450.4,204.7z"/>
								<path class="st18" d="M1341.8,217.2c-0.4,0-0.9,0-1.4,0c-12.5-0.2-27.1-8.7-29.8-26.8l-0.1-0.4c-0.9-5.9-1.5-11.7,0.1-14
									c0.4-0.6,0.9-0.6,1.8-0.8c14.4-2.1,25.8-10,32.9-16.2c12.8-11.4,17-24.3,17.5-28.4l0-0.2c0.1-0.7,0.7-1.4,1.4-1.5
									s1.4,0.5,1.6,1.2l0.1,0.2c0.2,0.5,0.1,1-0.2,1.4c-0.9,5-5.6,18.1-18.4,29.5c-7.3,6.5-19.2,14.8-34.3,17
									c-0.4,1.3-0.5,4.3,0.6,11.4l0.1,0.4c2.4,16.4,15.6,24.1,26.9,24.2c4.1,0.1,6.8-0.2,8.8-0.3c1.7-0.1,3-0.2,4.2-0.1
									c0.8,0.1,1.4,0.9,1.3,1.7s-0.9,1.4-1.7,1.3c-0.9-0.1-2,0-3.6,0.1C1347.7,217,1345.3,217.2,1341.8,217.2L1341.8,217.2z
									 M1313.2,177.6C1313.2,177.6,1313.2,177.6,1313.2,177.6C1313.2,177.6,1313.2,177.6,1313.2,177.6z"/>
								<path class="st18" d="M1334.9,242c-10,0-19.2-3.2-26.2-9.4c-0.6-0.6-0.7-1.5-0.1-2.1c0.6-0.6,1.5-0.7,2.1-0.1
									c8.7,7.7,21.3,10.4,34.5,7.4c15.1-3.4,28.2-13.5,33.5-25.8c0.3-0.8,1.2-1.1,2-0.8s1.1,1.2,0.8,2
									c-5.6,13.1-19.6,24-35.6,27.6C1342.2,241.6,1338.5,242,1334.9,242L1334.9,242z"/>
								<path class="st15" d="M1471.3,197.4c-2.2,3.1-6.9,7.3-9.8,9.1c-5.1,3.1-9.4,1.4-12.1-2.3c-0.1-0.1-0.2-0.2-0.2-0.4v0
									c3.4-6.3,16.4-19.1,27.2-23.3C1477.1,183.4,1477.3,189.2,1471.3,197.4L1471.3,197.4z"/>
							</g>
						</g>
					</g>
					<g>
						<path class="st23" d="M1325.1,1313.5c12.7-12.6,28.1-26.7,47.4-24.7c2.2,0.2,4.4,0.7,6.5,1.5c1.8,0.6,3.5,1.5,3.8,3.6
							c0.2,1.5-0.6,2.8-1.7,3.7c-1.1,0.8-2.1,1.1-3.4,1.4c-8.3,1.9-16.8,3.4-25.2,5c-9.4,1.7-18.8,3.4-28.1,5.6
							c-1.8,0.4-1,3.1,0.8,2.7c17.7-4.1,35.7-6.6,53.4-10.6c3.2-0.7,6.4-2.7,7-6.2c0.4-2.1-0.4-4.3-1.9-5.8c-1.6-1.6-4-2.2-6.2-2.8
							c-9.4-2.4-19.6-0.4-28.2,3.9c-10.1,5-18.3,12.9-26.2,20.8C1321.8,1312.8,1323.8,1314.8,1325.1,1313.5L1325.1,1313.5
							L1325.1,1313.5z"/>
						<path class="st23" d="M1324.7,1309.4c-4.8-4.9-11.5-7.6-18.3-8.2c-7.6-0.7-15.1,1.4-21.8,4.7c-3.2,1.5-6.8,3.3-8.7,6.4
							c-1.8,3-1.4,6.8,1.6,8.8c2.8,1.8,6.3,1.3,9.1,0.1c1.7-0.7,3.2-1.7,4.8-2.6c1.6-0.9,3.3-1.6,5-2.2c8-2.7,16.5-2.8,24.9-2.9
							c1.8,0,1.8-2.8,0-2.8c-6.9,0.1-13.8,0.2-20.6,1.7c-3.3,0.7-6.5,1.8-9.5,3.2c-2.8,1.3-5.5,3.7-8.7,3.9c-2.4,0.2-5.3-1-4.9-3.9
							c0.5-3.3,4-5,6.6-6.4c6.1-3.2,12.9-5.4,19.9-5.4c6.9,0.1,13.8,2.5,18.7,7.5C1324.1,1312.8,1326,1310.7,1324.7,1309.4
							L1324.7,1309.4L1324.7,1309.4z"/>
					</g>
					<g>
						<path class="st23" d="M971.2,1244.7c7.4,3.7,15.4,6.4,23.6,7.9c4.2,0.8,8.4,1.3,12.7,1.6c2.2,0.1,4.4,0.2,6.7,0.2
							c2,0,4,0.1,5.9-0.3c1.8-0.4,3.5-1.4,4.3-3c0.8-1.6,0.7-3.6-0.2-5.2c-0.9-1.7-2.6-2.8-4.2-3.8c-1.5-0.9-3-1.7-4.5-2.4
							c-6.6-2.9-14-3.9-21.2-3.5c-8.7,0.5-17.2,3.1-24.8,7.5c-1.6,0.9-0.1,3.3,1.5,2.4c11.7-6.9,26.5-9.3,39.6-5.2
							c3,0.9,5.9,2.2,8.5,3.9c1.2,0.8,2.8,1.8,3,3.4c0.2,1.5-0.9,2.6-2.3,3c-1.7,0.5-3.5,0.4-5.2,0.4c-2,0-4,0-6-0.1
							c-3.9-0.2-7.8-0.6-11.7-1.3c-8.5-1.5-16.7-4.1-24.4-7.9C971,1241.5,969.6,1243.9,971.2,1244.7L971.2,1244.7L971.2,1244.7z"/>
						<path class="st23" d="M972.6,1241.9c-4.1-4.9-7.6-11-9-17.3c-0.1-0.5-0.3-1.5,0.2-1.9c0.5-0.4,1,0.3,1.3,0.6
							c1,1,1.9,2.3,2.7,3.5c1.6,2.5,2.6,5.4,3.1,8.3c0.6,3.3,0.5,6.7-0.3,9.9c-0.5,1.8,2.3,2.4,2.7,0.7c1.8-7.1,0.5-14.8-3.5-21
							c-1-1.5-2.1-3.2-3.6-4.2c-1.7-1.2-3.8-0.9-4.9,0.9c-1,1.7-0.5,3.7,0.1,5.5c0.6,1.9,1.3,3.8,2.2,5.7c1.8,4.1,4.3,7.9,7.2,11.3
							c0.5,0.6,1.5,0.5,2-0.1C973.2,1243.2,973,1242.4,972.6,1241.9L972.6,1241.9L972.6,1241.9z"/>
					</g>
				</g>
				<g>
					<polygon class="st2" points="1914.2,807.7 2103.8,691.2 2103.8,662 1869.1,662 					"/>
					<g>
						<polygon class="st32" points="1914.2,778 310.7,778 639,661.7 2103,661.7 						"/>
						<rect x="310.8" y="778.1" class="st2" width="1603.3" height="29.5"/>
					</g>
				</g>
				<g>
					<path class="st21" d="M427.2,674.4c-1,0.3-1.7,1-2.3,1.8c-2.1,3.4-7.1,13.1-8.5,30.9c-2.2,17.2-2.4,34-2.4,34
						s47.9-17.5,50.2-17.7c17.1-1.2,20.6,9.5,31.8,12.7c11.2,3.2,14.2,3.6,19.9-0.6c5.7-4.2,6.2,4,16,0.4s6.6-6.4,7.7-8.6
						s6,4.2,15.4,0.2c9.4-3.9,4.6-11.7,7.9-10.5c11,4,14.2-5,14.6-11.8c0.7-11.8-32.5-52.4-50.2-57C511,644.1,438,670.4,427.2,674.4
						L427.2,674.4z"/>
					<path class="st29" d="M562.1,715.3c-0.6,0-1.1-0.3-1.4-0.9c-2.2-4.8-17-23.5-26.5-28.3c-0.8-0.4-1-1.3-0.7-2
						c0.4-0.8,1.3-1,2-0.7c10.5,5.2,25.7,24.9,27.9,29.7c0.3,0.8,0,1.7-0.7,2C562.5,715.3,562.3,715.4,562.1,715.3L562.1,715.3z"/>
					<path class="st29" d="M541.3,726.2c-0.6,0-1.1-0.3-1.4-0.8c-3.5-7.1-20.2-26.1-25.9-28.9c-0.8-0.4-1.1-1.3-0.7-2s1.3-1.1,2-0.7
						c6.9,3.3,23.8,23.2,27.3,30.3c0.4,0.8,0.1,1.7-0.7,2C541.8,726.2,541.5,726.2,541.3,726.2L541.3,726.2z"/>
					<path class="st29" d="M518.5,733.8c-0.6,0-1.1-0.3-1.4-0.8c-3.4-6.8-11.9-14.2-20.2-21.3c-1-0.8-1.9-1.7-2.9-2.5
						c-0.6-0.5-0.7-1.5-0.1-2.1c0.5-0.6,1.5-0.7,2.1-0.2c1,0.8,1.9,1.7,2.9,2.5c8.9,7.7,17.2,14.9,20.9,22.3c0.4,0.8,0.1,1.7-0.7,2
						C519,733.7,518.8,733.8,518.5,733.8L518.5,733.8z"/>
				</g>
				<g>
					<g>
						<path class="st20" d="M1105.2,544.3l63-13.7c1.4-0.3,2.8,0.6,3.1,2l22.4,103c0.3,1.4-0.6,2.8-2,3.1l-63,13.7
							c-1.4,0.3-2.8-0.6-3.1-2l-22.4-103C1102.9,546,1103.8,544.6,1105.2,544.3L1105.2,544.3z"/>
						<path class="st19" d="M1044.7,605l43.6-50.1c0.6-0.7,1.6-0.8,2.3-0.2l81.1,70.5c0.7,0.6,0.8,1.6,0.2,2.3l-43.6,50.1
							c-0.6,0.7-1.6,0.8-2.3,0.2l-81.1-70.5C1044.2,606.7,1044.1,605.7,1044.7,605z"/>
						<path class="st19" d="M1187.7,526.8l63.5,10.9c1.4,0.2,2.4,1.6,2.2,3l-17.8,103.9c-0.2,1.4-1.6,2.4-3,2.2l-63.5-10.9
							c-1.4-0.2-2.4-1.6-2.2-3l17.8-103.9C1184.9,527.5,1186.2,526.5,1187.7,526.8z"/>
					</g>
					<g>
						<path class="st21" d="M1411.6,574.8c-11.2,2.7-139.4,106.3-149.9,93.8c-10.6-12.5-21.8-41.6-33-46.2
							c-11.2-4.6-85.4,2.2-93.3,20.1c-1.6,3.5-0.9,7,5.1,9.1c1.3,0.5-7.2,0.6-6.8,7.6c0.6,9.8,14.1,6.8,13.8,9.7
							c-0.4,3.7,0.6,6.2,5.9,8.8c5.2,2.5,14,1.8,18.6,1.3c1.5-0.2-8.3,8.6,10,8.9c35.3,0.6,35.6,7.9,47.4,25.8
							c4.5,6.8,19.4,13.9,34.8,13.1c34.1-1.8,46.9-10.5,97.9-28.3c51.1-17.8,103.7-32.5,106.3-43c2.6-10.6,10.8-19.7-14.5-60
							C1438.4,570.9,1422.8,572.2,1411.6,574.8L1411.6,574.8z"/>
						<path class="st29" d="M1141.3,652.1c-0.1,0-0.2,0-0.4,0c-0.7-0.2-1.2-0.8-1.2-1.5c0-1,0-1.5,9-4.9c4.4-1.6,11.1-4,18.4-5.7
							l0.9-0.2c13.7-3.2,26.6-6.2,42.3-2.8c0.8,0.2,1.3,1,1.2,1.8c-0.2,0.8-1,1.3-1.8,1.2c-15.1-3.3-27.7-0.3-41,2.8l-0.9,0.2
							c-12.1,2.8-23.8,7.7-25.5,8.7C1142.1,652,1141.7,652.2,1141.3,652.1L1141.3,652.1z"/>
						<path class="st29" d="M1149.1,668.3c-0.1,0-0.2,0-0.4,0c-0.6-0.2-1.1-0.7-1.2-1.4c-0.1-0.9-0.1-1.6,8.3-4.9
							c5-2,17.4-5.6,22.2-6.8c15.6-4,28.3-4.8,42.4-2.8c0.8,0.1,1.4,0.9,1.3,1.7c-0.1,0.8-0.9,1.4-1.7,1.3c-13.7-2-26-1.2-41.2,2.7
							c-5.3,1.3-17.2,4.9-21.8,6.7c-1.3,0.5-5.7,2.5-6.8,3C1149.9,668.1,1149.5,668.3,1149.1,668.3L1149.1,668.3z"/>
						<path class="st29" d="M1174.3,680.2c-0.5,0-1-0.3-1.3-0.7c-0.4-0.7-0.2-1.7,0.5-2.1c18.1-11.2,57.3-9,60.5-6.8
							c0.7,0.5,0.9,1.4,0.4,2.1c-0.5,0.7-1.4,0.9-2.1,0.4c-2.9-1.3-40-3.7-57.2,6.9C1174.8,680.1,1174.5,680.2,1174.3,680.2
							L1174.3,680.2z"/>
					</g>
				</g>
				<g>
					<path class="st4" d="M1680.9,1271.5c0,22.4-9.3,64.5-11.9,86.4c-0.7,6,1.3,16.5-1.2,21.8c-1,2.1-13.4-1.2-15.7-1.7
						c-12.6-2.5-26-1.5-38.6-5c-3.3-0.9-56.5-10.1-58.9-13.4c-0.4-0.6,41.9-23.8,43.7-27.9c3.4-7.9,30.3-76.3,30.3-88.9
						c0-0.7,30.6,4.2,40.7,4.2L1680.9,1271.5L1680.9,1271.5z"/>
					<path class="st7" d="M1672.6,1344.5c8.6,14.4,14.3,58.3,11.6,59.9c-2.7,1.7-203.8,0.2-206.7-2.1c-1.7-1.3-8.8-13.2,10.6-25.3
						c15.6-9.7,3.7-1.5,87.5-37.8c11.7-5.1,1.3-13.3,39.4,26.2C1637.9,1388.9,1670.7,1341.3,1672.6,1344.5L1672.6,1344.5z"/>
					<path class="st5" d="M2021.5,870.4c-21.9,2-241.8-2.5-272.1,10.8c-66.9,29.2-139.9,401.8-139.8,410.3c0,2.9,70,20.4,77,14.1
						c11.6-10.5,117.9-193.3,135.2-251.1c2-6.6,47.6,4.5,147,8.5c99.4,4.1,190.6,2.7,229.6-15.1c39.1-17.7,56.3-116.5,56.3-116.5
						S2043.4,868.3,2021.5,870.4L2021.5,870.4z"/>
				</g>
				<path class="st6" d="M1993.1,879c-0.2,0-0.3,0-0.5-0.1c-16-5.3-102.9-5.2-176.6-2.5c-0.8,0.1-1.6-0.6-1.6-1.5
					c0-0.8,0.6-1.6,1.5-1.6c73.9-2.7,161.3-2.7,177.7,2.7c0.8,0.3,1.2,1.1,1,1.9C1994.4,878.6,1993.8,879,1993.1,879L1993.1,879z"/>
				<path class="st6" d="M1966.8,1061.5c0,0-0.1,0-0.2,0c-26.4-2.5-115.8-6.5-123.9-6.7c-0.2,0-0.3,0.1-0.5,0
					c-0.4,0-1.2-0.1-1.5-0.9c-0.2-0.5-0.2-1.1,0.1-1.5c0.3-0.5,2.2-0.7,5.6-0.5c2.7,0.1,6.7,0.3,11.4,0.5
					c10.5,0.4,23.8,1.1,36.5,1.7c20.4,1,57,2.9,72.6,4.4c0.8,0.1,1.5,0.8,1.4,1.7C1968.2,1060.9,1967.5,1061.5,1966.8,1061.5
					L1966.8,1061.5z"/>
				<g>
					<g>
						<g>
							<path class="st12" d="M2061.5,366.2c14.2,3.2,84.3-7.4,95.3-22c8.6-9.4,4-26.9,4-26.9s31.6,2.1,41.9-15.3
								c10.3-17.4,2.5-34.5,2.5-34.5s32.1-13.6,26.8-41.1c-4.1-21.1-17.4-27.3-17.4-27.3s8.5-41.6-10.6-60.8s-42.3-20.3-42.3-20.3
								s-8.9-27-30.9-30.2c-22-3.2-44.1,6.8-44.1,6.8s-5-14.9-25.2-12.8c-20.3,2.1-33.8,17.1-33.8,17.1s-37-15.6-57.2,3.9
								c-20.3,19.6-16,41.2-16,41.2s-52.9,14.2-43.3,51.5c9.6,37.3,48,44.4,48,44.4S2047.3,363,2061.5,366.2L2061.5,366.2z"/>
							<path class="st4" d="M2042.3,262.8c0.8-21.2,24.1-38.2,34-13.4c8.1,24.9,3.6,36.9-3.1,48.7c-6.7,11.7-12.9,15.3-19.5,6.7
								S2041.6,281.8,2042.3,262.8L2042.3,262.8z"/>
							<path class="st4" d="M1938.3,195.5c-3.9,25.2,22.9,69.2,23.4,81.9c0.5,12.7-20.5,47.8-14.6,54.6c5.9,6.8,24.4,2.9,24.4,2.9
								s12.4,42.4,36.8,46.8c24.4,4.4,46.1,5.3,55.4,9.2c9.3,3.9,114.6,0,114.6,0s-20.5-34.6-21.9-42.9c-1.5-8.3-19,22.9-75.1-7.8
								c-15.2-8.3-6.8-65.8-38-75.6c-20.1-6.3,6.8-31.7-23.4-37.5c-12.5-2.4-16.6,5.4-27.3-32.7
								C1984.7,167.2,1940.7,179.9,1938.3,195.5L1938.3,195.5z"/>
							<path class="st12" d="M1962.4,235.1c-6.1,10,0.6,16.2,9.3,14.4c8.7-1.8,13.4-5.7,23.9-2.2c10.5,3.5,8,2.1,10.7-2.8
								c2.6-4.9-6-15.7-20.3-15.8C1971.7,228.7,1964.4,231.8,1962.4,235.1L1962.4,235.1z"/>
							<path class="st16" d="M1979.7,272.7c0-5.4,2.7-9.7,6.1-9.7s6.1,4.4,6.1,9.7s-2.7,9.7-6.1,9.7S1979.7,278.1,1979.7,272.7z"/>
							<path class="st18" d="M1983.9,361.4c-0.6,0-1.1-0.3-1.4-0.8c-0.4-0.8-0.1-1.7,0.7-2c6.5-3.2,11.9-9.1,16.1-17.5
								c1.2-2.3,3.2-9.1,3.4-10c0-0.1,0.1-0.2,0.1-0.4c0.2-0.5,0.7-0.8,1.3-0.9s1.1,0.2,1.4,0.7c0.3,0.5-0.1,2.3-1.1,5.6
								c-0.7,2.1-1.7,5-2.4,6.4c-4.5,9-10.3,15.3-17.4,18.9C1984.3,361.3,1984.1,361.4,1983.9,361.4L1983.9,361.4z"/>
							<g>
								<path class="st15" d="M2062.1,288.3c-0.5,0-1-0.3-1.3-0.7c-6.3-10.4-7.8-23.5-6.1-30.5c1.4-5.5,4.2-9.2,7.4-9.7
									c1.7-0.3,4.1,0.1,6.4,3.7c0.5,0.7,0.3,1.6-0.4,2.1c-0.7,0.5-1.6,0.3-2.1-0.4c-0.8-1.2-2-2.6-3.4-2.4c-1.9,0.3-4,3.4-5,7.5
									c-1.6,6.5,0.1,18.8,5.7,28.1c0.4,0.7,0.2,1.6-0.5,2.1C2062.6,288.2,2062.4,288.3,2062.1,288.3L2062.1,288.3z"/>
								<path class="st15" d="M2054.6,257.6c0,0,7.9-1.2,13.7,10.5c1.5,3,2.8,8.3,2.8,11.4c0.1,5.3-3.4,8.2-7.7,9
									c-0.7,0.1-1.5-0.4-1.9-1.3l-2.1-5C2059.4,282.1,2052,260.4,2054.6,257.6L2054.6,257.6z"/>
							</g>
						</g>
						<path class="st16" d="M1998,273.3c-0.5,0-1-0.3-1.3-0.8c-1.2-2.1-3.8-6.4-10.9-7.5c-3.6-0.6-7.1,1-7.1,1c-0.8,0.4-1.7,0-2-0.8
							c-0.3-0.8,0-1.7,0.8-2c0.2-0.1,4.3-2,8.9-1.2c8.6,1.4,11.8,6.9,13.1,9c0.4,0.7,0.2,1.6-0.5,2.1
							C1998.5,273.2,1998.2,273.3,1998,273.3L1998,273.3z"/>
					</g>
					<g>
						<path class="st4" d="M1666.2,627.4c-16.4-4.7-25.6-20.5-39.1-30.3c-13.5-9.9-45.9-16.3-56.9-15.4c-11,0.9-46.2-11.2-50.8,2.9
							c-4.6,14.2-4.2,11.3,0.8,25.6c5,14.3,40.1,59.7,57.2,58.8c17-0.8,40.5-7.3,47.5-4.9c7.1,2.4,18,6.9,18,6.9
							S1669,631,1666.2,627.4L1666.2,627.4z"/>
						<path class="st4" d="M1739.6,518.3c0,0-16,2-26.7-3.9c-10.7-5.8-22.3-15-36.9-17.5c-14.6-2.4-61.7,7.8-68,17
							c-6.3,9.2,2.4,38.8,2.4,38.8s48.6,1,73.8,5.4c25.2,4.4,49.1,3.4,49.1,3.4L1739.6,518.3L1739.6,518.3z"/>
						<path class="st33" d="M1565.7,469.1l61.6-12.1c1.9-0.4,3.7,0.9,4.1,2.7l20,101.8c0.4,1.9-0.8,3.7-2.7,4.1l-61.6,12.1
							c-1.9,0.4-3.7-0.8-4.1-2.7l-20-101.8C1562.6,471.3,1563.8,469.5,1565.7,469.1L1565.7,469.1z"/>
						<path class="st33" d="M1495.8,514.8l53.5-32.9c1.6-1,3.8-0.5,4.8,1.1l54.4,88.4c1,1.6,0.5,3.8-1.1,4.8l-53.5,32.9
							c-1.6,1-3.8,0.5-4.8-1.1l-54.4-88.4C1493.6,517.9,1494.1,515.8,1495.8,514.8z"/>
						<g>
							<path class="st4" d="M1697.8,529.5c-16.5,3.4-31.9,18-52.5,18.7s-25.9,12.8-19.2,16.2c11.4,5.8,28.9-1,54.4,1
								c25.6,2.1,32.8-1.2,40.1-9.9S1714.3,526,1697.8,529.5L1697.8,529.5z"/>
							<path class="st29" d="M1650,547.9c-0.6,0-1.2-0.4-1.4-1c-0.3-0.8,0.1-1.7,0.9-2c1.5-0.6,3.4-1.2,5.7-1.8
								c8.8-2.7,22.2-6.7,23-14c0.1-0.8,0.8-1.4,1.7-1.3c0.8,0.1,1.4,0.8,1.3,1.7c-1,9.3-14.9,13.5-25.1,16.6
								c-2.2,0.7-4,1.2-5.5,1.8C1650.3,547.9,1650.2,547.9,1650,547.9z"/>
						</g>
						<g>
							<path class="st4" d="M1607.1,624.8c-8.8-14.4-8.7-35.6-22.1-51.1c-13.5-15.5-8.4-27.7-1.2-25.1c12.1,4.4,18.9,21.8,38,39.1
								c19,17.3,21.6,24.8,20.1,36.1C1640.4,635,1615.9,639.1,1607.1,624.8L1607.1,624.8z"/>
							<path class="st29" d="M1582.8,609.5c-7,0-14.1-1-16.1-1.4c-0.8-0.2-1.3-1-1.1-1.8c0.2-0.8,1-1.3,1.8-1.1
								c4.8,1.1,22.8,2.7,27.6-0.7c0.7-0.5,0.8-0.9,0.8-1.2c0-0.1,0.7-7.2-4.5-15.2c-0.5-0.7-0.3-1.6,0.4-2.1
								c0.7-0.5,1.6-0.3,2.1,0.4c5.8,8.9,5,16.8,4.9,17.2c-0.1,0.9-0.5,2.2-2.1,3.3C1593.9,608.8,1588.4,609.5,1582.8,609.5
								L1582.8,609.5z"/>
						</g>
						<path class="st26" d="M1614,527.4c7-3.8,15.1-30.4,6.5-34.7c-7-3.5-13.1,12.1-13.1,12.1s-12.6-6.6-16.8-1.7
							C1583.7,511.5,1611,529.1,1614,527.4z"/>
						<path class="st5" d="M1540,548.7c-0.2-1.5-0.9-26.5,0.4-26.5c1.3,0.1,23.7,10.3,24.1,11.3c0.4,1,1.8,25.8,0.4,25.2
							S1540.1,550.1,1540,548.7L1540,548.7z"/>
					</g>
					<g>
						<path class="st34" d="M1946.8,515.6c0,0-96.2-11.7-131.8-4.7c-35.7,7-40.9,5.6-40.9,5.6s-32.5-7.4-35.8-4.7
							c-4.8,3.9-16.1,49.2-12.1,57.3c2.9,5.8,26.9,3.8,26.9,3.8s48.2,30.4,84.6,35.8c36.4,5.4,75.8-2.6,93.7-5.7
							C1949.3,599.9,1946.8,515.6,1946.8,515.6L1946.8,515.6z"/>
						<path class="st35" d="M1758,568c-0.8,0-1.5-0.7-1.5-1.5c0-3.2,4.4-19.2,5.8-24c5.8-20.8,6.8-21.4,7.2-21.7
							c0.7-0.5,1.6-0.3,2.1,0.4c0.4,0.6,0.3,1.3-0.1,1.8c-1.5,2.8-12,39.2-12,43.4C1759.5,567.3,1758.8,568,1758,568L1758,568z
							 M1771.2,523.3L1771.2,523.3L1771.2,523.3z M1771.2,523.3L1771.2,523.3L1771.2,523.3z"/>
					</g>
					<path class="st34" d="M2208.2,427.1c0-13.3-0.9-13.8-8.7-23s-1.4-17.5-17.9-23.5c-16.6-6-29-7.8-73.6-1.8
						c-44.6,6-61.6,17-58.9,24.8c2.8,7.8,8.3,20.7,6,28c-2.3,7.4,85.5,7.8,85.5,7.8S2208.2,440.4,2208.2,427.1L2208.2,427.1z"/>
					<path class="st34" d="M1988.5,463.3c17.8-18.6,67.6-64.6,155.9-55.8c88.3,8.7,135.2,36.8,150.4,162.8
						c15.2,126-6.2,370.7-38,409.4c-9.3,11.3-68.9,13.4-127.1-2.1c-61.2-18.1-119-63.2-129.9-81.8c-10.9-18.6,3.1-21.1,10-51.4
						c7-30.2-27.6-181-46.2-226.8C1945.1,571.9,1970.7,481.9,1988.5,463.3L1988.5,463.3z"/>
					<path class="st34" d="M2030.4,436.9c-18.6,3.9-45,6.2-104.7,73.7c-59.7,67.5-86.1,101.6-86.1,101.6s-58.9-2.3-94.6,4.7
						c-35.7,7-52.6,10.9-52.6,10.9s-28.8-8.7-32-6.1c-4.8,3.9-24.1,46.9-20,55c2.9,5.8,32.2,8.3,32.2,8.3s29.2,17.8,65.6,23.8
						c39.9,6.6,87.1,9.2,104.9,6.1c28.4-6.1,128.5-67.8,157.2-94.1c28.7-26.4,65.9-71.3,67.5-93C2069.2,506,2049,433.1,2030.4,436.9
						L2030.4,436.9z"/>
					<path class="st35" d="M2065.8,424.5c-4.5,0-8.6-0.5-11.4-2.1c-0.7-0.4-1-1.3-0.6-2.1c0.4-0.7,1.3-1,2.1-0.6
						c6.8,3.7,23.8,0.5,32-1c1.9-0.4,3.4-0.6,4.4-0.8l5-0.7c36.6-5.3,78.1-11.2,105.6,1.1c0.8,0.3,1.1,1.2,0.8,2
						c-0.3,0.8-1.2,1.1-2,0.8c-26.7-12-69.5-5.8-104-0.9l-5,0.7c-1,0.1-2.5,0.4-4.3,0.8C2082.6,422.8,2073.6,424.5,2065.8,424.5
						L2065.8,424.5z"/>
					<path class="st35" d="M1977.2,637.2c-0.5,0-0.9-0.2-1.2-0.6c-0.5-0.7-0.4-1.6,0.3-2.1c65.8-49.4,87.8-79,90.2-87.7
						c8.8-31.1-0.9-90.8-22.5-107c-0.7-0.5-0.8-1.5-0.3-2.1c0.5-0.7,1.4-0.8,2.1-0.3c10.4,7.8,19,25.6,23.7,49
						c4.5,22.3,4.5,45.2-0.1,61.2c-2.7,9.7-25,39.5-91.3,89.3C1977.8,637.1,1977.5,637.2,1977.2,637.2L1977.2,637.2z"/>
					<path class="st35" d="M1843.4,609.1c-0.8,0-1.5-0.7-1.5-1.5c0-4.8,20.5-29.1,37.7-48.5c15.2-17.2,38.4-42.4,42.1-44.2
						c0.8-0.4,1.7-0.1,2,0.7s0.1,1.7-0.7,2c-2.3,1.1-20.3,19.9-41,43.3c-25.4,28.8-37,44.2-37.2,46.8
						C1844.9,608.4,1844.2,609.1,1843.4,609.1L1843.4,609.1z"/>
					<path class="st35" d="M1674.4,683.3c-0.4,0-0.9-0.2-1.2-0.6c-1.2-1.4,0.1-12.3,0.1-12.5c1.4-8.2,6.7-31.1,14.8-39.3
						c0.6-0.6,1.6-0.6,2.1,0s0.6,1.5,0,2.1c-6.4,6.4-12,25.8-14,37.6c-0.2,1.4-0.7,8.7-0.5,10.3c0.1,0.2,0.2,0.5,0.2,0.7
						C1675.9,682.7,1675.3,683.3,1674.4,683.3L1674.4,683.3z M1674.4,680.3c0.1,0,0.2,0,0.2,0
						C1674.6,680.3,1674.5,680.3,1674.4,680.3z"/>
				</g>
				<g>
					<path class="st16" d="M1407.5,174.6c-0.6,0-1.2-0.4-1.4-1c-0.8-2.3-2.4-7-9.2-9.5c-3.4-1.3-7.2-0.4-7.2-0.4
						c-0.8,0.2-1.6-0.3-1.8-1.1c-0.2-0.8,0.3-1.6,1.1-1.8c0.2,0,4.6-1.1,8.9,0.5c8.2,3,10.3,9.1,11.1,11.4c0.3,0.8-0.1,1.7-0.9,1.9
						C1407.8,174.5,1407.7,174.6,1407.5,174.6L1407.5,174.6z"/>
					<path class="st16" d="M1334.6,147c-0.6,0-1.2-0.4-1.4-1c-0.8-2.3-3.2-6.6-9.9-9.1c-3.4-1.2-7.2-0.2-7.2-0.2
						c-0.8,0.2-1.6-0.2-1.9-1c-0.2-0.8,0.2-1.6,1-1.9c0.2-0.1,4.8-1.4,9.1,0.2c7.9,2.9,10.7,8.1,11.7,10.9c0.3,0.8-0.1,1.7-0.9,1.9
						C1334.9,147,1334.7,147,1334.6,147L1334.6,147z"/>
				</g>
				<path class="st1" d="M2351.4,1040.8c44-78,41.6-332.6,13-372.1c-47.8-66.1-117.9-60.3-181.1,18.8
					c-52.3,65.4-63.1,227.6-64.6,326.8c-0.7,47.1,30.3,86.1,68.9,86.1c0.6,0,1.1,0,1.3,0C2304.3,1088.2,2349.1,1044.9,2351.4,1040.8
					L2351.4,1040.8z"/>
			</g>
		</g>
		<g>
			<path class="st33" d="M890.7,693.6l34.4,44.5c0.6,0.6,1.4,0.9,2.2,0.8l129.2-10.3c2.5-0.2,3.5-3.2,1.7-4.8l-42.2-38.9
				c-0.5-0.5-1.3-0.8-2-0.7l-122,6.4C889.6,690.6,889,691.9,890.7,693.6z"/>
			<path class="st5" d="M1001.2,704.8c0.6,1.9-21.5,12.8-23.4,13.8c-1.6,0.9-24.6-5.2-31.8-8.3c-1-0.4-1-1.2-0.1-1.8
				c5.2-3,20.4-11.2,24.2-12.1C972.7,695.8,1000.6,703,1001.2,704.8L1001.2,704.8z"/>
		</g>
	</g>
</g>
</svg>
