<?xml version="1.0" encoding="UTF-8"?>
<svg id="Ebene_2" data-name="Ebene 2" xmlns="http://www.w3.org/2000/svg" viewBox="0 0 2478.8 1554.23">
  <defs>
    <style>
      .cls-1 {
        fill: #216593;
      }

      .cls-2 {
        fill: #dbb0a2;
      }

      .cls-3, .cls-4 {
        fill: #fff;
      }

      .cls-5 {
        fill: #eda280;
      }

      .cls-6 {
        fill: #dd5854;
      }

      .cls-7 {
        fill: #6b3d45;
      }

      .cls-8 {
        fill: #d3876c;
      }

      .cls-9 {
        fill: #dee0e2;
      }

      .cls-10 {
        fill: #915651;
      }

      .cls-11 {
        fill: #2b1305;
      }

      .cls-12 {
        fill: #67a4c9;
      }

      .cls-13 {
        fill: #3c6596;
      }

      .cls-14 {
        fill: #edf2f4;
      }

      .cls-15 {
        fill: #fddbc0;
      }

      .cls-16 {
        fill: #af7366;
      }

      .cls-17 {
        fill: #9e625f;
      }

      .cls-18 {
        fill: #296184;
      }

      .cls-19 {
        fill: #ffeee6;
      }

      .cls-4 {
        isolation: isolate;
      }

      .cls-20 {
        fill: #e59576;
      }

      .cls-21 {
        fill: #c5d1d6;
      }

      .cls-22 {
        fill: #7c253a;
      }

      .cls-23 {
        fill: #511f07;
      }

      .cls-24 {
        fill: #e85d5d;
      }

      .cls-25 {
        fill: #a3544f;
      }

      .cls-26 {
        fill: #c18472;
      }

      .cls-27 {
        fill: #d88971;
      }

      .cls-28 {
        fill: #ba7f86;
      }

      .cls-29 {
        fill: #efc9af;
      }

      .cls-30 {
        fill: #6fb3ce;
      }

      .cls-31 {
        fill: #682b2b;
      }

      .cls-32 {
        fill: #efe1df;
      }

      .cls-33 {
        fill: #351d24;
      }

      .cls-34 {
        fill: #0c1a3a;
      }

      .cls-35 {
        fill: #af604e;
      }

      .cls-36 {
        fill: #b26a59;
      }

      .cls-37 {
        fill: #471f08;
      }
    </style>
  </defs>
  <g id="_Đĺćčě_čçîë_öčč" data-name="Đĺćčě_čçîë˙öčč">
    <g>
      <g>
        <ellipse class="cls-19" cx="1239.4" cy="1325.51" rx="1239.4" ry="228.73"/>
        <g>
          <g>
            <path class="cls-15" d="m143.81,932.66c-5.52,1.46-11.33-.72-14.56-5.42-53.62-78.01-71.72-344.84-36.96-384.35,58.19-66.13,229.87-60.3,306.82,18.81,94.63,97.28,100.51,276.85,100.51,276.85l-355.81,94.12Z"/>
            <path class="cls-26" d="m308.93,953.1l-.62,403.92c0,4.38-3.56,7.93-7.95,7.92-4.34,0-7.86-3.5-7.92-7.83l-5.33-403.89c-.08-6.03,4.74-10.97,10.77-11.05,6.03-.08,10.97,4.74,11.05,10.77,0,.03,0,.13,0,.16Z"/>
            <path class="cls-26" d="m651.01,924.41l15.84,380.5c.18,4.38-3.22,8.08-7.6,8.26-4.34.18-8-3.16-8.25-7.47l-21.78-380.21c-.34-6.02,4.25-11.17,10.27-11.52,6.02-.34,11.17,4.25,11.52,10.27,0,.04,0,.13,0,.17Z"/>
            <path class="cls-26" d="m417.67,945.52l-2.98,280.15c-.05,4.38-3.64,7.9-8.02,7.85-4.32-.05-7.8-3.55-7.85-7.85l-2.98-280.15c-.06-6.03,4.77-10.96,10.79-11.03,6.03-.06,10.96,4.77,11.03,10.79,0,.06,0,.17,0,.23Z"/>
            <path class="cls-26" d="m187.16,934.3l-93.05,327.71c-1.2,4.22-5.59,6.66-9.8,5.47-4.17-1.18-6.61-5.5-5.5-9.67l87.31-329.29c1.54-5.82,7.52-9.29,13.34-7.75,5.82,1.54,9.29,7.52,7.75,13.34-.01.04-.04.14-.05.18Z"/>
            <path class="cls-29" d="m135.2,932.29c4.41,3.53,77.59,41.44,162.23,41.44s340.33-20.28,352.67-38.79c12.34-18.52,4.41-59.07-44.97-74.06-17.64-5.36-41.48-10.6-64.83-15.13-49.5-9.6-100.02-12.93-150.36-9.97,0,0-125.43,3.35-176.57,10.4-50.53,6.97-102.27,41.14-78.18,86.11h0Z"/>
          </g>
          <g>
            <g>
              <g>
                <path class="cls-5" d="m387.4,1255.73c0,16.22-2.06,60.34-.98,83.73.8,17.29,31.42,9.94,33.65,9.62,12.62-1.8,12.02-30.83,24.6-33.35,3.28-.66,12.09,1.79,14.47-.6.44-.45,1.81-30.72,1.81-33.94v-27.26c0-.49.18-2.16-.6-2.42-.74-.24-4.51,2.24-5.42,2.42-9.94,1.99-21.83,3.03-31.95,3.03l-35.57-1.22Z"/>
                <g>
                  <path class="cls-31" d="m385.02,1322.24c-7.32,13.53-6.35,42.05-5.84,52.35.51,10.3,129.89,25.59,155.47,27.25,11.17.73,49.52-5.09,52.08-14.88,2.56-9.79-1.27-13.17-4.6-14.83-77.73-38.43-113.57-71.33-115.93-72.49-8.44-4.21-18.2-6.18-36.49,5.36-22.87,14.41-27.88,22.15-35.04,20.26-5.33-1.43-8.22-5.64-9.65-3.01Z"/>
                  <path class="cls-11" d="m537.79,1376.85c-11.95,0-24.5-1.66-35.31-3.66-26.81-4.97-50.94-13.42-58.81-17.57-2.98-1.57-6.13-3.13-9.47-4.78-14.66-7.24-29.81-14.74-31.1-23.88-.12-.83.46-1.6,1.29-1.71.83-.11,1.6.46,1.71,1.29,1.06,7.56,16.14,15.01,29.44,21.58,3.36,1.66,6.53,3.23,9.54,4.81,15.68,8.27,96.54,33.35,125.41,13.45.69-.48,1.63-.3,2.11.39.48.69.3,1.63-.39,2.11-8.57,5.91-21.13,7.96-34.43,7.96Z"/>
                </g>
              </g>
              <g>
                <path class="cls-5" d="m671.81,1185.66c0,22.38-.82,45.91,1.81,67.78.72,6.03-1.34,16.46,1.2,21.76,1.03,2.14,13.44-1.22,15.67-1.67,12.62-2.5,26.01-1.52,38.58-5.02,3.27-.92,12.09,2.46,14.47-.85.44-.6,1.81-42.41,1.81-46.84v-37.66c0-.68.18-2.99-.6-3.34-.74-.36-4.51,3.08-5.43,3.34-9.94,2.76-21.82,4.17-31.95,4.17l-35.57-1.67Z"/>
                <g>
                  <path class="cls-31" d="m672.8,1233.31c-1.79-3.55-5.37.43-7.36,3.68-8.86,14.39-12.67,31.85-13.94,53.67-.7,12.04-.42,18.75,2.32,20.41,2.75,1.65,215.32-.11,218.29-2.39,1.73-1.32.37-16.35-5.24-20.86-5.33-4.3-24.55-13.87-61.57-31.76-23.11-11.18-51.27-28.82-57.13-28.39-5.85.43-10.57,1.58-17.58,11.93-12.24,18.08-13.29,21.27-24.95,20.54-13.84-.88-30.02-21.23-32.84-26.83Z"/>
                  <path class="cls-11" d="m846.44,1286.48c-24.09,0-43.5-3.16-71.29-11.2-1.31-.38-32.23-9.37-47.15-20.32-.68-.5-.82-1.44-.33-2.12.5-.67,1.44-.82,2.12-.33,14.49,10.63,44.91,19.48,46.2,19.85,31.76,9.19,52.44,11.93,81.95,10.86.85-.02,1.54.62,1.57,1.46s-.62,1.54-1.46,1.57c-4.02.15-7.88.22-11.62.22Z"/>
                </g>
              </g>
              <g>
                <path class="cls-25" d="m335.8,890.41c-5.75.02-11.81.19-18.32.55-5.42.28-10.6.21-15.62-.13.11,6.2.5,12.44,1.29,18.79,2.35,18.83,27.86,2.61,35.22,20.8,9.44,23.32,8.55,35.14-2.77,23.54-11.32-11.57-7.17,82.75-7.27,117.21-.14,49.29,7.5,189.8,16.34,198.63,6.64,6.63,55.13,4.92,83.79,4.92,24.6,0,68.19-5.66,68.82-8.79,4.04-20.2,8.45-293.33,5.2-390.12-1.04-1,10.57-24.97,9.57-26.1-.82-.04-25.02-17.17-25.85-17.23-40.42-2.14-65.38,70.05-100.96,62.93-17.48-3.49-32.18-5.02-49.44-5Z"/>
                <path class="cls-25" d="m586.75,729.73c-54.23,1.95-39.77-.64-39.78-.26-.11,7.25-59.19,10.39-59.59,16.63-1.67,26.1-293.19-35.57-297.95,0-1.01,7.52-20.48,113.81,10.63,144.44,46.15,45.44,168.14,104.49,215.25,97.56,38.61-5.67,43.27-85.72,43-83.47,54.78,10.03,159.19-4.9,158.85-1.18-2.94,32.34-2.28,277.61,7.05,294.18,9.33,16.59,66.99,8.36,86.61,8.19,19.62-.15,59.48-2.07,65.97-8.55,3.66-3.65,15.54-374.53-9.26-431.39-14.09-32.3-60.76-40.49-180.79-36.15Z"/>
                <path class="cls-37" d="m208.07,851.52c-.84,0-1.52-.68-1.52-1.52s.68-1.52,1.52-1.52c15.24,0,34.07-26.83,46.53-44.58,4.71-6.71,8.43-12.01,11.04-14.62.59-.59,1.55-.59,2.14,0,.59.59.59,1.55,0,2.15-2.42,2.42-6.26,7.89-10.7,14.22-12.82,18.27-32.2,45.88-49.01,45.88Z"/>
                <path class="cls-37" d="m355.61,1269.25c-.69,0-1.31-.47-1.47-1.17-2.16-9.07-8.04-82.1-11.84-154.4-2.76-52.6-6.38-142.71-.3-165.04-8.98-2.46-55.16-16.99-118-70.13-28.53-24.12-23.11-64.44-18.76-96.83.59-4.42,1.16-8.6,1.63-12.68.1-.83.85-1.43,1.68-1.33.83.1,1.43.85,1.33,1.68-.48,4.1-1.04,8.29-1.64,12.73-4.47,33.31-9.54,71.06,17.71,94.11,69.2,58.52,117.8,69.79,118.28,69.9.42.09.79.36,1,.74.21.38.25.83.11,1.24-4.88,13.93-4.88,72.69-.02,165.45,3.78,72.16,9.63,144.91,11.76,153.86.19.81-.31,1.63-1.12,1.83-.12.03-.24.04-.35.04Z"/>
                <path class="cls-37" d="m626.47,904.55c-.62,0-1.19-.38-1.42-.99-.29-.79.11-1.66.89-1.95,14.28-5.31,25.74-11.73,25.53-14.31-.03-.38-.95-1.27-4.2-1.95-6.19.69-21.04,9.8-26.32,14.46-2.02,3.87-2.44,3.87-3.26,3.88h0c-.57,0-1.15-.36-1.41-.87-.15-.29-.26-.69-.21-1.2-4.27-6.24,2.51-18.69,5.77-23.95,7.55-12.22,22.26-28.07,31.34-25.05,1.19.4,1.99,1.24,2.27,2.37,1.29,5.22-9.69,17.15-24.17,32.2-1.5,1.56-3.03,3.14-4.38,4.57,7.14-4.61,16-9.1,20.33-9.46.14-.01.28,0,.42.02,1.63.33,6.58,1.32,6.85,4.72.48,6.05-17.02,13.49-27.5,17.39-.17.06-.35.1-.53.1Zm24.29-49.27c-6.3,0-18.02,10.5-26.35,23.98-5.13,8.3-7.46,15.45-6.44,19.28.14-.14.28-.28.43-.42.34-.65.74-1.44,1.21-2.41l.07-.15c.71-1.41,3.7-4.56,9.39-10.47,7.92-8.23,24.4-25.37,23.42-29.37-.02-.07-.03-.14-.29-.22-.44-.15-.92-.22-1.44-.22Z"/>
                <path class="cls-37" d="m501.7,911.45c-.73,0-1.38-.53-1.5-1.28-4.64-29.51-16.52-51.15-36.32-66.15-8.63-6.54-22.32-12.37-38.54-16.41-1.03-.26-2.2-.55-2.04-1.89.09-.76.75-1.33,1.52-1.33.21,0,.41.04.59.12.14.04.36.09.66.17,16.85,4.2,30.56,10.05,39.64,16.93,20.45,15.49,32.71,37.77,37.48,68.09.13.83-.44,1.6-1.26,1.73-.08.01-.16.02-.24.02Z"/>
                <g>
                  <path class="cls-37" d="m266.39,886.45c-.84,0-1.52-.68-1.52-1.52,0-21.48,1.2-67.47,3.4-75.16.23-.81,1.07-1.27,1.87-1.04.81.23,1.27,1.07,1.04,1.88-2.04,7.12-3.28,52.17-3.28,74.33,0,.84-.68,1.52-1.52,1.52Z"/>
                  <path class="cls-37" d="m280.33,874.8c-.71,0-1.34-.5-1.49-1.22-4.15-21.07-11.87-66.43-11.2-74.4.07-.83.8-1.45,1.64-1.38.83.07,1.45.8,1.38,1.64-.62,7.38,6.87,51.82,11.15,73.56.16.82-.37,1.62-1.19,1.78-.1.02-.2.03-.29.03Z"/>
                </g>
              </g>
            </g>
            <g>
              <path class="cls-21" d="m360.9,246.52s22.97-15.2,31.41,1.11c8.44,16.29-.39,49.49-6.5,46.3-29.97-15.69-49.27-26.31-49.27-26.31,0,0,2.67-8.29,8.75-13.55,6.09-5.28,15.6-7.55,15.6-7.55Z"/>
              <g>
                <path class="cls-12" d="m520.78,656.06c2.15,2.16,86.48,59.35,222.61-2.45,15.57-10.32-45.62-108.3-68.95-120.55-23.33-12.23-85.73-40.81-117.81-20.99-32.08,19.82-51.53,128.32-35.86,143.99Z"/>
                <path class="cls-12" d="m387.9,268.18s-68.34,8.68-126.8,43.33c-58.46,34.65-133.6,87.53-124.94,274.83,8.66,187.3,47.64,199.22,59.55,200.31,11.91,1.07,37.5-2.05,85.69-12.54,1.74-.92,10.99,14.92,104.89,17.33,93.9,2.4,187.8-20.07,209.47-44.14,21.67-24.07,31.29-60.99,24.86-109.15-6.42-48.16-38.51-86.69-38.51-86.69l69.82-9.62s-20.23-96.71-51.53-156.11c-31.3-59.38-64.35-77.55-64.35-77.55l-148.16-40Z"/>
                <path class="cls-30" d="m402.24,399.73s73.82,63.16,83.93,60.55c10.11-2.61,35.08-92.7,35.08-92.7l-13.26-14.31s-25.76,67.98-32.61,67.66c-6.85-.32-66.2-38.93-66.2-38.93l-6.93,17.73Z"/>
                <path class="cls-9" d="m395.02,376.51s70.49,50.15,80.6,47.54c10.11-2.61,36.54-83.52,36.54-83.52l-8.4-11.86s-32.72,71.23-37.77,66.59c-20.15-18.51-61.05-37.86-61.05-37.86l-9.93,19.11Z"/>
                <path class="cls-4" d="m468.51,396.2c5.32-.86,40.15-33.09,42.61-32.71,3.4.51,21.98,38.28,23.87,37.43,2.97-1.32-8.85-82.15-26.69-97.97-2.4-2.12-13.06-4.45-15.4-1.62-6.98,8.47-3.27,36.12-11.21,43.35-2.58,2.35-10.56-2.12-12.89.7l-.29,50.83Z"/>
                <path class="cls-1" d="m593.9,541.54c-.84,0-1.52-.68-1.52-1.52,0-56.29-7.25-99.33-21.55-127.93-.37-.75-.07-1.66.68-2.03s1.66-.07,2.03.68c14.51,29.02,21.87,72.52,21.87,129.29,0,.84-.68,1.52-1.52,1.52Z"/>
                <path class="cls-1" d="m621.05,681.57c-.1,0-.2-.01-.3-.03-.82-.17-1.35-.97-1.19-1.79.05-.27,5.22-26.98-5.42-71.17-1.94-8.04-4.31-15.9-7.06-23.36-7.98-21.65-28-36.42-50.99-37.63-14.52-.76-65.88-1.6-117.22,19.72-.77.32-1.66-.05-1.98-.82-.32-.77.05-1.66.82-1.98,35.05-14.55,79.36-22.01,118.54-19.95,24.2,1.27,45.27,16.82,53.67,39.61,2.79,7.57,5.2,15.54,7.17,23.7,10.81,44.91,5.66,71.37,5.44,72.48-.15.72-.78,1.21-1.48,1.21Z"/>
                <path class="cls-1" d="m256.36,655.07c-.16,0-.32-.03-.48-.08-.79-.26-1.22-1.12-.96-1.92,6.25-18.75,15.94-140.53,15.94-187.37,0-.84.68-1.52,1.52-1.52s1.52.68,1.52,1.52c0,47.01-9.78,169.4-16.1,188.33-.21.64-.8,1.04-1.44,1.04Z"/>
                <path class="cls-1" d="m416.85,760.32c-.39,0-.76-.06-1.1-.16-3.78-1.1-7.49-7.78-2.54-50.04l.2-1.69c1.69-15.05,4.79-26.35,8.84-32.39-8.01-.18-27.86-1.36-32.27-2.37-.86-.19-2.3-.69-4.48-1.43-49.47-16.94-104.38-19.98-163.22-9.04-.82.15-1.61-.39-1.77-1.21-.15-.82.39-1.62,1.21-1.77,38.02-7.07,74.89-8.36,109.58-3.83,27.92,3.65,47.02,10.19,55.18,12.98,2.01.69,3.46,1.19,4.17,1.35,5.33,1.22,32.59,2.53,34.28,2.31,1.14-.22,1.64.46,1.8.76.36.67.21,1.35-.46,2.04-4.43,4.56-8.02,16.57-9.85,32.94l-.2,1.71c-4.9,41.88-.95,46.39.37,46.78.67.19,4.61,0,15.73-23.1.36-.75,1.27-1.07,2.02-.71.75.36,1.07,1.27.71,2.02-10.07,20.93-15.09,24.86-18.21,24.86Z"/>
                <path class="cls-1" d="m285.48,774.46c-.71,0-1.35-.5-1.49-1.23-.16-.82.38-1.62,1.2-1.78,2.48-.48,5.8-1.11,9.71-1.85,23.08-4.4,77.12-14.7,80.43-16.48.74-.4,1.66-.12,2.05.62.4.74.12,1.66-.62,2.05-3.09,1.66-34.73,7.92-81.3,16.79-3.9.74-7.22,1.38-9.7,1.85-.1.02-.19.03-.29.03Z"/>
                <path class="cls-27" d="m349.25,291.13c5.44-21.05,11.46-77.6,13.15-98.31,1.69-20.71,145.9,79.33,145.9,79.33,0,0,3.24,16.61-12.97,55.53-12.01,28.82-22.13,54.3-26.21,64.53-1.43,3.57-1.48,3.5-1.48,3.5,0,0-123.83-83.52-118.4-104.57Z"/>
                <path class="cls-21" d="m435.11,359.43s38.75,40.04,32.64,36.85c-29.97-15.71-49.59-25.76-49.59-25.76l16.96-11.09Z"/>
                <path class="cls-4" d="m319.95,283.37c-1.32-5.3,21.09-26.48,25.06-29.65,1.33-1.05,1.38-.03,1.38-.03,0,0,14.77,26.08,37.86,57.18,25.08,33.8,51.15,48.63,51.15,48.63,0,0-29.16,73.17-34.01,67.87-4.85-5.3-28.66-24.26-53.36-73.64-13.58-27.17-26.93-65.75-28.08-70.35Z"/>
              </g>
              <g>
                <path class="cls-9" d="m494.77,133.66c-18.22-14.66,24.79-43.8,13.22-61.16-11.57-17.36-31.4-76.04-86.78-65.3-55.37,10.75-94.22,43.8-99.18,86.77-4.96,42.99,0,85.97,15.7,104.14,15.7,18.19,27.42,6.11,28.7,25.93,4.34,67.16,14.41,70.54,36.25,92.62,21.84,22.08,72.95,53.5,114.27,40.27,41.32-13.21,74.97-49.72,54.83-115.71-15.07-49.4-34.87-73.68-77.02-107.56Z"/>
                <path class="cls-5" d="m533.97,218.62s13.84-96.85-4.1-124.52c-17.94-27.68-34.34-67.65-87.63-64.06-40.52,2.72-65.08,19.97-73.8,58.93-8.31,37.17-12.3,66.1-2.05,70.73,10.25,4.6,17.94,9.73,18.96,18.96,1.03,9.23-7.17,46.11,17.94,60.47,25.11,14.36,20.99,16.24,60.96-12.47,29.23-20.99,69.72-8.03,69.72-8.03Z"/>
                <path class="cls-9" d="m466.93,121.13c4.2-9.43-.83-18.51-12.48-19.77-11.65-1.24-31.84,6.67-45.15,28.71-6.57,10.9-2.29,17.29,8.74,12.7,11.03-4.58,15.61-10,24.34-12.27,8.74-2.29,22.89-5.62,24.55-9.38Z"/>
                <path class="cls-9" d="m497.04,106.46c-6.64,4.88-4.97,15.97,1.4,16.72,15.09,1.76,32.21,4.59,37.06,3.7,7.71-1.41,3.03-15.16-10.23-20.06-13.25-4.9-21.59-5.25-28.24-.36Z"/>
                <path class="cls-5" d="m476.64,220.31s20.51,5.32,31.14-1.52c10.64-6.84,13.29-15.2,12.15-21.27-1.14-6.09-30.76-23.17-30.76-23.17l-12.53,45.96Z"/>
                <path class="cls-5" d="m360.38,194.26c-7.48-18.38-40.6-39.55-45.73-14.77-5.06,24.47,19.54,49.04,26.99,52.97,7.44,3.93,23.44,1.49,24.97-2.13,1.61-7.05.48-19.63-6.23-36.07Z"/>
                <path class="cls-33" d="m447.89,158.62c-.61-5.36,1.61-9.98,4.95-10.37,3.35-.38,6.55,3.65,7.16,8.98.61,5.34-1.61,9.98-4.95,10.35-3.35.39-6.55-3.63-7.16-8.96Z"/>
                <path class="cls-33" d="m510.7,146.61c-.61-5.34,1.61-9.98,4.95-10.35,3.34-.38,6.55,3.65,7.16,8.98.61,5.34-1.61,9.98-4.95,10.35-3.35.38-6.55-3.65-7.16-8.98Z"/>
                <g>
                  <path class="cls-23" d="m515.93,189.79c-5.47,0-9.73-1.75-12.81-3.73-9.62-6.19-15.18-19.43-14.52-34.57.28-19.09,8.68-36.73,20.42-42.9,11.76-6.18,25.19-.62,31.38,8.31,7.3,10.55,9.42,29.71,5.15,46.61-2.78,11.03-7.83,18.9-14.22,22.15-5.91,3.01-11.04,4.13-15.41,4.13Zm3.71-80.79c-3.07,0-6.2.7-9.21,2.28-10.81,5.68-18.54,22.24-18.8,40.28,0,.01,0,.03,0,.04-.62,14.07,4.41,26.3,13.13,31.91,6.97,4.49,15.69,4.3,25.2-.55,5.6-2.85,10.09-10.02,12.66-20.19,4-15.85,2.02-34.42-4.71-44.14-3.85-5.55-10.86-9.63-18.27-9.63Zm-29.52,42.53h0,0Z"/>
                  <path class="cls-23" d="m445.59,205.69c-4.19,0-8.33-.7-12.18-2.14-11.93-4.46-19.79-15.35-22.13-30.64-1.55-10.11-2.38-25.46,8.13-42.03h0c7.31-11.5,23.92-20.02,43.12-11.52,13.63,6.02,20.51,20.78,20.45,43.86-.05,18.89-6.96,28.69-12.74,33.59-6.81,5.78-15.82,8.88-24.64,8.88Zm-23.62-73.18c-9.97,15.71-9.17,30.32-7.7,39.94,2.16,14.16,9.33,24.2,20.19,28.26,10.99,4.11,24.57,1.61,33.8-6.22,5.3-4.48,11.62-13.55,11.67-31.28.06-21.77-6.21-35.59-18.64-41.08-17.56-7.77-32.7-.07-39.33,10.37h0Z"/>
                  <path class="cls-23" d="m481.15,151.74s-.03,0-.04,0c-.84-.02-1.5-.72-1.48-1.56.08-3.05,2.87-5.17,5.52-5.45,2.95-.31,5.34,1.46,6.1,4.53.2.81-.29,1.64-1.11,1.84-.81.2-1.64-.29-1.84-1.11-.54-2.16-2-2.33-2.83-2.24-1.33.14-2.78,1.19-2.81,2.52-.02.82-.7,1.48-1.52,1.48Z"/>
                  <path class="cls-23" d="m354.9,177.99c-.53,0-1.04-.28-1.32-.77-.41-.73-.15-1.65.57-2.07,12.92-7.3,33.11-15.93,45.17-21.08,3.18-1.36,6.25-2.67,8.34-3.6,1.12-1.36,2.59-1.97,3.93-1.64.63.16,1.13.73,1.18,1.38.07.87.09,1.19-3.1,2.67-.44.76-.54,1.54-.36,1.89.19.38.98.42,1.31.42.84,0,1.52.68,1.52,1.52s-.68,1.52-1.52,1.52c-2.64,0-3.68-1.36-4.06-2.17-.24-.52-.36-1.07-.37-1.62-1.52.66-3.38,1.46-5.67,2.43-12,5.13-32.1,13.72-44.87,20.93-.24.13-.49.2-.74.2Z"/>
                  <path class="cls-23" d="m546.77,139.44c-.59,0-1.15-.35-1.4-.93-.33-.77.04-1.66.81-1.99,1.56-.66,2.06-1.45,2.02-1.98-.03-.29-.22-.5-.38-.53-.22-.06-.56.24-.85.73-.42.72-1.35.97-2.07.54-.72-.42-.97-1.35-.54-2.07,1-1.71,2.54-2.51,4.13-2.16,1.47.33,2.6,1.65,2.75,3.22.07.77,0,3.42-3.86,5.05-.19.08-.39.12-.59.12Z"/>
                </g>
                <path class="cls-35" d="m490.58,222.77c-4.73,0-9.4-.81-13.53-2.44-.78-.31-1.16-1.19-.85-1.97.31-.78,1.19-1.16,1.97-.85,8.65,3.42,19.84,2.89,28.52-1.35,4.77-2.33,10.96-6.83,13.38-15.07,1.71-5.81-.25-7.26-2.63-7.97-11.74-3.48-19.37-8.11-23.35-14.15-7.52-11.43-8.29-28.98-8.32-29.73-.03-.84.62-1.54,1.46-1.57.85-.04,1.54.62,1.58,1.45,0,.17.77,17.46,7.82,28.18,3.52,5.34,10.81,9.69,21.68,12.91,4.96,1.47,6.53,5.42,4.68,11.73-2.16,7.36-7.33,13.21-14.96,16.94-5.27,2.57-11.4,3.88-17.43,3.88Z"/>
                <path class="cls-35" d="m486.11,254.34c-16.11,0-29.15-5.17-29.73-5.41-.78-.31-1.15-1.2-.84-1.97.31-.78,1.2-1.15,1.97-.84.15.06,14.96,5.92,31.93,5.11,17.9-.85,28.11-11.13,28.22-11.24.58-.6,1.54-.61,2.14-.03.6.58.61,1.54.03,2.14-.45.46-11.16,11.24-30.24,12.15-1.17.06-2.33.08-3.47.08Z"/>
                <g>
                  <path class="cls-27" d="m356.92,212.01c-.71,0-1.35-.5-1.49-1.23-2.05-10.53-11.5-24.85-18.73-28.38-3.9-1.9-8.07-1.97-10.89-.17-2.45,1.56-3.71,4.33-3.64,7.99.02.84-.65,1.53-1.49,1.55-.01,0-.02,0-.03,0-.82,0-1.5-.66-1.52-1.49-.09-4.71,1.7-8.47,5.04-10.61,3.76-2.4,8.94-2.4,13.86,0,8.19,4,18.09,18.84,20.37,30.53.16.82-.38,1.62-1.2,1.78-.1.02-.2.03-.29.03Z"/>
                  <path class="cls-27" d="m338.04,180.63s-10.13,5.82-5.64,20.19c1.14,3.66,4.7,9.03,7.48,11.5,4.85,4.31,11.51,3.72,17.14.59.93-.52,1.34-1.64.94-2.63l-2.4-5.83s-11.98-23.75-17.51-23.83Z"/>
                </g>
                <path class="cls-33" d="m437.59,160.52c-.26,0-.53-.07-.77-.21-.72-.42-.96-1.35-.54-2.08.49-.83,5.08-8.2,15.35-10.25,4.61-.92,7.72.87,7.85.95.72.42.96,1.35.54,2.08s-1.35.96-2.08.54c-.08-.05-2.3-1.27-5.72-.59-8.97,1.79-12.91,8.1-13.33,8.82-.28.48-.79.75-1.31.75Z"/>
                <path class="cls-33" d="m501.06,147.71c-.26,0-.53-.07-.77-.21-.72-.42-.96-1.35-.54-2.08.49-.83,5.09-8.2,15.35-10.25,4.61-.92,7.72.87,7.85.95.72.42.96,1.35.54,2.08s-1.36.96-2.08.54c-.08-.05-2.3-1.27-5.72-.59-8.97,1.79-12.91,8.1-13.33,8.82-.28.48-.79.75-1.31.75Z"/>
              </g>
              <g>
                <path class="cls-23" d="m729.15,607.37c-10.48,0-52.14-30.2-60.63-36.96-.66-.52-.76-1.48-.24-2.13.52-.65,1.48-.76,2.13-.24,16.13,12.84,52.91,37.56,58.95,36.29.82-.18,1.62.35,1.8,1.17.17.82-.35,1.62-1.17,1.8-.25.05-.53.08-.84.08Z"/>
                <path class="cls-23" d="m719.37,627.62c-.1,0-.2,0-.29-.03-10.81-2.13-28.75-12.53-41.89-20.88-.71-.45-.92-1.39-.47-2.09.45-.71,1.39-.92,2.09-.47,12.92,8.21,30.49,18.42,40.84,20.46.82.16,1.36.96,1.19,1.78-.14.72-.78,1.22-1.49,1.22Z"/>
                <path class="cls-10" d="m565.11,538.77l42.95-49.4c.77-.88,2.1-.98,2.99-.21l80.35,69.85c.88.77.98,2.1.21,2.99l-42.95,49.4c-.77.88-2.1.98-2.99.21l-80.35-69.85c-.88-.77-.98-2.1-.21-2.99Z"/>
                <path class="cls-17" d="m632.37,475.6l63.97-13.89c1.14-.25,2.27.48,2.52,1.62l22.59,104.04c.25,1.14-.48,2.27-1.62,2.52l-63.97,13.89c-1.14.25-2.27-.48-2.52-1.62l-22.59-104.04c-.25-1.14.48-2.27,1.62-2.52Z"/>
                <path class="cls-10" d="m720.97,467.32l63.94,10.95c1.31.23,2.2,1.47,1.97,2.79l-17.87,104.34c-.22,1.31-1.47,2.2-2.79,1.97l-63.94-10.95c-1.31-.22-2.2-1.47-1.97-2.79l17.87-104.34c.22-1.31,1.47-2.2,2.79-1.97Z"/>
                <path class="cls-20" d="m743.27,654.91c18.69-4.08,36.78-33.52,34.87-49.53-3.77-31.7-48.59-60.67-59.18-64.17-15.1-4.98-21.01.83-19.78,5,1.96,6.63,5.96,7.87,16.46,15.84,15.45,11.73,33.18,26.01,28.76,25.95-9.14-.13-52.3-31.53-61.68-34.71-5.86-1.97-12.38-1.8-15.55,5.6-2.09,4.87,1.21,10.86,1.06,9.96-.15-.9-6.8-1.41-8.82,5.88-2.79,10.11,15.02,26.7,16.23,28.99,3.96,7.53-12.18-5.75-15.27.75-3.53,7.42.58,13.34,12.38,19.62,11.8,6.29,53.14,34.57,70.51,30.82Z"/>
              </g>
            </g>
          </g>
          <g>
            <path class="cls-16" d="m490.9,794.19h36.75l-45.39,602.5c-.09,6.13-4.34,11.04-9.55,11.04h0c-5.21,0-9.46-4.91-9.55-11.04l27.75-602.5Z"/>
            <path class="cls-16" d="m1697.39,792.52h36.75l27.64,604.17c-.09,6.13-4.34,11.04-9.55,11.04h0c-5.21,0-9.46-4.91-9.55-11.04l-45.29-604.17Z"/>
          </g>
          <g>
            <path class="cls-5" d="m1960.18,1235.68c6.39,57.36,23.51,79.77,20.88,101.64-.73,6.03-4.45,8.17-7.01,13.47-1.01,2.14-13.44-1.24-15.67-1.67-12.63-2.5-26.01-1.54-38.58-5.02-3.27-.92-64.83-12.74-67.21-16.05-.43-.6,47.97-19.69,50.32-30.65,1-4.66-4.94-63.3-4.15-63.66.75-.36,18.04-14.11,18.96-13.85l42.47,15.78Z"/>
            <path class="cls-25" d="m1980.7,1312.93c8.57,14.39,14.26,58.25,11.61,59.9-2.67,1.67-203.78.15-206.66-2.1-1.67-1.33-8.19-13,10.62-25.29,13.36-8.72,3.68-1.5,87.54-37.81,11.76-5.09,1.28-13.28,39.44,26.17,22.72,23.51,55.53-24.13,57.44-20.88Z"/>
            <path class="cls-31" d="m2124.2,840.54c-21.87,1.99-271.52-19.9-297.26.64-59.6,47.58,55.86,401.91,59.08,415.38,3.21,13.49,78.66,9.36,88.6-2.57,9.94-11.93.64-183.6-10.92-250.38-1.15-6.6,7.78,5.66,107.22,9.64,99.44,3.96,57.39,3.7,80.25-12.21,22.87-15.9,63.57-109.13,63.57-109.13,0,0-68.66-53.35-90.53-51.35Z"/>
          </g>
          <g>
            <path class="cls-26" d="m2188.14,1071.52l41.31,362.53c.5,4.35-2.63,8.29-6.99,8.78-4.31.49-8.21-2.57-8.77-6.86l-47.22-361.81c-.78-5.98,3.43-11.45,9.41-12.23,5.98-.78,11.45,3.43,12.23,9.41,0,.04.02.14.02.18Z"/>
            <path class="cls-26" d="m1928.46,1047.79l-31.34,367.23c-.37,4.37-4.21,7.6-8.58,7.23-4.32-.37-7.54-4.14-7.24-8.45l25.4-367.69c.42-6.01,5.63-10.55,11.64-10.13,6.01.42,10.55,5.63,10.13,11.64,0,.04-.01.14-.01.18Z"/>
            <path class="cls-26" d="m2020.33,1071.34l-2.98,280.15c-.05,4.38-3.64,7.9-8.02,7.85-4.32-.05-7.8-3.55-7.85-7.85l-2.98-280.15c-.06-6.03,4.77-10.96,10.79-11.03,6.03-.06,10.96,4.77,11.03,10.79,0,.06,0,.17,0,.23Z"/>
            <path class="cls-26" d="m2330.47,1031.83l102.4,319.12c1.34,4.17-.96,8.64-5.13,9.98-4.13,1.32-8.54-.91-9.94-5l-108.05-317.25c-1.94-5.7,1.11-11.9,6.81-13.85,5.7-1.94,11.9,1.11,13.85,6.81.01.04.05.14.06.18Z"/>
            <path class="cls-29" d="m2341.33,1041.42c-3.89,3.53-110.35,58.14-185.01,58.14s-248,11.01-258.89-7.51c-10.89-18.52-3.89-90.36,39.67-105.35,15.56-5.36,36.59-10.6,57.19-15.13,43.67-9.6,88.23-12.93,132.64-9.97,0,0,110.65,3.35,155.76,10.4,44.57,6.97,79.91,24.44,58.65,69.41h0Z"/>
          </g>
          <g>
            <path class="cls-15" d="m1495.97,890.9c5.52,1.46,11.33-.72,14.56-5.42,53.62-78.01,71.72-344.84,36.96-384.35-58.19-66.13-229.87-60.3-306.82,18.81-94.63,97.28-100.51,276.85-100.51,276.85l355.81,94.12Z"/>
            <path class="cls-26" d="m1352.68,911.47l-5.33,403.89c-.06,4.38-3.66,7.89-8.04,7.83-4.34-.06-7.82-3.6-7.83-7.92l-.62-403.92c0-6.03,4.87-10.92,10.89-10.93,6.03,0,10.92,4.87,10.93,10.89,0,.03,0,.13,0,.16Z"/>
            <path class="cls-26" d="m1010.58,883.73l-21.78,380.21c-.25,4.38-4,7.72-8.38,7.47-4.33-.25-7.65-3.93-7.47-8.25l15.84-380.5c.25-6.02,5.33-10.7,11.36-10.45,6.02.25,10.7,5.33,10.45,11.36,0,.04,0,.13,0,.17Z"/>
            <path class="cls-26" d="m1243.94,903.76l-2.98,280.15c-.05,4.38-3.64,7.9-8.02,7.85-4.32-.05-7.8-3.55-7.85-7.85l-2.98-280.15c-.06-6.03,4.77-10.96,10.79-11.03,6.03-.06,10.96,4.77,11.03,10.79,0,.06,0,.17,0,.23Z"/>
            <path class="cls-26" d="m1473.67,886.77l87.31,329.29c1.12,4.24-1.4,8.58-5.64,9.7-4.19,1.11-8.49-1.35-9.67-5.5l-93.05-327.71c-1.65-5.8,1.72-11.83,7.52-13.48s11.83,1.72,13.48,7.52c.01.04.04.14.05.18Z"/>
            <path class="cls-29" d="m1504.58,890.54c-4.41,3.53-77.59,41.44-162.23,41.44s-340.33-20.28-352.67-38.79c-12.34-18.52-4.41-59.07,44.97-74.06,17.64-5.36,41.48-10.6,64.83-15.13,49.5-9.6,100.02-12.93,150.36-9.97,0,0,125.43,3.35,176.57,10.4,50.53,6.97,102.27,41.14,78.18,86.11h0Z"/>
          </g>
          <g>
            <g>
              <g>
                <g>
                  <path class="cls-5" d="m1363.32,1224.78c-2.24,22.27,2.61,83.71-2.2,105.23-1.32,5.92-62.53,3.12-64.58-.41-.38-.64-8.85-111.5-7.59-124,.08-.68,52.16,1.26,52.97.98l21.4,18.21Z"/>
                  <g>
                    <path class="cls-12" d="m1292.61,1303.89c-15.24,13.42-43.65,57.39-36.79,81.7,6.86,24.33,39.29,58.63,77.96,44.91,38.67-13.72,66.72-71.1,49.89-93.56,0,0-23.71-42.62-50.57-45.85-19.69-2.39-32.56,5.83-40.49,12.8Z"/>
                    <path class="cls-3" d="m1315.2,1369.45c-32.41-1.09-47.97,5.71-58.72,19.26,8.61,24.01,38.26,58.42,75.27,45.28,17.51-6.22,32.6-21.48,42.58-38.29-11.26-10.88-31.19-25.29-59.13-26.25Z"/>
                    <path class="cls-18" d="m1346.24,1358.51c-.27,0-.53-.07-.78-.22-6.94-4.17-25.46-12.17-34.15-14.77-.45-.13-1.06-.31-1.77-.51-9.92-2.82-11.76-3.71-11.58-5.58.12-1.25.2-2.08,19.85-8.78,9.09-3.1,18.51-6.11,21.29-6.95-8.08-4.34-32.35-13.18-35.71-13.96-.5.06-1.02-.13-1.36-.55-.47-.57-.46-1.44.03-2,.77-.88,1.09-1.24,18.2,5.25,5.08,1.93,17.38,6.7,21.71,9.41,1.9,1.02,2.61,1.41,2.61,2.45,0,.06,0,.11,0,.17-.17,1.58-1.96,1.77-3.69,1.96-.23.02-.42.04-.53.06-4.71,1.38-30.85,9.88-38.03,13.1,2.31.88,6.27,2.01,8.04,2.51.73.21,1.35.38,1.81.52,8.86,2.65,27.75,10.82,34.85,15.07.72.43.95,1.36.52,2.08-.28.47-.79.74-1.3.74Z"/>
                    <path class="cls-18" d="m1298.03,1355.37c-.48,0-.96-.23-1.25-.66-.48-.69-.3-1.63.39-2.11,3.66-2.52,18.3-6.42,34.27-10.53,3.66-.94,7.41-1.91,9.47-2.5-4.22-4.42-20.29-10.55-29.31-13.99-10.43-3.98-11.39-4.39-11.24-6.05.35-3.69,9.44-6.34,29.69-10.87,4.37-.98,8.14-1.82,9.33-2.28.78-.3,1.66.09,1.96.87.3.78-.09,1.66-.87,1.96-1.4.54-4.9,1.32-9.76,2.41-7.14,1.6-23.07,5.17-26.7,7.68,1.73.8,5.24,2.14,8.67,3.45,16.27,6.21,29.91,11.77,31.96,17.04.16.4.13.88-.07,1.26q-.45.87-12.39,3.96c-11.14,2.87-29.79,7.67-33.31,10.09-.26.18-.56.27-.86.27Z"/>
                  </g>
                </g>
                <g>
                  <path class="cls-5" d="m1059.09,1170.29c-.7,22.37,12.35,76.83,9.04,98.62-.91,5.99-62.18,7.39-64.46,4.01-.42-.61-21.53-107.81-21.14-120.36.02-.68,13.09,21.05,13.88,20.72.75-.31,4.41,3.22,5.32,3.51,9.85,3.07,21.68,4.87,31.8,5.19l25.56-11.7Z"/>
                  <g>
                    <path class="cls-3" d="m1081.32,1276.89c.77,4.25,1.15,7.91,1.01,10.67-.2,4.04-2.28,25.61-2.28,25.61,0,0-222.29,2.24-231.82-1.56-10.38-4.16-1.98-48.87,48.85-58.31,46.14-8.57,81.7-9.19,90.77-18.55,9.06-9.36,20.33,11.03,27.76,18.19,7.43,7.15,27.27,14.75,32.45,12.49,5.18-2.26,19.33-25.22,19.33-25.22,0,0,8.79,7.96,13.93,36.68Z"/>
                    <path class="cls-12" d="m994.45,1231.43c-2.45-.7-4.85-.21-7.12,2.13-9.07,9.38-44.53,10.94-90.67,19.51-1.33.24.59,1.18,3.08,11.94,2.49,10.74,2.32,23.12,2.32,23.12l180.67-1.04c-.58-4.12,2.15-6.74-3.27-25.86-3.82-13.49-12.58-22.22-12.58-22.22,0,0-14.18,22.96-19.36,25.24-5.18,2.26-25.02-5.33-32.45-12.49-5.57-5.36-13.29-18.2-20.63-20.33Z"/>
                    <path class="cls-18" d="m926.55,1263.81c-.56,0-1.09-.31-1.36-.84-.25-.49-.82-1.65,2.46-12.23.13-.43.45-.78.87-.95.42-.17.89-.15,1.29.06l13.46,7.13,2.44-9.85c.12-.47.45-.85.89-1.04.45-.18.95-.15,1.36.1l.48.29c5.84,3.44,12.78,6.76,16.28,7.13.1-.76.22-1.81.32-2.72.19-1.65.4-3.51.61-4.96.32-2.23.54-3.85,2.16-3.74q.35.01,10.74,4.05c3.46,1.34,7,2.72,9.23,3.58.78.3,1.17,1.18.88,1.96-.3.78-1.18,1.18-1.96.88-2.24-.86-5.78-2.23-9.25-3.58-3.23-1.26-6.77-2.63-8.71-3.37-.23,1.51-.51,3.91-.7,5.54-.58,5.03-.6,5.23-1.88,5.38-4.34.58-13.27-4.09-18.01-6.79l-2.42,9.77c-.11.45-.43.83-.85,1.02-.43.19-.92.17-1.33-.04l-13.54-7.17c-1.08,3.66-2.05,7.49-2.02,8.45.22.7-.1,1.47-.77,1.81-.22.11-.45.16-.68.16Zm39.23-10.2s-.02,0-.02,0c0,0,.02,0,.02,0Z"/>
                    <path class="cls-18" d="m948.59,1249.54c-.29,0-.57-.09-.82-.26l-3.95-2.8c-.64-.45-.79-1.34-.34-1.98.46-.64,1.34-.79,1.98-.34l3.95,2.8c.64.46.79,1.34.34,1.98-.28.39-.72.6-1.16.6Z"/>
                    <path class="cls-18" d="m946.91,1250.07c-.18,0-.36-.03-.54-.1-.78-.3-1.18-1.17-.88-1.96l1.75-4.61c.3-.78,1.17-1.18,1.96-.88.78.3,1.18,1.17.88,1.96l-1.75,4.61c-.23.61-.81.98-1.42.98Z"/>
                    <path class="cls-18" d="m969.52,1245.97c-.22,0-.45-.05-.66-.15l-5.83-2.83c-.75-.37-1.07-1.27-.7-2.03s1.27-1.07,2.03-.7l5.83,2.83c.75.37,1.07,1.27.7,2.03-.26.54-.8.85-1.37.85Z"/>
                    <path class="cls-18" d="m967.42,1246.53c-.11,0-.23-.01-.34-.04-.82-.19-1.32-1-1.14-1.82l1.17-5.05c.19-.82,1.01-1.32,1.82-1.14.82.19,1.32,1,1.14,1.82l-1.17,5.05c-.16.7-.79,1.17-1.48,1.17Z"/>
                    <path class="cls-18" d="m929.13,1252.99c-.12,0-.24-.01-.36-.04-.81-.2-1.31-1.02-1.11-1.83l1.12-4.56c.2-.81,1.02-1.31,1.83-1.11.81.2,1.31,1.02,1.11,1.83l-1.12,4.56c-.17.69-.79,1.16-1.47,1.16Z"/>
                    <path class="cls-18" d="m930.31,1253.1c-.28,0-.56-.08-.82-.24l-5.43-3.48c-.71-.45-.91-1.39-.46-2.1.45-.7,1.39-.91,2.1-.46l5.43,3.48c.7.45.91,1.39.46,2.1-.29.45-.78.7-1.28.7Z"/>
                  </g>
                </g>
                <path class="cls-13" d="m1372.59,815.84c29.41,21.12,18.88,68.04,19.39,72,.43,3.38,1.43,17.19,1.52,51.67.15,49.27-20.99,302.28-23.96,310.94-2.99,8.66-92.19,6.26-94.5,2.01-4.66-8.66-39.1-369.66-44.16-408.33,1.04-9.06-7.38-38.69-7.44-42.5,1.04-1,2-2.57,3-3.7.82-.04,1.69,0,2.53-.06,40.42-2.14,76.63-6.33,112.22-13.44,17.48-3.51,26.21,27.68,31.4,31.4Z"/>
                <path class="cls-13" d="m1062.92,1185.98c-3.09,7.25-90.15,5.92-96.64-.56-3.66-3.65-134.37-360.12-99.59-410.8,19.94-29.05,33.8-43.91,95.24-60.22,61.44-16.33,182.41-23.06,242.89-27.85,60.49-4.81,66.8-10.07,67.19-3.83,1.67,26.1,169.81-4.51,174.58,31.06,1,7.52,16.08,96.96-15.93,126.65-81.83,75.91-120.33,103.42-183.39,48.39-47.94-41.85-230.73-16.65-230.39-12.95,2.94,32.34,41.06,202.99,47.68,301.83l-1.66,8.29Z"/>
                <path class="cls-34" d="m1236.28,876.79c-.78,0-1.44-.6-1.51-1.39-1.19-13.62,3.66-52.17,39.84-66.78.78-.31,1.66.06,1.97.84.31.78-.06,1.66-.84,1.97-34.47,13.92-39.08,50.7-37.95,63.7.07.83-.55,1.57-1.38,1.64-.04,0-.09,0-.13,0Z"/>
                <path class="cls-34" d="m1393.53,873.81c-.84,0-1.52-.68-1.52-1.52,0-17.78-2.31-39.75-20.36-52.04-.69-.47-.87-1.41-.4-2.11.47-.69,1.41-.87,2.11-.4,21.69,14.76,21.69,43.66,21.69,54.54,0,.84-.68,1.52-1.52,1.52Z"/>
                <path class="cls-34" d="m972.93,882.66c-2.94,0-12.64-.32-13.89-4.43-.91-2.99,2.93-5.55,4.19-6.39,8.61-5.73,19.63-7.67,32.77-5.78.22.03.52.11.96.27-.21-.16-.4-.32-.59-.47-1.74-1.37-3.07-2.42-3.4-2.7-10-8.33-18.16-18.75-24.28-30.97-.16-.32-.44-.79-.78-1.38-2.46-4.21-4.98-8.97-3.77-12.2.46-1.22,1.41-2.1,2.75-2.54,14.51-4.85,36.67,36.47,39.14,42.22l.25.59c6.02,14,6.03,16.09,5.45,17.23-.24.48-.68.82-1.19.94-12.23,2.83-25.21,5.6-37.61,5.6Zm13.75-14.27c-8.49,0-15.78,2-21.76,5.97-2.68,1.79-3.03,2.81-2.97,2.99.32,1.05,5.19,2.27,10.99,2.27,11.19,0,22.99-2.34,34.25-4.91-.09-.04-.18-.09-.27-.14-8.75-4.57-10.87-5.42-11.36-5.52-3.09-.44-6.05-.67-8.87-.67Zm-17.26-49.68c-.55,0-1.07.08-1.57.25-.6.2-.77.48-.87.73-.81,2.15,2.24,7.37,3.55,9.6.38.66.7,1.19.87,1.55,5.92,11.84,13.83,21.93,23.5,29.99.32.26,1.63,1.3,3.35,2.65,5.18,4.09,8.08,6.38,9.71,7.74-.77-2.22-2.12-5.7-4.46-11.14l-.25-.59c-4.65-10.84-23.27-40.78-33.82-40.78Z"/>
              </g>
              <g>
                <g>
                  <path class="cls-24" d="m1508.67,597.63c4.34,28.19,15.18,57.46,1.32,81.91-18.15,31.98-60.69,10.05-60.69,10.05,0,0,8.42,21.91-7.33,27.58-56.82,20.48-262.9,15.86-298.58-15.84-23.39-20.82-41.16-257.07-20.61-316.58,4.41-12.76-20.33,18-53.36,42.45-27,19.99-50.19,28.41-50.19,28.41,0,0-26.42,49.53-64.73,25.76-24.15-14.98-36.75-71.37-22.32-112.7,14.41-41.32,75.93-52.86,75.93-52.86,0,0,19.22-16.35,129.75-78.83,47.2-26.68,98.03-36,143.5-36.42,6.09-.06,12.06.04,17.94.3,25.54,1.03,48.86,4.72,68.23,9.34,20.88,4.98,37.17,11.09,46.69,16.2,2.48,1.33,4.9,2.67,7.29,4,2.18,1.24,4.34,2.46,6.44,3.72,8,4.72,15.48,9.53,22.49,14.41,38.18,26.64,62.1,55.43,78.21,82.87,41.45,70.69-19.97,266.22-19.97,266.22Z"/>
                  <path class="cls-6" d="m1450.44,248.54c-9.53,15.78-54.45,82.34-127.59,70.41-72.25-11.8-51.05-93.58-41.51-118.38,32.53-.3,62.35,3.95,86.17,9.64,2.78.85,5.54,1.73,8.27,2.61,17.23,5.66,33.01,12.01,45.72,17.59,10.47,5.9,20.09,11.97,28.94,18.13Z"/>
                  <path class="cls-22" d="m1496.34,693.14c-.38,0-.77-.14-1.06-.44-.6-.59-.6-1.55-.02-2.14,8.6-8.73,10.87-26.11,6.23-47.68-4.31-20.05-13.84-39.94-24.87-51.9-.57-.62-.53-1.58.09-2.14.62-.57,1.57-.53,2.14.09,22,23.86,39.77,82.24,18.57,103.77-.3.3-.69.45-1.08.45Z"/>
                  <path class="cls-22" d="m1521.48,676.9c-.16,0-.31-.02-.47-.07-.8-.26-1.23-1.11-.97-1.91,11.77-36.18-10.19-86.14-37.25-108.34l-.84-.69c-7.41-6.1-24.75-20.37-41.36-21.2-.84-.04-1.48-.75-1.44-1.59.04-.84.77-1.48,1.59-1.44,17.61.88,35.5,15.6,43.14,21.88l.84.69c27.82,22.82,50.36,74.28,38.21,111.62-.21.64-.8,1.05-1.44,1.05Z"/>
                  <path class="cls-22" d="m1398.24,556.61s-.09,0-.14,0c-.83-.07-1.45-.81-1.38-1.65.17-1.93.41-4.76.7-8.21,1.23-14.69,3.29-39.28,5.23-53.73.6-4.48,1.28-10.94,2.06-18.41,3.63-34.62,5.99-51.56,9.55-54.22.67-.5,1.61-.36,2.11.31.5.66.37,1.62-.29,2.12-3.13,2.4-6.52,34.73-8.34,52.1-.79,7.49-1.47,13.97-2.07,18.49-1.93,14.38-3.99,38.92-5.21,53.58-.29,3.46-.53,6.3-.7,8.23-.07.79-.73,1.38-1.51,1.38Z"/>
                  <path class="cls-22" d="m1378.71,600.88c-.41,0-.83-.17-1.13-.5-3.97-4.42-4.75-10.61-2.23-17.92,4.96-14.4,20.92-29.26,30.02-30.87.82-.15,1.61.4,1.76,1.23.15.83-.4,1.61-1.23,1.76-8.07,1.43-23.24,15.96-27.68,28.87-2.17,6.29-1.62,11.31,1.62,14.9.56.62.51,1.58-.11,2.14-.29.26-.65.39-1.01.39Z"/>
                  <path class="cls-22" d="m1020.42,323.53c-.27,0-.54-.07-.79-.22-.24-.15-.58-.38-1-.66-5.8-3.91-14.06-8.37-18.84-2.03-.5.67-1.46.8-2.12.3-.67-.5-.8-1.46-.3-2.12,7.07-9.37,19.03-1.31,22.96,1.34.37.25.67.46.89.59.71.44.94,1.37.5,2.09-.29.47-.78.72-1.29.72Z"/>
                  <path class="cls-22" d="m1002.88,478.81c-.34,0-.69-.12-.97-.35-.64-.54-.73-1.49-.19-2.14,8.17-9.75,10.52-12.94,14.83-21.93,8.67-18.09,10.15-42.33,11.45-63.71.36-5.89.7-11.46,1.17-16.77.07-.83.81-1.45,1.64-1.38.83.07,1.45.81,1.38,1.64-.47,5.27-.8,10.82-1.16,16.69-1.32,21.66-2.81,46.21-11.74,64.84-4.46,9.3-6.87,12.58-15.24,22.57-.3.36-.73.54-1.16.54Z"/>
                  <path class="cls-22" d="m1121.85,381.65c-.56,0-1.09-.31-1.36-.84-.37-.75-.07-1.66.68-2.03,1.67-.83,13.82-15.14,26.13-44.77,1.54-3.7,3.01-7.28,4.44-10.74,16.95-41.18,27.18-66.03,60.24-96.68.61-.57,1.57-.53,2.14.08.57.61.53,1.57-.08,2.14-32.57,30.2-42.7,54.82-59.5,95.62-1.43,3.47-2.9,7.05-4.44,10.75-11.22,26.99-23.92,44.5-27.58,46.32-.22.11-.45.16-.67.16Z"/>
                </g>
                <g>
                  <path class="cls-5" d="m985.02,418.43c9.95-30.68-4.85-30.48,14.55-110.84,19.4-80.35,59.91-164.66,70.3-178.53,10.39-13.85,72.92-33.43,83.38-49.83,10.46-16.4,18.75-78.34,6.76-79.16-11.99-.83-40.05,7.29-77.68,15.56-37.63,8.27-38.04,8.27-40.11,24.8-2.07,16.55-3.36,54.74-8.74,64.24-5.38,9.51-88.49,74.02-123.22,159.61-34.73,85.59-44.91,162.26-30.18,170.77,34.32,19.84,99.06,1.5,104.94-16.61Z"/>
                  <path class="cls-10" d="m1246.4,3.97c-.48-1.01-1.39-3.27-4.85-1.13-10.95,6.78-41.48,26.29-102.04,48.65-1.93.71,2.93,17.21,3.99,29.75,1.83,21.51,3.94,34.99,4.8,35.46.86.45,23.75-2.5,54.38-13.06,22.22-7.67,50.91-25.07,53.85-27.73,2.93-2.65-2-55.15-10.13-71.93Z"/>
                  <path class="cls-5" d="m1161.92,3.65c6.65,4.51,5.52,48.25-6.92,61.22-10.33,10.75-21.56,10.37-19.7-1.6,1.86-11.99,7.19-41,7.19-41,0,0,12.78-23.15,19.43-18.62Z"/>
                  <path class="cls-36" d="m1117.08,88.48c-.4,0-.79-.03-1.19-.1-1.59-.28-2.92-1.17-3.85-2.56-3.52-5.29-1.94-9.86-1.88-10.05.28-.79,1.15-1.2,1.94-.92.79.28,1.2,1.15.92,1.94-.04.12-1.09,3.38,1.55,7.35.48.72,1.07,1.12,1.85,1.26,2.16.38,5.13-1.34,6.09-2.04.03-.02.07-.05.11-.07,13.24-8.05,25.73-44.94,15.01-71.8-.31-.78.07-1.66.85-1.97.78-.31,1.66.07,1.97.85,10.65,26.68-.26,65.73-16.19,75.48-.59.43-3.84,2.64-7.16,2.64Z"/>
                  <path class="cls-36" d="m1096.4,90.45c-1.15,0-2.48-.22-3.82-.9-3.02-1.54-5.08-4.9-6.12-9.98-.17-.82.36-1.62,1.18-1.79.82-.17,1.62.36,1.79,1.18.85,4.13,2.38,6.79,4.53,7.89,2.29,1.17,4.64.18,4.67.16,7.05-2.76,14.01-12.84,18.24-26.33,5.35-17.08,4.9-33.96-1.15-43-.47-.7-.28-1.64.42-2.1.7-.47,1.64-.28,2.1.42,7.95,11.87,5.79,31.98,1.53,45.59-4.56,14.56-12.03,25.11-19.96,28.22-.05.02-1.46.64-3.4.64Z"/>
                  <path class="cls-36" d="m1067.49,96.45c-1.59,0-2.9-.48-3.93-1.45-4.24-4.01-1.56-15.28.81-25.23,1.07-4.52,2.4-10.1,2.04-11.8-1.28,1.46-3.41,3.85-7.61,4.88-5.72,1.4-7.97.32-8.86-.84-.53-.69-.63-1.53-.26-2.2.32-.59.96-.92,1.63-.86.73.07,1.3.65,1.37,1.35.62.19,2.14.4,5.39-.4,3.31-.81,4.98-2.72,6.09-3.98.84-.95,1.63-1.86,2.87-1.64,1.31.23,1.85,1.62,2.14,2.37.85,2.18-.1,6.45-1.85,13.82-1.85,7.77-4.64,19.52-1.68,22.33.78.74,2.14.82,4.05.25,13.19-3.93,22.65-23.83,24.89-36.04.56-3.06.95-18.36-4.1-32.57-.28-.79.13-1.66.92-1.94.79-.28,1.66.13,1.94.92,5.25,14.79,4.81,30.89,4.22,34.13-2.45,13.34-12.44,34.07-27.01,38.41-1.11.33-2.14.5-3.07.5Z"/>
                </g>
                <g>
                  <path class="cls-27" d="m1318.68,142.18c.83-19.81-17.57-48.53-30.93-26.39-11.05,22.42-4.87,44.66-1.97,53.38,2.74,8.27,14.66,12.23,22.68,4.9,8.02-7.35,9.51-14.13,10.22-31.89Z"/>
                  <path class="cls-5" d="m1454.88,167.59c14.24-13.79,47.13-8.42,37.62,15.07-9.4,23.17-24.77,29.63-37.77,32.43-12.98,2.8-20.35.43-20.22-10.43.15-10.88,7.59-24.71,20.37-37.07Z"/>
                  <path class="cls-8" d="m1427.94,234.13c-6.73,10.35-21.25,32.02-31.34,41.58-13.51,12.82-44.74,34.18-81.08,16.12-35.55-17.66-23.62-72.96-16.23-90.96,25.54,1.03,48.86,4.72,68.23,9.34,20.88,4.98,37.17,11.09,46.69,16.2,2.48,1.33,4.9,2.67,7.29,4,2.18,1.24,4.34,2.46,6.44,3.72Z"/>
                  <path class="cls-5" d="m1436.16,219.36c16.42-28.28,84.37-70.71,75.03-136.1-8.21-57.44-78.21-97.37-135.67-78.22-57.44,19.15-90.25,119.23-87.53,204.03,2.74,84.82,68.83,71.4,94.37,61.37,25.54-10.03,37.39-22.79,53.8-51.07Z"/>
                  <path class="cls-9" d="m1385.03,141.57c-3.93-6.75,8.77-18.62,16.07-14.96,5.81,2.89,27.96,17.72,30.63,26.63.68,2.29-2.63,5.84-5.13,7.05-15.6,7.48-39.01-14.34-41.56-18.72Z"/>
                  <path class="cls-9" d="m1345.74,105.83c-22.25,1.24-28.67-.53-34.5,3.12-5.84,3.65-8.87,11.52-2.29,13.72,6.58,2.18,20.12,3.38,31.79,2.29,11.69-1.11,27.23-20.37,5-19.13Z"/>
                  <path class="cls-33" d="m1390.71,171.26c1.86-5.04,5.92-8.17,9.08-7.03,3.16,1.16,4.23,6.2,2.37,11.24-1.84,5.05-5.92,8.19-9.08,7.03-3.16-1.15-4.23-6.18-2.37-11.24Z"/>
                  <path class="cls-33" d="m1390.71,171.26c1.86-5.04,5.92-8.17,9.08-7.03,3.16,1.16,4.23,6.2,2.37,11.24-1.84,5.05-5.92,8.19-9.08,7.03-3.16-1.15-4.23-6.18-2.37-11.24Z"/>
                  <path class="cls-33" d="m1315.71,143.56c1.84-5.04,5.9-8.17,9.08-7.03,3.16,1.16,4.21,6.2,2.37,11.24-1.86,5.05-5.92,8.19-9.08,7.03-3.18-1.15-4.23-6.18-2.37-11.24Z"/>
                  <path class="cls-14" d="m1466.48,164.19c-1.1,0-2.24-.04-3.45-.12-.84-.06-1.47-.78-1.41-1.62.06-.84.78-1.46,1.62-1.41,8.19.56,13.02-.87,20.75-4.27,5.48-2.41,10.45-5.8,14.58-8.8,12.4-8.93,16.69-12.82,18.1-14.5,5.09-6.07,6.92-10.55,5.14-12.62-1.29-1.5-4.14-2.13-7.87-2.13-9.48,10.85-23.62,19.42-39.18,23.7-.49.13-1.42.45-2.61.85-11.96,4.03-19.87,5.88-22.32,2.69-.53-.68-.71-1.52-.54-2.43.64-3.26,6.45-7.92,18.84-15.13.41-.24.7-.41.86-.5,6.14-3.74,28.82-11.76,43.5-12.15.22-.26.43-.52.64-.78,5.64-6.98,9.25-13.69,8.82-15.2-.34-.08-2.05-.18-7.81,3.14-.73.42-1.65.17-2.07-.56-.42-.73-.17-1.65.56-2.07,6.47-3.73,9.95-4.48,11.63-2.51,2.88,3.37-4.02,13.09-7.94,18.08,3.5.3,6.26,1.23,7.8,3.03,2.99,3.48,1.32,8.89-5.12,16.55-2.22,2.64-8.49,7.69-18.65,15.01-4.26,3.09-9.4,6.6-15.14,9.12-6.93,3.05-11.87,4.65-18.72,4.65Zm43.13-45.26c-13.15,1.26-32.46,7.52-39.05,11.54-.16.1-.48.28-.92.54-17.08,9.93-17.41,12.85-17.39,13.15.58.72,3.85,1.29,18.93-3.79,1.28-.43,2.21-.74,2.78-.9,13.91-3.82,26.63-11.19,35.66-20.55Z"/>
                  <path class="cls-14" d="m1301.79,101.5c-.66,0-1.26-.43-1.45-1.09-4.55-15.52.33-48.01,9.16-61,2.48-3.64,5.15-5.62,7.96-5.87,2.02-.18,5.68.38,7.55,6.18,3.38,10.48-1.22,33.57-9.21,38.29-3.96,2.35-5.85.47-6.47-.45-3.77-5.51,3.62-26.71,9.69-31.46.66-.52,1.61-.4,2.13.26.52.66.4,1.61-.26,2.13-5.24,4.1-11.67,23.53-9.06,27.36.4.58,1.54.08,2.43-.45,6.29-3.72,11.07-24.82,7.87-34.75-1.41-4.37-3.65-4.16-4.39-4.1-1.83.17-3.81,1.74-5.72,4.56-8.46,12.44-13.12,43.57-8.76,58.44.24.8-.22,1.65-1.03,1.88-.14.04-.29.06-.43.06Z"/>
                  <path class="cls-27" d="m1449.02,205.56c-.27,0-.53-.07-.78-.22-.72-.43-.95-1.36-.52-2.08.03-.05.06-.13.11-.22,0-.01.01-.02.02-.03,3.54-6.65,16.83-19.64,27.94-23.98,4.57-1.79,8.37-1.96,11.28-.51.75.37,1.05,1.29.68,2.03-.38.75-1.29,1.05-2.03.68-2.11-1.06-5.08-.85-8.82.62-10.27,4.01-22.98,16.34-26.31,22.48-.04.09-.09.18-.14.26-.05.09-.08.16-.12.22-.28.47-.79.74-1.3.74Zm1.36-.88s0,0,0,0c0,0,0,0,0,0Z"/>
                  <path class="cls-35" d="m1341.83,217.19c-.45,0-.92,0-1.41-.01-12.48-.19-27.14-8.67-29.81-26.81l-.06-.37c-.89-5.9-1.49-11.68.11-14.04.37-.58.89-.65,1.75-.78,14.43-2.09,25.84-9.99,32.86-16.24,12.78-11.41,16.97-24.34,17.51-28.36l.02-.17c.07-.72.65-1.39,1.38-1.46.73-.07,1.43.47,1.63,1.16l.06.18c.17.48.08.98-.19,1.37-.91,4.97-5.56,18.09-18.38,29.54-7.32,6.52-19.21,14.75-34.34,16.96-.39,1.26-.48,4.29.59,11.38l.06.38c2.42,16.4,15.62,24.05,26.86,24.23,4.1.06,6.82-.16,8.81-.33,1.73-.14,2.98-.25,4.19-.09.83.11,1.42.87,1.31,1.7-.11.83-.86,1.42-1.7,1.31-.9-.11-2.01-.02-3.56.11-1.81.15-4.22.35-7.7.35Zm-28.63-39.57s-.01.02-.02.03c0,0,.01-.02.02-.03Z"/>
                  <path class="cls-35" d="m1334.87,242.03c-10.04,0-19.22-3.23-26.15-9.38-.63-.56-.68-1.51-.13-2.14.56-.63,1.52-.68,2.14-.13,8.68,7.7,21.27,10.41,34.54,7.43,15.09-3.39,28.22-13.51,33.47-25.79.33-.77,1.22-1.13,1.99-.8.77.33,1.13,1.22.8,1.99-5.61,13.15-19.58,23.97-35.59,27.56-3.76.84-7.47,1.26-11.07,1.26Z"/>
                  <path class="cls-27" d="m1471.27,197.38c-2.25,3.1-6.88,7.33-9.81,9.08-5.07,3.06-9.43,1.43-12.08-2.31-.09-.11-.15-.24-.19-.39v-.02c3.36-6.31,16.42-19.09,27.15-23.28.75,2.89.94,8.7-5.07,16.93Z"/>
                </g>
              </g>
            </g>
            <g>
              <path class="cls-18" d="m1325.1,1313.49c12.67-12.61,28.09-26.7,47.42-24.69,2.22.23,4.43.74,6.54,1.47,1.75.61,3.47,1.54,3.76,3.56.22,1.5-.56,2.82-1.71,3.73-1.06.83-2.11,1.11-3.41,1.41-8.35,1.89-16.79,3.42-25.21,4.98-9.39,1.74-18.8,3.42-28.1,5.56-1.77.41-1.01,3.12.76,2.72,17.7-4.08,35.73-6.55,53.44-10.57,3.15-.72,6.41-2.72,7-6.17.36-2.14-.37-4.35-1.94-5.85-1.63-1.55-4.03-2.23-6.16-2.78-9.45-2.45-19.6-.37-28.21,3.9-10.08,5-18.32,12.94-26.21,20.8-1.28,1.28.75,3.23,2.04,1.94h0Z"/>
              <path class="cls-18" d="m1324.73,1309.41c-4.82-4.92-11.47-7.57-18.27-8.16-7.55-.66-15.12,1.43-21.85,4.73-3.15,1.54-6.8,3.31-8.69,6.4-1.81,2.97-1.42,6.85,1.59,8.83,2.78,1.84,6.26,1.35,9.14.07,1.68-.74,3.22-1.73,4.83-2.6,1.61-.86,3.28-1.57,5-2.16,7.98-2.73,16.54-2.84,24.88-2.93,1.82-.02,1.78-2.84-.03-2.82-6.89.08-13.85.21-20.62,1.67-3.29.71-6.5,1.76-9.52,3.24-2.77,1.35-5.52,3.66-8.68,3.93-2.41.2-5.26-1.04-4.86-3.88.46-3.27,4.03-5.02,6.62-6.4,6.09-3.25,12.91-5.45,19.86-5.37,6.88.08,13.79,2.54,18.66,7.5,1.27,1.3,3.21-.74,1.94-2.04h0Z"/>
            </g>
            <g>
              <path class="cls-18" d="m971.25,1244.74c7.44,3.72,15.4,6.37,23.57,7.94,4.19.8,8.43,1.33,12.69,1.6,2.22.14,4.44.21,6.66.2,1.95,0,3.98.05,5.9-.35,1.78-.37,3.5-1.36,4.34-3.03.82-1.63.72-3.58-.15-5.16-.93-1.67-2.62-2.78-4.2-3.75-1.45-.89-2.97-1.68-4.54-2.36-6.63-2.87-13.96-3.94-21.16-3.53-8.7.5-17.24,3.12-24.75,7.53-1.56.92-.11,3.34,1.45,2.42,11.72-6.88,26.49-9.35,39.59-5.24,2.99.94,5.86,2.25,8.51,3.94,1.23.79,2.78,1.8,2.99,3.38.21,1.54-.92,2.58-2.3,2.96-1.66.46-3.49.36-5.19.38-2,.01-3.99-.03-5.98-.13-3.92-.2-7.82-.63-11.69-1.31-8.45-1.49-16.69-4.1-24.38-7.95-1.62-.81-2.98,1.66-1.35,2.47h0Z"/>
              <path class="cls-18" d="m972.56,1241.86c-4.13-4.9-7.57-10.99-9.03-17.28-.12-.51-.35-1.49.16-1.9.45-.36,1.01.27,1.32.57,1.04,1.03,1.9,2.27,2.66,3.51,1.56,2.54,2.6,5.36,3.14,8.29.61,3.29.47,6.7-.35,9.93-.45,1.76,2.29,2.44,2.73.68,1.79-7.08.5-14.85-3.5-20.97-.98-1.49-2.12-3.16-3.59-4.2-1.65-1.17-3.85-.94-4.94.88-1.03,1.72-.46,3.72.09,5.5.6,1.95,1.34,3.85,2.18,5.71,1.84,4.1,4.29,7.87,7.18,11.31.49.58,1.51.46,1.99-.05.57-.6.45-1.41-.05-1.99h0Z"/>
            </g>
          </g>
          <g>
            <polygon class="cls-26" points="1914.17 807.69 2103.81 691.19 2103.81 661.96 1869.14 661.96 1914.17 807.69"/>
            <g>
              <polygon class="cls-2" points="1914.24 778.04 310.69 778.04 639 661.68 2102.98 661.68 1914.24 778.04"/>
              <rect class="cls-26" x="310.79" y="778.14" width="1603.34" height="29.54"/>
            </g>
          </g>
          <g>
            <path class="cls-20" d="m427.22,674.39c-.95.35-1.73,1-2.26,1.85-2.09,3.36-7.12,13.11-8.54,30.93-2.23,17.17-2.38,33.96-2.38,33.96,0,0,47.87-17.52,50.23-17.69,17.07-1.2,20.58,9.45,31.81,12.68,11.23,3.25,14.17,3.59,19.87-.58,5.71-4.17,6.15,3.95,16.03.43s6.61-6.37,7.66-8.57c1.05-2.2,5.95,4.15,15.39.23,9.44-3.93,4.64-11.71,7.9-10.54,10.98,3.95,14.23-5,14.61-11.84.65-11.78-32.5-52.37-50.16-56.95-16.34-4.23-89.39,22.14-100.17,26.1Z"/>
            <path class="cls-36" d="m562.1,715.34c-.57,0-1.12-.32-1.37-.87-2.24-4.8-16.98-23.48-26.53-28.26-.75-.37-1.05-1.29-.68-2.03.37-.75,1.29-1.05,2.03-.68,10.51,5.25,25.67,24.88,27.92,29.69.35.76.03,1.66-.73,2.02-.21.1-.43.14-.64.14Z"/>
            <path class="cls-36" d="m541.32,726.23c-.56,0-1.09-.31-1.36-.84-3.53-7.07-20.16-26.11-25.94-28.89-.75-.36-1.07-1.27-.71-2.02.36-.75,1.27-1.07,2.02-.71,6.9,3.31,23.81,23.19,27.35,30.27.37.75.07,1.66-.68,2.03-.22.11-.45.16-.68.16Z"/>
            <path class="cls-36" d="m518.54,733.77c-.56,0-1.09-.31-1.36-.84-3.4-6.8-11.94-14.19-20.19-21.34-.96-.83-1.91-1.66-2.87-2.49-.63-.55-.7-1.51-.15-2.14.55-.63,1.51-.7,2.14-.15.95.83,1.9,1.66,2.86,2.48,8.87,7.68,17.24,14.94,20.91,22.28.37.75.07,1.66-.68,2.04-.22.11-.45.16-.68.16Z"/>
          </g>
          <g>
            <g>
              <path class="cls-17" d="m1105.25,544.3l62.96-13.67c1.42-.31,2.82.59,3.13,2.02l22.37,103.03c.31,1.42-.59,2.82-2.02,3.13l-62.96,13.67c-1.42.31-2.82-.59-3.13-2.02l-22.37-103.03c-.31-1.42.59-2.82,2.02-3.13Z"/>
              <path class="cls-10" d="m1044.68,605.01l43.59-50.13c.59-.68,1.62-.75,2.3-.16l81.08,70.49c.68.59.75,1.62.16,2.3l-43.59,50.13c-.59.68-1.62.75-2.3.16l-81.08-70.49c-.68-.59-.75-1.62-.16-2.3Z"/>
              <path class="cls-10" d="m1187.67,526.75l63.5,10.87c1.43.25,2.4,1.61,2.15,3.04l-17.79,103.9c-.25,1.43-1.61,2.4-3.04,2.15l-63.5-10.87c-1.43-.25-2.4-1.61-2.15-3.04l17.79-103.9c.25-1.43,1.61-2.4,3.04-2.15Z"/>
            </g>
            <g>
              <path class="cls-20" d="m1411.56,574.77c-11.22,2.65-139.37,106.35-149.93,93.8-10.57-12.55-21.8-41.6-33.03-46.24-11.23-4.62-85.41,2.25-93.34,20.09-1.56,3.51-.9,6.95,5.14,9.13,1.29.45-7.19.58-6.77,7.63.59,9.83,14.06,6.75,13.77,9.68-.37,3.72.64,6.24,5.86,8.79,5.23,2.54,13.97,1.77,18.61,1.32,1.46-.15-8.28,8.62,9.96,8.93,35.31.6,35.56,7.93,47.45,25.76,4.52,6.78,19.41,13.89,34.82,13.06,34.1-1.8,46.88-10.45,97.94-28.3,51.07-17.83,103.69-32.47,106.33-43.05,2.63-10.56,10.84-19.69-14.54-59.96-15.45-24.5-31.04-23.26-42.28-20.63Z"/>
              <path class="cls-36" d="m1141.34,652.14c-.12,0-.24-.01-.36-.04-.68-.17-1.17-.79-1.17-1.49,0-1.01,0-1.48,9-4.86,4.36-1.64,11.09-3.96,18.42-5.67l.95-.22c13.67-3.19,26.58-6.21,42.32-2.77.82.18,1.34.99,1.16,1.8-.18.82-.99,1.34-1.8,1.16-15.06-3.29-27.65-.35-40.98,2.76l-.95.22c-12.13,2.83-23.76,7.71-25.52,8.69-.28.27-.66.43-1.05.43Z"/>
              <path class="cls-36" d="m1149.12,668.28c-.12,0-.24-.01-.36-.04-.64-.16-1.13-.73-1.17-1.39-.06-.93-.11-1.6,8.28-4.9,5.03-1.98,17.42-5.6,22.21-6.8,15.62-3.98,28.29-4.8,42.37-2.75.83.12,1.4.89,1.28,1.72-.12.83-.89,1.4-1.72,1.28-13.66-1.99-25.98-1.18-41.18,2.69-5.32,1.34-17.22,4.87-21.85,6.69-1.32.52-5.71,2.45-6.77,3.04-.28.29-.68.47-1.09.47Z"/>
              <path class="cls-36" d="m1174.26,680.22c-.51,0-1.01-.26-1.29-.72-.44-.71-.22-1.65.5-2.09,18.11-11.16,57.27-8.96,60.47-6.83.7.46.89,1.4.42,2.1-.46.7-1.4.89-2.1.42-2.88-1.34-39.99-3.72-57.2,6.89-.25.15-.52.23-.79.23Z"/>
            </g>
          </g>
          <g>
            <path class="cls-5" d="m1680.94,1271.46c0,22.36-9.3,64.53-11.91,86.4-.73,6.03,1.33,16.46-1.22,21.76-1.01,2.14-13.43-1.22-15.67-1.67-12.63-2.5-26.01-1.52-38.58-5.02-3.27-.92-56.5-10.09-58.89-13.4-.43-.62,41.9-23.77,43.67-27.87,3.38-7.89,30.29-76.33,30.29-88.88,0-.68,30.59,4.21,40.72,4.21l11.59,24.47Z"/>
            <path class="cls-25" d="m1672.61,1344.51c8.57,14.39,14.26,58.27,11.61,59.92-2.67,1.65-203.8.15-206.66-2.12-1.69-1.32-8.85-13.17,10.62-25.27,15.63-9.73,3.68-1.52,87.54-37.83,11.74-5.09,1.28-13.28,39.42,26.19,22.74,23.51,55.53-24.13,57.46-20.9Z"/>
            <path class="cls-31" d="m2021.51,870.37c-21.87,2.02-241.83-2.46-272.12,10.75-66.93,29.22-139.91,401.82-139.84,410.3.02,2.86,70.03,20.42,77.02,14.11,11.63-10.54,117.91-193.33,135.23-251.14,1.97-6.56,47.6,4.46,147.02,8.54,99.44,4.08,190.57,2.67,229.62-15.07,39.05-17.73,56.31-116.45,56.31-116.45,0,0-211.37-63.08-233.25-61.04Z"/>
          </g>
          <path class="cls-11" d="m1993.14,879.02c-.16,0-.32-.02-.48-.08-16.01-5.26-102.95-5.22-176.63-2.52-.84.06-1.56-.63-1.59-1.48-.03-.85.63-1.56,1.48-1.59,73.94-2.71,161.35-2.7,177.7,2.67.8.26,1.24,1.13.98,1.94-.21.65-.81,1.06-1.46,1.06Z"/>
          <path class="cls-11" d="m1966.76,1061.52s-.1,0-.15,0c-26.43-2.51-115.84-6.54-123.88-6.69-.17.04-.35.06-.53.04-.38-.04-1.16-.11-1.54-.93-.23-.5-.17-1.08.14-1.53q.52-.73,5.6-.54c2.73.1,6.65.26,11.44.46,10.5.45,23.79,1.07,36.46,1.71,20.43,1.02,57.02,2.95,72.59,4.43.84.08,1.46.83,1.38,1.67-.08.79-.74,1.39-1.52,1.39Z"/>
          <g>
            <g>
              <g>
                <path class="cls-9" d="m2061.52,366.19c14.21,3.19,84.26-7.39,95.33-22,8.56-9.4,3.98-26.85,3.98-26.85,0,0,31.62,2.14,41.94-15.28,10.3-17.42,2.52-34.52,2.52-34.52,0,0,32.09-13.64,26.8-41.08-4.1-21.06-17.38-27.32-17.38-27.32,0,0,8.53-41.58-10.65-60.77s-42.3-20.26-42.3-20.26c0,0-8.89-27.02-30.93-30.22-22.04-3.19-44.06,6.75-44.06,6.75,0,0-4.98-14.92-25.24-12.8-20.26,2.14-33.77,17.06-33.77,17.06,0,0-36.96-15.63-57.24,3.91-20.26,19.56-15.99,41.23-15.99,41.23,0,0-52.95,14.22-43.35,51.54,9.58,37.32,47.97,44.42,47.97,44.42,0,0,88.15,122.98,102.37,126.18Z"/>
                <path class="cls-5" d="m2042.29,262.76c.79-21.2,24.07-38.25,33.96-13.36,8.09,24.93,3.62,36.94-3.08,48.66-6.7,11.73-12.91,15.31-19.47,6.74-6.56-8.57-12.12-23.03-11.42-42.04Z"/>
                <path class="cls-5" d="m1938.27,195.52c-3.93,25.16,22.92,69.22,23.41,81.91.49,12.66-20.48,47.77-14.64,54.59,5.86,6.82,24.37,2.93,24.37,2.93,0,0,12.4,42.43,36.77,46.83,24.37,4.38,46.11,5.33,55.37,9.22,9.26,3.91,114.55,0,114.55,0,0,0-20.46-34.61-21.93-42.9-1.47-8.29-19.02,22.92-75.07-7.8-15.16-8.31-6.84-65.8-38.03-75.56-20.05-6.26,6.82-31.68-23.39-37.54-12.48-2.41-16.57,5.37-27.3-32.66-7.7-27.32-51.67-14.62-54.12.98Z"/>
                <path class="cls-9" d="m1962.45,235.07c-6.09,10,.58,16.16,9.32,14.41,8.72-1.75,13.38-5.67,23.86-2.18,10.48,3.48,8,2.1,10.65-2.76,2.63-4.87-5.99-15.71-20.31-15.78-14.3-.08-21.52,3.03-23.53,6.31Z"/>
                <path class="cls-33" d="m1979.7,272.73c0-5.37,2.74-9.73,6.11-9.73s6.09,4.36,6.09,9.73-2.72,9.73-6.09,9.73-6.11-4.36-6.11-9.73Z"/>
                <path class="cls-35" d="m1983.88,361.39c-.56,0-1.09-.31-1.36-.84-.37-.75-.07-1.66.68-2.03,6.48-3.23,11.89-9.12,16.06-17.49,1.15-2.3,3.21-9.13,3.45-10.03.02-.13.06-.25.12-.38.23-.5.71-.84,1.26-.88.55-.04,1.07.21,1.38.66q.47.69-1.12,5.59c-.69,2.12-1.66,4.95-2.38,6.39-4.48,8.97-10.34,15.32-17.42,18.85-.22.11-.45.16-.68.16Z"/>
                <g>
                  <path class="cls-27" d="m2062.09,288.29c-.51,0-1.01-.26-1.29-.73-6.28-10.4-7.8-23.45-6.05-30.45,1.37-5.46,4.22-9.18,7.43-9.72,1.66-.28,4.12.14,6.44,3.7.46.7.26,1.63-.44,2.09-.7.46-1.64.26-2.09-.44-.79-1.21-2.02-2.6-3.41-2.37-1.92.32-3.97,3.4-5,7.48-1.63,6.5.06,18.8,5.7,28.15.43.71.2,1.64-.51,2.07-.24.15-.51.22-.78.22Z"/>
                  <path class="cls-27" d="m2054.56,257.59s7.94-1.24,13.71,10.49c1.47,2.99,2.75,8.32,2.8,11.35.09,5.28-3.36,8.23-7.71,8.99-.72.13-1.53-.41-1.88-1.26l-2.07-5.05s-7.4-21.69-4.85-24.51Z"/>
                </g>
              </g>
              <path class="cls-33" d="m1997.96,273.26c-.52,0-1.03-.27-1.31-.75-1.22-2.07-3.75-6.38-10.94-7.52-3.6-.57-7.11.98-7.14,1-.76.35-1.66,0-2.01-.76-.34-.76,0-1.66.75-2,.18-.08,4.34-1.95,8.87-1.23,8.6,1.36,11.85,6.89,13.08,8.98.42.72.18,1.65-.54,2.08-.24.14-.51.21-.77.21Z"/>
            </g>
            <g>
              <path class="cls-5" d="m1666.21,627.44c-16.42-4.73-25.59-20.45-39.1-30.35-13.51-9.9-45.94-16.31-56.9-15.39-10.97.94-46.24-11.24-50.79,2.89-4.55,14.15-4.21,11.31.79,25.63,5,14.34,40.14,59.7,57.16,58.83,17.02-.85,40.46-7.31,47.5-4.87,7.05,2.42,18.02,6.91,18.02,6.91,0,0,26.1-40.13,23.32-43.67Z"/>
              <path class="cls-5" d="m1739.6,518.28s-16.03,1.95-26.72-3.87c-10.67-5.82-22.34-15.05-36.9-17.49-14.56-2.42-61.67,7.78-67.98,17.01-6.31,9.23,2.42,38.84,2.42,38.84,0,0,48.57.98,73.81,5.36,25.25,4.36,49.06,3.38,49.06,3.38l6.31-43.22Z"/>
              <path class="cls-32" d="m1565.7,469.14l61.59-12.08c1.87-.37,3.69.85,4.06,2.73l19.98,101.84c.37,1.87-.85,3.69-2.73,4.06l-61.61,12.08c-1.88.37-3.69-.85-4.06-2.73l-19.96-101.84c-.37-1.87.85-3.69,2.73-4.06Z"/>
              <path class="cls-32" d="m1495.75,514.8l53.47-32.9c1.63-1,3.76-.49,4.76,1.13l54.38,88.38c1,1.63.49,3.76-1.13,4.76l-53.47,32.9c-1.63,1-3.76.49-4.76-1.13l-54.38-88.38c-1-1.63-.49-3.76,1.13-4.76Z"/>
              <g>
                <path class="cls-5" d="m1697.83,529.46c-16.52,3.4-31.94,17.98-52.46,18.73-20.52.75-25.93,12.78-19.17,16.23,11.44,5.83,28.86-1.05,54.45,1.05,25.61,2.09,32.85-1.18,40.14-9.92s-6.45-29.5-22.96-26.1Z"/>
                <path class="cls-36" d="m1649.97,547.89c-.62,0-1.2-.38-1.42-.99-.29-.79.11-1.66.9-1.95,1.53-.56,3.44-1.15,5.65-1.82,8.83-2.68,22.17-6.73,22.96-14.04.09-.83.84-1.43,1.67-1.34.83.09,1.43.84,1.34,1.67-1.01,9.31-14.93,13.53-25.09,16.62-2.17.66-4.04,1.23-5.48,1.76-.17.06-.35.09-.53.09Z"/>
              </g>
              <g>
                <path class="cls-5" d="m1607.11,624.75c-8.79-14.39-8.68-35.61-22.14-51.11-13.47-15.5-8.38-27.68-1.22-25.1,12.06,4.38,18.94,21.8,37.96,39.08,19,17.27,21.55,24.78,20.14,36.08-1.41,11.29-25.95,15.43-34.74,1.05Z"/>
                <path class="cls-36" d="m1582.75,609.47c-6.99,0-14.07-.97-16.08-1.44-.82-.19-1.32-1.01-1.13-1.82.19-.82,1.01-1.32,1.82-1.13,4.83,1.13,22.82,2.71,27.64-.71.7-.5.82-.92.85-1.2,0-.08.72-7.24-4.48-15.21-.46-.7-.26-1.64.44-2.1.7-.46,1.64-.26,2.1.44,5.78,8.87,4.99,16.85,4.95,17.19-.1.91-.54,2.23-2.11,3.35-2.82,2.01-8.39,2.63-14,2.63Z"/>
              </g>
              <path class="cls-24" d="m1614.02,527.44c7.01-3.8,15.14-30.38,6.52-34.72-6.97-3.51-13.05,12.14-13.05,12.14,0,0-12.57-6.63-16.75-1.69-7.02,8.3,20.22,25.93,23.28,24.27Z"/>
              <path class="cls-31" d="m1539.96,548.66c-.15-1.48-.86-26.54.42-26.45,1.28.1,23.67,10.3,24.08,11.27.41.97,1.8,25.75.42,25.19-1.38-.56-24.76-8.54-24.91-10.02Z"/>
            </g>
            <g>
              <path class="cls-28" d="m1946.76,515.58s-96.15-11.71-131.83-4.73c-35.66,6.99-40.93,5.6-40.93,5.6,0,0-32.54-7.35-35.76-4.74-4.79,3.89-16.08,49.19-12.06,57.29,2.91,5.84,26.95,3.81,26.95,3.81,0,0,48.2,30.4,84.63,35.83,36.45,5.43,75.82-2.56,93.67-5.66,17.83-3.1,15.33-87.41,15.33-87.41Z"/>
              <path class="cls-7" d="m1757.98,567.98c-.84,0-1.52-.68-1.52-1.52,0-3.16,4.44-19.16,5.8-23.99,5.85-20.76,6.77-21.37,7.25-21.69.7-.46,1.64-.28,2.1.42.39.58.32,1.34-.12,1.84-1.52,2.83-12.01,39.19-12.01,43.42,0,.84-.68,1.52-1.52,1.52Zm13.23-44.68s0,0,0,0c0,0,0,0,0,0Zm0,0h0,0Z"/>
            </g>
            <path class="cls-28" d="m2208.18,427.09c0-13.34-.92-13.81-8.74-23-7.82-9.19-1.39-17.48-17.94-23.45-16.55-5.98-28.96-7.82-73.58-1.84-44.61,5.98-61.61,17.01-58.85,24.84,2.76,7.82,8.27,20.69,5.98,28.04-2.29,7.37,85.53,7.84,85.53,7.84,0,0,67.61.9,67.61-12.42Z"/>
            <path class="cls-28" d="m1988.5,463.3c17.83-18.6,67.57-64.56,155.87-55.83,88.3,8.74,135.25,36.83,150.44,162.84,15.16,126.01-6.2,370.68-37.99,409.44-9.28,11.31-68.93,13.4-127.1-2.12-61.24-18.09-119-63.22-129.86-81.84-10.86-18.6,3.05-21.13,10.02-51.36,6.99-30.23-27.57-181.05-46.19-226.81-18.6-45.75,6.99-135.7,24.82-154.33Z"/>
            <path class="cls-28" d="m2030.36,436.94c-18.6,3.89-44.97,6.2-104.68,73.68-59.72,67.46-86.08,101.58-86.08,101.58,0,0-58.93-2.33-94.61,4.66-35.66,6.97-52.62,10.86-52.62,10.86,0,0-28.8-8.74-32.01-6.12-4.79,3.89-24.06,46.88-20.04,54.98,2.91,5.84,32.15,8.35,32.15,8.35,0,0,29.21,17.79,65.56,23.8,39.92,6.6,87.1,9.22,104.95,6.12,28.39-6.12,128.46-67.76,157.15-94.12,28.69-26.36,65.92-71.35,67.46-93.05,1.56-21.72-18.6-94.61-37.22-90.74Z"/>
            <path class="cls-7" d="m2065.79,424.47c-4.48,0-8.55-.55-11.37-2.1-.73-.4-1.01-1.32-.6-2.06.4-.73,1.32-1,2.06-.6,6.79,3.71,23.84.53,32.04-.99,1.87-.35,3.35-.62,4.41-.77l5-.72c36.63-5.26,78.15-11.23,105.64,1.1.76.34,1.11,1.24.76,2-.34.76-1.24,1.11-2,.76-26.69-11.97-69.54-5.81-103.97-.86l-5.01.72c-.99.14-2.52.43-4.28.75-5.84,1.09-14.88,2.77-22.68,2.77Z"/>
            <path class="cls-7" d="m1977.17,637.2c-.46,0-.92-.21-1.21-.61-.5-.67-.37-1.62.3-2.12,65.77-49.41,87.78-78.96,90.23-87.68,8.79-31.08-.93-90.78-22.54-106.99-.67-.5-.81-1.45-.3-2.12.5-.67,1.45-.81,2.12-.3,10.36,7.77,19,25.65,23.7,49.05,4.48,22.33,4.46,45.21-.06,61.19-2.73,9.73-25.04,39.49-91.32,89.28-.27.21-.59.3-.91.3Z"/>
            <path class="cls-7" d="m1843.42,609.06c-.84,0-1.52-.68-1.52-1.52,0-4.84,20.52-29.06,37.73-48.53,15.25-17.25,38.41-42.38,42.12-44.24.75-.37,1.66-.07,2.03.68s.07,1.66-.68,2.03c-2.28,1.14-20.29,19.9-40.99,43.3-25.45,28.77-37.02,44.22-37.18,46.77,0,.84-.68,1.51-1.52,1.51Z"/>
            <path class="cls-7" d="m1674.45,683.35c-.44,0-.91-.22-1.2-.56-1.19-1.39.06-12.35.08-12.45,1.37-8.16,6.69-31.12,14.83-39.28.59-.59,1.55-.59,2.14,0,.59.59.59,1.55,0,2.14-6.37,6.39-12.01,25.85-13.99,37.62-.22,1.4-.69,8.71-.53,10.3.11.21.17.45.17.71,0,.84-.68,1.52-1.52,1.52Zm0-3.03c.08,0,.16,0,.24.02-.08-.01-.15-.02-.24-.02Z"/>
          </g>
          <g>
            <path class="cls-33" d="m1407.49,174.58c-.63,0-1.21-.39-1.43-1.02-.79-2.27-2.43-6.99-9.25-9.51-3.42-1.26-7.16-.43-7.2-.42-.81.18-1.63-.32-1.82-1.14-.19-.81.32-1.63,1.13-1.82.19-.04,4.64-1.06,8.94.53,8.16,3.02,10.27,9.08,11.06,11.36.28.79-.14,1.66-.93,1.93-.16.06-.33.09-.5.09Z"/>
            <path class="cls-33" d="m1334.55,147.02c-.63,0-1.21-.39-1.43-1.02-.81-2.33-3.17-6.61-9.87-9.09-3.38-1.25-7.16-.19-7.19-.18-.8.23-1.64-.23-1.88-1.03-.23-.8.23-1.64,1.03-1.88.19-.06,4.76-1.36,9.1.24,7.87,2.91,10.7,8.1,11.69,10.94.28.79-.14,1.66-.93,1.93-.16.06-.33.09-.5.09Z"/>
          </g>
          <path class="cls-15" d="m2351.37,1040.83c44.04-78.01,41.59-332.61,13.03-372.11-47.8-66.13-117.88-60.3-181.09,18.81-52.28,65.43-63.1,227.63-64.57,326.81-.7,47.08,30.27,86.09,68.95,86.11.6,0,1.05-.01,1.34-.04,115.24-12.25,160.04-55.48,162.35-59.57Z"/>
        </g>
      </g>
      <g>
        <path class="cls-32" d="m890.73,693.63l34.37,44.5c.57.58,1.36.89,2.17.84l129.2-10.34c2.46-.15,3.53-3.17,1.73-4.84l-42.17-38.92c-.55-.5-1.27-.77-2.01-.74l-122.03,6.36c-2.41.1-2.94,1.42-1.26,3.14Z"/>
        <path class="cls-31" d="m1001.17,704.78c.63,1.88-21.53,12.75-23.42,13.8-1.59.89-24.58-5.24-31.78-8.29-1.01-.43-1.05-1.22-.11-1.77,5.24-3.03,20.36-11.23,24.15-12.1,2.72-.63,30.55,6.57,31.15,8.36Z"/>
      </g>
    </g>
  </g>
</svg>